<svg width="33" height="31" viewBox="0 0 33 31" fill="none" xmlns="http://www.w3.org/2000/svg">
<path d="M17.2124 1V4.87788H9.7886C8.48339 4.87788 7.55126 5.17521 6.92713 5.70555L6.90694 5.72273L6.88474 5.73728C6.54803 5.95974 6.22712 6.2947 5.92853 6.76083C5.43544 7.57834 5.19855 8.39184 5.19855 9.20684C5.19855 10.0027 5.46905 10.8456 6.04829 11.7423C6.47868 12.3905 7.17693 12.9039 8.1912 13.2592L8.25579 13.2797C8.58949 13.3799 9.09236 13.4394 9.7886 13.4394H17.2124V17.1759L16.8571 17.245L16.5261 17.3093L16.4847 17.3172H10.0991C8.35523 17.3172 6.98933 17.0979 6.05832 16.6092C4.16108 15.741 2.79242 14.3246 1.96513 12.3786L1.96475 12.3773C1.54101 11.3712 1.33008 10.3022 1.33008 9.17474C1.33008 7.24903 1.92111 5.52183 3.09891 4.00858L3.1058 3.99992L3.11308 3.99152C3.7638 3.23721 4.39208 2.65709 4.99916 2.26909L5.00894 2.26295C6.0345 1.64483 6.9961 1.26297 7.88848 1.14735C8.00523 1.116 8.15509 1.09568 8.31448 1.08038C8.50622 1.06182 8.74938 1.0469 9.04145 1.03511C9.62621 1.01154 10.4245 1 11.4339 1H17.2124Z" fill="#BAE8E8" stroke="#BAE8E8" stroke-width="0.877831"/>
<path d="M21.6484 6.5658C27.8797 6.5658 31.7784 9.95171 31.7784 15.4319C31.7784 19.0971 30.0123 21.7847 26.9801 23.1461L32.2117 31H26.4135L21.915 24.1934H17.165V19.6904H21.3487C24.6474 19.6904 26.3135 18.0847 26.3135 15.4319C26.3135 12.7442 24.6474 11.1734 21.3487 11.1734H17.165V6.5658H21.6484Z" fill="#BAE8E8"/>
</svg>
