<svg width="1920" height="850" viewBox="0 0 1920 850" fill="none" xmlns="http://www.w3.org/2000/svg" xmlns:xlink="http://www.w3.org/1999/xlink">
<mask id="mask0_832_12636" style="mask-type:alpha" maskUnits="userSpaceOnUse" x="0" y="43" width="1918" height="753">
<rect y="43" width="1918" height="753" fill="url(#paint0_linear_832_12636)"/>
</mask>
<g mask="url(#mask0_832_12636)">
<rect x="-41.8965" y="1.64752" width="1959.9" height="817.433" fill="url(#pattern0_832_12636)" fill-opacity="0.1"/>
</g>
<mask id="mask1_832_12636" style="mask-type:alpha" maskUnits="userSpaceOnUse" x="0" y="0" width="1918" height="850">
<rect width="1918" height="850" fill="url(#paint1_linear_832_12636)"/>
</mask>
<g mask="url(#mask1_832_12636)">
<path d="M1849.02 -24C1904.04 261.643 1864.66 842.143 1267 879" stroke="#19174A" stroke-width="14"/>
<path d="M449.007 852C516.311 626.776 468.135 169.061 -263 140" stroke="#19174A" stroke-width="14" stroke-linecap="round"/>
<path d="M2105 879C1925.67 741.117 1537 353.68 1417 -93" stroke="#19174A" stroke-width="14"/>
<path d="M471 -67C336.24 41.8031 44.1769 347.528 -46 700" stroke="#19174A" stroke-width="14" stroke-linecap="round"/>
</g>
<defs>
<linearGradient id="paint0_linear_832_12636" x1="0" y1="419.5" x2="1918" y2="419.5" gradientUnits="userSpaceOnUse">
<stop stop-color="#D9D9D9" stop-opacity="0"/>
<stop offset="0.508343" stop-color="#737373"/>
</linearGradient>
<linearGradient id="paint1_linear_832_12636" x1="959" y1="-86.5" x2="959" y2="870.5" gradientUnits="userSpaceOnUse">
<stop stop-color="#D9D9D9" stop-opacity="0"/>
<stop offset="0.508343" stop-color="#737373"/>
<stop offset="1" stop-color="#D9D9D9" stop-opacity="0"/>
</linearGradient>
<pattern id="pattern0_832_12636" patternUnits="userSpaceOnUse" patternTransform="matrix(35 0 0 35 -41.8965 1.64752)" preserveAspectRatio="none" viewBox="0 0 35 35" width="1" height="1">
<g id="pattern0_832_12636_inner">
<circle cx="2.5" cy="2.5" r="2.5" fill="#BAE8E8"/>
</g>
</pattern></defs>
</svg>
