<svg width="1280" height="1792" viewBox="0 0 1280 1792" fill="none" xmlns="http://www.w3.org/2000/svg">
<path opacity="0.8" d="M1526.76 661.957L1528.46 660.899L1528.46 660.899L1526.76 661.957ZM2193.4 591.308C2193.64 590.23 2192.97 589.16 2191.89 588.916C2190.81 588.673 2189.74 589.349 2189.5 590.427L2193.4 591.308ZM1117.45 1041.38C1116.62 1040.29 1115.8 1039.19 1114.99 1038.1L1111.77 1040.47C1112.59 1041.59 1113.43 1042.7 1114.27 1043.81L1117.45 1041.38ZM1110.27 1031.49C1108.75 1029.28 1107.27 1027.07 1105.84 1024.85L1102.48 1027.01C1103.93 1029.27 1105.43 1031.52 1106.98 1033.76L1110.27 1031.49ZM1101.69 1018.16C1100.3 1015.82 1098.95 1013.48 1097.65 1011.13L1094.15 1013.07C1095.47 1015.46 1096.84 1017.84 1098.26 1020.21L1101.69 1018.16ZM1093.89 1004.03C1092.69 1001.65 1091.53 999.271 1090.43 996.885L1086.8 998.567C1087.92 1001 1089.1 1003.42 1090.32 1005.84L1093.89 1004.03ZM1087.2 989.586C1086.16 987.095 1085.16 984.599 1084.22 982.099L1080.47 983.511C1081.44 986.058 1082.45 988.6 1083.51 991.136L1087.2 989.586ZM1081.54 974.583C1080.69 972.064 1079.9 969.541 1079.15 967.015L1075.31 968.147C1076.07 970.721 1076.88 973.29 1077.74 975.856L1081.54 974.583ZM1077.02 959.246C1076.36 956.652 1075.75 954.056 1075.19 951.457L1071.28 952.297C1071.85 954.944 1072.47 957.59 1073.14 960.232L1077.02 959.246ZM1073.67 943.653C1073.2 941.011 1072.79 938.367 1072.43 935.722L1068.46 936.267C1068.83 938.961 1069.25 941.654 1069.73 944.346L1073.67 943.653ZM1071.48 927.77C1071.22 925.119 1071 922.467 1070.84 919.814L1066.84 920.065C1067.01 922.766 1067.23 925.467 1067.5 928.168L1071.48 927.77ZM1070.48 911.818C1070.41 909.148 1070.39 906.479 1070.41 903.811L1066.41 903.774C1066.39 906.489 1066.41 909.206 1066.48 911.924L1070.48 911.818ZM1070.62 895.81C1070.74 893.146 1070.91 890.484 1071.12 887.824L1067.13 887.51C1066.92 890.215 1066.75 892.923 1066.63 895.633L1070.62 895.81ZM1071.88 879.856C1072.18 877.203 1072.52 874.553 1072.91 871.906L1068.95 871.327C1068.56 874.016 1068.21 876.71 1067.91 879.407L1071.88 879.856ZM1074.2 864C1074.67 861.378 1075.18 858.76 1075.74 856.148L1071.82 855.318C1071.26 857.971 1070.74 860.63 1070.26 863.293L1074.2 864ZM1077.52 848.326C1078.16 845.731 1078.83 843.141 1079.54 840.558L1075.69 839.493C1074.96 842.114 1074.28 844.742 1073.64 847.377L1077.52 848.326ZM1081.79 832.881C1082.57 830.328 1083.4 827.783 1084.26 825.246L1080.47 823.961C1079.6 826.534 1078.76 829.115 1077.96 831.704L1081.79 832.881ZM1086.95 817.661C1087.87 815.166 1088.83 812.68 1089.82 810.202L1086.11 808.713C1085.1 811.224 1084.13 813.744 1083.19 816.273L1086.95 817.661ZM1092.91 802.795C1093.97 800.335 1095.06 797.885 1096.19 795.446L1092.56 793.766C1091.42 796.237 1090.31 798.718 1089.23 801.209L1092.91 802.795ZM1099.64 788.218C1100.83 785.824 1102.04 783.44 1103.28 781.068L1099.74 779.212C1098.48 781.613 1097.25 784.026 1096.06 786.449L1099.64 788.218ZM1107.1 773.986C1108.39 771.648 1109.72 769.322 1111.07 767.009L1107.62 764.988C1106.25 767.328 1104.91 769.681 1103.6 772.046L1107.1 773.986ZM1115.2 760.134C1116.61 757.855 1118.04 755.59 1119.5 753.337L1116.14 751.163C1114.66 753.44 1113.22 755.731 1111.8 758.036L1115.2 760.134ZM1123.94 746.633C1125.44 744.423 1126.97 742.227 1128.52 740.046L1125.26 737.728C1123.69 739.932 1122.15 742.152 1120.64 744.385L1123.94 746.633ZM1133.25 733.547C1134.85 731.396 1136.47 729.26 1138.12 727.139L1134.96 724.686C1133.3 726.828 1131.66 728.987 1130.04 731.16L1133.25 733.547ZM1143.11 720.849C1144.79 718.769 1146.5 716.705 1148.23 714.658L1145.17 712.077C1143.43 714.145 1141.7 716.229 1140 718.331L1143.11 720.849ZM1153.48 708.567C1155.25 706.555 1157.04 704.561 1158.85 702.584L1155.9 699.883C1154.07 701.879 1152.27 703.893 1150.48 705.925L1153.48 708.567ZM1164.34 696.711C1166.19 694.771 1168.06 692.85 1169.94 690.948L1167.1 688.132C1165.2 690.052 1163.31 691.992 1161.44 693.951L1164.34 696.711ZM1175.66 685.297C1177.58 683.429 1179.53 681.58 1181.49 679.752L1178.76 676.826C1176.78 678.672 1174.82 680.539 1172.87 682.425L1175.66 685.297ZM1187.42 674.331C1189.42 672.544 1191.43 670.779 1193.45 669.035L1190.84 666.004C1188.8 667.765 1186.77 669.548 1184.75 671.352L1187.42 674.331ZM1199.61 663.837C1201.68 662.126 1203.76 660.438 1205.86 658.772L1203.37 655.64C1201.25 657.322 1199.15 659.027 1197.06 660.755L1199.61 663.837ZM1212.18 653.846C1214.32 652.217 1216.47 650.612 1218.63 649.031L1216.27 645.802C1214.09 647.399 1211.92 649.02 1209.76 650.665L1212.18 653.846ZM1225.18 644.346C1227.38 642.809 1229.58 641.298 1231.8 639.814L1229.57 636.49C1227.33 637.991 1225.1 639.517 1222.89 641.069L1225.18 644.346ZM1238.52 635.416C1240.79 633.963 1243.07 632.538 1245.35 631.141L1243.27 627.726C1240.96 629.138 1238.65 630.579 1236.36 632.047L1238.52 635.416ZM1252.25 627.035C1254.56 625.692 1256.88 624.377 1259.21 623.093L1257.28 619.591C1254.92 620.89 1252.58 622.218 1250.24 623.576L1252.25 627.035ZM1266.33 619.27C1268.71 618.026 1271.09 616.814 1273.48 615.634L1271.72 612.047C1269.29 613.241 1266.88 614.467 1264.47 615.724L1266.33 619.27ZM1280.68 612.19C1283.13 611.051 1285.59 609.945 1288.05 608.875L1286.46 605.206C1283.97 606.29 1281.48 607.409 1278.99 608.562L1280.68 612.19ZM1295.46 605.766C1297.93 604.765 1300.41 603.799 1302.88 602.87L1301.48 599.125C1298.97 600.066 1296.46 601.044 1293.96 602.058L1295.46 605.766ZM1310.48 600.136C1313.02 599.261 1315.57 598.424 1318.11 597.627L1316.91 593.81C1314.34 594.618 1311.76 595.467 1309.18 596.354L1310.48 600.136ZM1325.74 595.355C1328.34 594.621 1330.94 593.93 1333.54 593.282L1332.57 589.401C1329.93 590.059 1327.29 590.761 1324.65 591.505L1325.74 595.355ZM1341.35 591.46C1343.95 590.897 1346.55 590.378 1349.14 589.905L1348.43 585.97C1345.79 586.451 1343.15 586.979 1340.51 587.551L1341.35 591.46ZM1357.1 588.591C1359.76 588.2 1362.4 587.858 1365.04 587.565L1364.6 583.589C1361.92 583.887 1359.22 584.236 1356.52 584.634L1357.1 588.591ZM1372.95 586.834C1375.64 586.635 1378.33 586.49 1381 586.398L1380.86 582.4C1378.14 582.494 1375.4 582.642 1372.66 582.844L1372.95 586.834ZM1388.98 586.285C1391.65 586.302 1394.3 586.375 1396.94 586.503L1397.14 582.508C1394.44 582.377 1391.73 582.303 1389.01 582.285L1388.98 586.285ZM1404.94 587.071C1407.6 587.319 1410.23 587.626 1412.85 587.993L1413.41 584.032C1410.73 583.656 1408.03 583.342 1405.31 583.088L1404.94 587.071ZM1420.72 589.286C1423.34 589.782 1425.95 590.341 1428.53 590.963L1429.47 587.075C1426.82 586.436 1424.15 585.864 1421.47 585.356L1420.72 589.286ZM1436.22 593.023C1438.77 593.776 1441.29 594.593 1443.8 595.477L1445.13 591.705C1442.56 590.798 1439.97 589.959 1437.35 589.187L1436.22 593.023ZM1451.24 598.329C1453.69 599.345 1456.12 600.428 1458.52 601.579L1460.25 597.972C1457.78 596.789 1455.29 595.677 1452.77 594.634L1451.24 598.329ZM1465.58 605.195C1467.9 606.468 1470.2 607.808 1472.47 609.218L1474.58 605.818C1472.25 604.37 1469.89 602.993 1467.5 601.686L1465.58 605.195ZM1479.13 613.597C1481.28 615.097 1483.4 616.663 1485.5 618.296L1487.96 615.141C1485.81 613.465 1483.62 611.857 1481.42 610.316L1479.13 613.597ZM1491.7 623.398C1493.68 625.116 1495.63 626.899 1497.56 628.747L1500.33 625.862C1498.36 623.968 1496.35 622.139 1494.32 620.376L1491.7 623.398ZM1503.13 634.372C1504.96 636.311 1506.76 638.313 1508.53 640.379L1511.57 637.777C1509.76 635.662 1507.92 633.612 1506.04 631.626L1503.13 634.372ZM1513.55 646.509C1515.16 648.564 1516.73 650.677 1518.28 652.848L1521.54 650.524C1519.96 648.306 1518.34 646.147 1516.7 644.046L1513.55 646.509ZM1522.85 659.537C1523.59 660.681 1524.33 661.841 1525.07 663.015L1528.46 660.899C1527.71 659.702 1526.96 658.52 1526.2 657.352L1522.85 659.537ZM1525.07 663.015C1525.76 664.129 1526.46 665.244 1527.16 666.361L1530.55 664.235C1529.85 663.121 1529.15 662.009 1528.46 660.899L1525.07 663.015ZM1531.41 673.083C1532.84 675.33 1534.28 677.583 1535.74 679.841L1539.1 677.672C1537.65 675.421 1536.21 673.175 1534.78 670.935L1531.41 673.083ZM1540.15 686.631C1541.6 688.841 1543.06 691.054 1544.53 693.272L1547.86 691.06C1546.4 688.849 1544.94 686.643 1543.5 684.44L1540.15 686.631ZM1548.97 699.912C1550.46 702.128 1551.96 704.348 1553.48 706.57L1556.78 704.316C1555.27 702.101 1553.77 699.889 1552.29 697.679L1548.97 699.912ZM1558.04 713.217C1559.55 715.394 1561.06 717.572 1562.59 719.751L1565.87 717.455C1564.34 715.283 1562.83 713.112 1561.33 710.942L1558.04 713.217ZM1567.21 726.29C1568.75 728.471 1570.31 730.651 1571.89 732.832L1575.13 730.494C1573.57 728.321 1572.01 726.147 1570.47 723.974L1567.21 726.29ZM1576.6 739.335C1578.17 741.48 1579.74 743.624 1581.33 745.767L1584.54 743.387C1582.96 741.251 1581.39 739.114 1579.83 736.976L1576.6 739.335ZM1586.12 752.19C1587.72 754.33 1589.34 756.467 1590.96 758.601L1594.15 756.178C1592.53 754.051 1590.92 751.921 1589.32 749.789L1586.12 752.19ZM1595.84 764.966C1597.47 767.075 1599.11 769.18 1600.75 771.282L1603.9 768.815C1602.26 766.721 1600.63 764.623 1599.01 762.522L1595.84 764.966ZM1605.72 777.575C1607.38 779.668 1609.05 781.757 1610.73 783.841L1613.85 781.33C1612.17 779.254 1610.51 777.172 1608.85 775.086L1605.72 777.575ZM1615.79 790.065C1617.48 792.131 1619.18 794.192 1620.89 796.247L1623.96 793.69C1622.26 791.643 1620.57 789.59 1618.89 787.531L1615.79 790.065ZM1626.03 802.392C1627.76 804.434 1629.49 806.47 1631.23 808.498L1634.26 805.895C1632.53 803.874 1630.81 801.847 1629.09 799.813L1626.03 802.392ZM1636.47 814.569C1638.23 816.587 1640 818.596 1641.77 820.598L1644.76 817.946C1643 815.953 1641.24 813.951 1639.49 811.942L1636.47 814.569ZM1647.11 826.576C1648.89 828.56 1650.69 830.535 1652.49 832.5L1655.44 829.799C1653.64 827.842 1651.86 825.875 1650.08 823.899L1647.11 826.576ZM1657.94 838.402C1659.77 840.362 1661.6 842.312 1663.44 844.252L1666.34 841.498C1664.51 839.567 1662.68 837.626 1660.86 835.674L1657.94 838.402ZM1668.99 850.036C1670.84 851.953 1672.7 853.859 1674.57 855.753L1677.41 852.945C1675.56 851.06 1673.71 849.164 1671.86 847.256L1668.99 850.036ZM1680.25 861.461C1682.15 863.353 1684.06 865.233 1685.98 867.099L1688.77 864.234C1686.86 862.378 1684.96 860.508 1683.07 858.625L1680.25 861.461ZM1691.74 872.656C1693.67 874.497 1695.6 876.323 1697.54 878.134L1700.27 875.211C1698.34 873.409 1696.42 871.593 1694.5 869.762L1691.74 872.656ZM1703.48 883.613C1705.46 885.424 1707.45 887.218 1709.45 888.996L1712.11 886.01C1710.12 884.243 1708.15 882.459 1706.17 880.659L1703.48 883.613ZM1715.45 894.28C1717.46 896.036 1719.49 897.774 1721.52 899.495L1724.1 896.444C1722.09 894.734 1720.08 893.007 1718.07 891.262L1715.45 894.28ZM1727.71 904.68C1729.79 906.39 1731.86 908.08 1733.94 909.75L1736.45 906.631C1734.38 904.972 1732.32 903.294 1730.26 901.596L1727.71 904.68ZM1740.2 914.699C1742.32 916.355 1744.45 917.99 1746.58 919.603L1749 916.412C1746.88 914.812 1744.77 913.189 1742.66 911.544L1740.2 914.699ZM1753.06 924.422C1755.23 926.005 1757.39 927.565 1759.57 929.1L1761.88 925.834C1759.72 924.311 1757.57 922.764 1755.42 921.194L1753.06 924.422ZM1766.1 933.638C1768.35 935.171 1770.6 936.677 1772.85 938.155L1775.05 934.81C1772.81 933.345 1770.58 931.853 1768.35 930.334L1766.1 933.638ZM1779.63 942.508C1781.89 943.931 1784.15 945.326 1786.42 946.691L1788.49 943.265C1786.24 941.913 1784 940.532 1781.76 939.122L1779.63 942.508ZM1793.37 950.776C1795.72 952.127 1798.07 953.445 1800.43 954.73L1802.34 951.219C1800.01 949.948 1797.69 948.644 1795.36 947.308L1793.37 950.776ZM1807.51 958.487C1809.89 959.715 1812.27 960.909 1814.65 962.067L1816.4 958.469C1814.05 957.325 1811.69 956.146 1809.34 954.933L1807.51 958.487ZM1822.01 965.526C1824.47 966.641 1826.92 967.719 1829.38 968.756L1830.94 965.071C1828.51 964.048 1826.09 962.985 1823.67 961.884L1822.01 965.526ZM1836.76 971.751C1839.31 972.741 1841.85 973.688 1844.4 974.591L1845.73 970.821C1843.23 969.932 1840.72 968.999 1838.21 968.023L1836.76 971.751ZM1852.04 977.17C1854.6 977.984 1857.15 978.753 1859.7 979.476L1860.79 975.627C1858.28 974.917 1855.77 974.16 1853.26 973.359L1852.04 977.17ZM1867.55 981.55C1870.18 982.195 1872.81 982.789 1875.44 983.331L1876.24 979.413C1873.66 978.881 1871.08 978.298 1868.5 977.665L1867.55 981.55ZM1883.32 984.8C1886 985.245 1888.67 985.634 1891.34 985.967L1891.84 981.998C1889.22 981.672 1886.6 981.29 1883.98 980.854L1883.32 984.8ZM1899.39 986.797C1902.08 987.016 1904.76 987.176 1907.43 987.277L1907.58 983.28C1904.97 983.182 1902.34 983.025 1899.72 982.811L1899.39 986.797ZM1915.53 987.396C1918.23 987.374 1920.92 987.29 1923.62 987.141L1923.4 983.147C1920.77 983.292 1918.13 983.375 1915.49 983.397L1915.53 987.396ZM1931.69 986.503C1934.36 986.226 1937.02 985.885 1939.69 985.478L1939.08 981.524C1936.48 981.921 1933.88 982.254 1931.27 982.524L1931.69 986.503ZM1947.65 984.059C1950.3 983.519 1952.95 982.912 1955.59 982.236L1954.6 978.361C1952.02 979.02 1949.44 979.613 1946.86 980.139L1947.65 984.059ZM1963.31 980.058C1965.87 979.267 1968.43 978.411 1970.97 977.486L1969.61 973.726C1967.12 974.628 1964.63 975.464 1962.13 976.236L1963.31 980.058ZM1978.6 974.51C1981.04 973.49 1983.47 972.407 1985.89 971.26L1984.18 967.645C1981.81 968.766 1979.44 969.824 1977.06 970.82L1978.6 974.51ZM1993.09 967.647C1995.48 966.378 1997.87 965.045 2000.25 963.646L1998.22 960.199C1995.89 961.568 1993.56 962.872 1991.22 964.113L1993.09 967.647ZM2007.06 959.446C2009.27 958.015 2011.48 956.526 2013.68 954.977L2011.38 951.706C2009.22 953.224 2007.06 954.684 2004.89 956.086L2007.06 959.446ZM2020.26 950.151C2022.4 948.52 2024.53 946.83 2026.65 945.082L2024.11 941.995C2022.02 943.712 2019.93 945.37 2017.83 946.972L2020.26 950.151ZM2032.65 939.971C2034.64 938.215 2036.62 936.406 2038.6 934.543L2035.85 931.632C2033.91 933.465 2031.96 935.245 2030 936.971L2032.65 939.971ZM2044.5 928.794C2046.36 926.928 2048.21 925.014 2050.05 923.05L2047.14 920.312C2045.32 922.248 2043.5 924.134 2041.67 925.972L2044.5 928.794ZM2055.38 917.224C2057.14 915.236 2058.9 913.201 2060.66 911.12L2057.6 908.543C2055.87 910.598 2054.13 912.605 2052.39 914.567L2055.38 917.224ZM2065.89 904.735C2067.54 902.679 2069.17 900.582 2070.8 898.441L2067.62 896.017C2066.01 898.133 2064.39 900.206 2062.77 902.237L2065.89 904.735ZM2075.49 892.145C2077.05 890.007 2078.6 887.829 2080.14 885.61L2076.86 883.325C2075.33 885.521 2073.8 887.676 2072.26 889.791L2075.49 892.145ZM2084.76 878.833C2086.26 876.574 2087.76 874.276 2089.25 871.938L2085.88 869.786C2084.4 872.103 2082.92 874.379 2081.43 876.616L2084.76 878.833ZM2093.36 865.366C2094.73 863.141 2096.09 860.883 2097.45 858.59L2094 856.555C2092.66 858.829 2091.31 861.068 2089.96 863.273L2093.36 865.366ZM2101.49 851.607C2102.84 849.245 2104.18 846.849 2105.51 844.417L2102 842.495C2100.68 844.908 2099.35 847.286 2098.02 849.629L2101.49 851.607ZM2109.37 837.241C2110.57 834.976 2111.76 832.683 2112.95 830.361L2109.39 828.54C2108.21 830.846 2107.02 833.123 2105.83 835.371L2109.37 837.241ZM2116.5 823.306C2117.67 820.925 2118.85 818.515 2120.01 816.075L2116.41 814.348C2115.25 816.772 2114.08 819.167 2112.91 821.532L2116.5 823.306ZM2123.5 808.667C2124.66 806.168 2125.81 803.639 2126.96 801.08L2123.31 799.443C2122.17 801.987 2121.02 804.501 2119.87 806.985L2123.5 808.667ZM2130.09 793.998C2131.12 791.627 2132.15 789.231 2133.18 786.811L2129.49 785.252C2128.47 787.66 2127.45 790.043 2126.42 792.4L2130.09 793.998ZM2136.24 779.474C2137.25 777.003 2138.26 774.507 2139.27 771.985L2135.55 770.502C2134.55 773.011 2133.55 775.495 2132.54 777.953L2136.24 779.474ZM2142.27 764.345C2143.27 761.775 2144.26 759.179 2145.25 756.558L2141.51 755.147C2140.53 757.757 2139.54 760.34 2138.54 762.899L2142.27 764.345ZM2147.94 749.34C2148.83 746.913 2149.72 744.464 2150.6 741.994L2146.83 740.647C2145.95 743.106 2145.07 745.545 2144.18 747.961L2147.94 749.34ZM2153.24 734.52C2154.11 732.007 2154.99 729.472 2155.85 726.916L2152.07 725.629C2151.2 728.176 2150.33 730.7 2149.46 733.203L2153.24 734.52ZM2158.45 719.181C2159.31 716.581 2160.16 713.96 2161.02 711.316L2157.21 710.088C2156.36 712.723 2155.51 715.335 2154.65 717.925L2158.45 719.181ZM2163.45 703.664C2164.22 701.216 2164.99 698.749 2165.75 696.264L2161.93 695.089C2161.17 697.566 2160.4 700.024 2159.64 702.464L2163.45 703.664ZM2168.03 688.753C2168.79 686.231 2169.54 683.691 2170.29 681.131L2166.45 680.007C2165.71 682.558 2164.95 685.09 2164.2 687.604L2168.03 688.753ZM2172.53 673.398C2173.27 670.801 2174.01 668.186 2174.75 665.552L2170.9 664.475C2170.16 667.102 2169.42 669.709 2168.68 672.297L2172.53 673.398ZM2176.94 657.593C2177.65 654.995 2178.36 652.381 2179.06 649.748L2175.19 648.718C2174.5 651.343 2173.79 653.95 2173.09 656.54L2176.94 657.593ZM2181.03 642.27C2181.69 639.761 2182.34 637.237 2182.98 634.696L2179.11 633.707C2178.46 636.241 2177.81 638.759 2177.16 641.261L2181.03 642.27ZM2184.92 627.026C2185.56 624.453 2186.2 621.864 2186.84 619.259L2182.95 618.311C2182.32 620.909 2181.68 623.492 2181.04 626.058L2184.92 627.026ZM2188.73 611.396C2189.36 608.758 2189.99 606.104 2190.61 603.434L2186.72 602.525C2186.1 605.188 2185.47 607.836 2184.84 610.467L2188.73 611.396ZM2192.48 595.375C2192.78 594.023 2193.09 592.668 2193.4 591.308L2189.5 590.427C2189.19 591.783 2188.88 593.136 2188.58 594.485L2192.48 595.375Z" fill="white"/>
<path opacity="0.8" d="M373.196 1306.34L371.27 1306.87L371.27 1306.87L373.196 1306.34ZM-272.959 1188.62C-273.496 1189.59 -273.149 1190.81 -272.184 1191.34C-271.219 1191.88 -270.001 1191.53 -269.464 1190.57L-272.959 1188.62ZM862.675 1062.74C863.167 1064.03 863.646 1065.31 864.113 1066.59L867.871 1065.22C867.396 1063.92 866.909 1062.62 866.41 1061.31L862.675 1062.74ZM866.768 1074.25C867.604 1076.8 868.392 1079.34 869.132 1081.87L872.972 1080.75C872.219 1078.17 871.418 1075.59 870.568 1073L866.768 1074.25ZM871.21 1089.45C871.887 1092.09 872.512 1094.72 873.086 1097.35L876.994 1096.49C876.409 1093.82 875.773 1091.14 875.085 1088.45L871.21 1089.45ZM874.662 1105.22C875.136 1107.83 875.561 1110.44 875.936 1113.04L879.895 1112.46C879.513 1109.82 879.081 1107.17 878.597 1104.5L874.662 1105.22ZM876.935 1120.98C877.222 1123.66 877.456 1126.33 877.639 1128.99L881.63 1128.72C881.443 1126.01 881.204 1123.28 880.912 1120.55L876.935 1120.98ZM878.037 1136.94C878.119 1139.61 878.151 1142.26 878.132 1144.9L882.132 1144.93C882.151 1142.24 882.119 1139.53 882.035 1136.82L878.037 1136.94ZM877.921 1152.94C877.8 1155.61 877.627 1158.26 877.405 1160.91L881.391 1161.24C881.617 1158.55 881.793 1155.84 881.917 1153.12L877.921 1152.94ZM876.587 1168.82C876.261 1171.48 875.884 1174.13 875.459 1176.77L879.407 1177.41C879.841 1174.72 880.225 1172.02 880.558 1169.31L876.587 1168.82ZM874.034 1184.64C873.511 1187.25 872.939 1189.84 872.32 1192.43L876.21 1193.36C876.841 1190.73 877.423 1188.08 877.956 1185.42L874.034 1184.64ZM870.31 1200.18C869.593 1202.75 868.83 1205.3 868.021 1207.85L871.832 1209.06C872.656 1206.47 873.433 1203.87 874.163 1201.25L870.31 1200.18ZM865.458 1215.42C864.56 1217.93 863.617 1220.43 862.632 1222.9L866.348 1224.38C867.351 1221.86 868.31 1219.32 869.224 1216.77L865.458 1215.42ZM859.546 1230.29C858.474 1232.74 857.361 1235.17 856.207 1237.58L859.816 1239.31C860.989 1236.85 862.121 1234.38 863.21 1231.89L859.546 1230.29ZM852.642 1244.73C851.414 1247.1 850.147 1249.45 848.842 1251.78L852.333 1253.74C853.658 1251.37 854.945 1248.98 856.192 1246.58L852.642 1244.73ZM844.812 1258.73C843.441 1261.01 842.033 1263.27 840.59 1265.52L843.955 1267.68C845.42 1265.4 846.849 1263.11 848.241 1260.79L844.812 1258.73ZM836.163 1272.19C834.652 1274.4 833.107 1276.59 831.529 1278.76L834.763 1281.11C836.364 1278.91 837.931 1276.69 839.463 1274.45L836.163 1272.19ZM826.727 1285.17C825.1 1287.28 823.442 1289.38 821.753 1291.45L824.855 1293.97C826.566 1291.87 828.247 1289.75 829.895 1287.61L826.727 1285.17ZM816.596 1297.61C814.855 1299.64 813.085 1301.64 811.287 1303.63L814.253 1306.32C816.074 1304.3 817.866 1302.27 819.63 1300.22L816.596 1297.61ZM805.839 1309.5C803.996 1311.44 802.126 1313.36 800.23 1315.25L803.059 1318.08C804.978 1316.16 806.871 1314.22 808.737 1312.26L805.839 1309.5ZM794.479 1320.87C792.55 1322.71 790.596 1324.53 788.619 1326.33L791.312 1329.29C793.312 1327.47 795.288 1325.63 797.24 1323.77L794.479 1320.87ZM782.618 1331.67C780.595 1333.43 778.55 1335.17 776.483 1336.88L779.039 1339.96C781.128 1338.23 783.196 1336.47 785.242 1334.69L782.618 1331.67ZM770.262 1341.94C768.167 1343.6 766.053 1345.24 763.919 1346.86L766.337 1350.05C768.494 1348.41 770.632 1346.75 772.749 1345.07L770.262 1341.94ZM757.46 1351.65C755.296 1353.23 753.113 1354.78 750.913 1356.3L753.194 1359.59C755.417 1358.05 757.623 1356.48 759.81 1354.89L757.46 1351.65ZM744.269 1360.81C742.038 1362.29 739.79 1363.75 737.527 1365.19L739.67 1368.57C741.956 1367.12 744.227 1365.64 746.481 1364.15L744.269 1360.81ZM730.697 1369.42C728.406 1370.81 726.102 1372.18 723.784 1373.52L725.787 1376.98C728.129 1375.63 730.457 1374.25 732.77 1372.85L730.697 1369.42ZM716.79 1377.47C714.445 1378.77 712.087 1380.04 709.718 1381.29L711.581 1384.83C713.974 1383.57 716.355 1382.28 718.724 1380.97L716.79 1377.47ZM702.563 1384.96C700.166 1386.16 697.76 1387.33 695.344 1388.48L697.063 1392.1C699.503 1390.93 701.934 1389.75 704.354 1388.54L702.563 1384.96ZM688.068 1391.86C685.618 1392.97 683.16 1394.05 680.693 1395.1L682.266 1398.78C684.757 1397.71 687.24 1396.62 689.715 1395.5L688.068 1391.86ZM673.272 1398.18C670.791 1399.19 668.303 1400.16 665.81 1401.11L667.232 1404.85C669.75 1403.89 672.263 1402.91 674.769 1401.89L673.272 1398.18ZM658.255 1403.89C655.725 1404.8 653.19 1405.67 650.651 1406.52L651.916 1410.31C654.482 1409.46 657.043 1408.57 659.599 1407.66L658.255 1403.89ZM643.024 1408.97C640.459 1409.77 637.891 1410.54 635.322 1411.27L636.425 1415.12C639.022 1414.37 641.617 1413.6 644.21 1412.79L643.024 1408.97ZM627.557 1413.41C624.967 1414.09 622.377 1414.74 619.788 1415.37L620.721 1419.25C623.339 1418.63 625.958 1417.97 628.575 1417.28L627.557 1413.41ZM611.967 1417.15C609.332 1417.72 606.698 1418.25 604.067 1418.76L604.82 1422.69C607.482 1422.18 610.146 1421.63 612.812 1421.06L611.967 1417.15ZM596.183 1420.17C593.542 1420.61 590.906 1421.02 588.274 1421.4L588.837 1425.36C591.501 1424.98 594.17 1424.56 596.842 1424.12L596.183 1420.17ZM580.271 1422.43C577.61 1422.74 574.954 1423.01 572.307 1423.25L572.666 1427.24C575.348 1427 578.038 1426.72 580.733 1426.4L580.271 1422.43ZM564.341 1423.86C561.644 1424.03 558.957 1424.17 556.28 1424.26L556.42 1428.26C559.134 1428.16 561.859 1428.03 564.592 1427.86L564.341 1423.86ZM548.283 1424.42C545.609 1424.44 542.947 1424.42 540.298 1424.35L540.202 1428.35C542.891 1428.42 545.594 1428.44 548.307 1428.42L548.283 1424.42ZM532.242 1424.03C529.572 1423.89 526.917 1423.7 524.279 1423.46L523.927 1427.45C526.609 1427.68 529.308 1427.88 532.02 1428.03L532.242 1424.03ZM516.331 1422.62C513.656 1422.3 511.001 1421.92 508.367 1421.5L507.738 1425.45C510.42 1425.88 513.123 1426.26 515.843 1426.6L516.331 1422.62ZM500.528 1420.11C497.897 1419.59 495.289 1419.02 492.705 1418.4L491.777 1422.29C494.413 1422.92 497.072 1423.5 499.753 1424.03L500.528 1420.11ZM484.95 1416.39C482.392 1415.67 479.86 1414.89 477.356 1414.07L476.108 1417.87C478.666 1418.71 481.252 1419.5 483.864 1420.24L484.95 1416.39ZM469.795 1411.4C467.298 1410.46 464.832 1409.46 462.399 1408.4L460.81 1412.07C463.301 1413.15 465.825 1414.17 468.379 1415.14L469.795 1411.4ZM455.182 1405.07C452.784 1403.9 450.422 1402.66 448.096 1401.37L446.156 1404.87C448.541 1406.2 450.962 1407.46 453.419 1408.67L455.182 1405.07ZM441.234 1397.34C438.983 1395.93 436.77 1394.47 434.598 1392.95L432.304 1396.23C434.535 1397.79 436.806 1399.29 439.116 1400.73L441.234 1397.34ZM428.201 1388.21C426.11 1386.57 424.062 1384.87 422.057 1383.12L419.421 1386.12C421.48 1387.93 423.585 1389.67 425.733 1391.36L428.201 1388.21ZM416.246 1377.73C414.356 1375.88 412.51 1373.97 410.711 1372L407.758 1374.7C409.608 1376.72 411.505 1378.69 413.448 1380.59L416.246 1377.73ZM405.488 1365.96C403.833 1363.93 402.223 1361.85 400.66 1359.71L397.43 1362.07C399.036 1364.27 400.69 1366.41 402.39 1368.49L405.488 1365.96ZM396.111 1353.12C394.675 1350.92 393.285 1348.66 391.943 1346.34L388.482 1348.35C389.859 1350.72 391.285 1353.04 392.759 1355.31L396.111 1353.12ZM388.154 1339.41C386.937 1337.05 385.766 1334.63 384.644 1332.15L381.001 1333.81C382.151 1336.34 383.35 1338.82 384.597 1341.24L388.154 1339.41ZM381.532 1324.85C380.567 1322.43 379.645 1319.97 378.768 1317.45L374.991 1318.77C375.888 1321.34 376.83 1323.86 377.817 1326.34L381.532 1324.85ZM376.27 1309.76C375.876 1308.45 375.494 1307.13 375.123 1305.8L371.27 1306.87C371.648 1308.23 372.038 1309.58 372.44 1310.91L376.27 1309.76ZM375.123 1305.8C374.773 1304.54 374.42 1303.28 374.064 1302.02L370.214 1303.1C370.569 1304.36 370.921 1305.62 371.27 1306.87L375.123 1305.8ZM371.892 1294.41C371.156 1291.86 370.409 1289.3 369.65 1286.74L365.814 1287.87C366.571 1290.43 367.316 1292.98 368.049 1295.52L371.892 1294.41ZM367.337 1279.02C366.576 1276.5 365.803 1273.99 365.02 1271.46L361.199 1272.64C361.98 1275.16 362.75 1277.67 363.509 1280.18L367.337 1279.02ZM362.641 1263.87C361.838 1261.34 361.023 1258.79 360.197 1256.25L356.392 1257.48C357.215 1260.02 358.027 1262.55 358.828 1265.08L362.641 1263.87ZM357.703 1248.64C356.874 1246.14 356.035 1243.63 355.185 1241.12L351.396 1242.4C352.243 1244.9 353.08 1247.4 353.906 1249.89L357.703 1248.64ZM352.606 1233.58C351.735 1231.06 350.855 1228.54 349.964 1226.02L346.192 1227.35C347.08 1229.87 347.958 1232.38 348.825 1234.89L352.606 1233.58ZM347.282 1218.51C346.385 1216.02 345.478 1213.53 344.561 1211.04L340.807 1212.42C341.721 1214.9 342.625 1217.38 343.52 1219.86L347.282 1218.51ZM341.779 1203.56C340.842 1201.07 339.895 1198.57 338.938 1196.08L335.204 1197.51C336.157 1200 337.101 1202.48 338.035 1204.97L341.779 1203.56ZM336.058 1188.65C335.091 1186.18 334.114 1183.71 333.127 1181.25L329.413 1182.73C330.396 1185.19 331.37 1187.65 332.334 1190.11L336.058 1188.65ZM330.138 1173.85C329.132 1171.39 328.116 1168.92 327.091 1166.46L323.399 1168C324.42 1170.45 325.432 1172.91 326.435 1175.36L330.138 1173.85ZM323.996 1159.12C322.956 1156.67 321.906 1154.23 320.846 1151.79L317.177 1153.39C318.233 1155.81 319.279 1158.25 320.316 1160.68L323.996 1159.12ZM317.638 1144.49C316.56 1142.06 315.472 1139.63 314.374 1137.21L310.731 1138.86C311.824 1141.27 312.908 1143.69 313.982 1146.11L317.638 1144.49ZM311.046 1129.95C309.928 1127.54 308.799 1125.13 307.662 1122.72L304.047 1124.43C305.179 1126.83 306.303 1129.23 307.417 1131.63L311.046 1129.95ZM304.221 1115.53C303.063 1113.14 301.896 1110.75 300.719 1108.38L297.134 1110.15C298.305 1112.52 299.467 1114.89 300.62 1117.28L304.221 1115.53ZM297.138 1101.22C295.935 1098.84 294.723 1096.47 293.501 1094.11L289.948 1095.95C291.165 1098.3 292.372 1100.66 293.569 1103.03L297.138 1101.22ZM289.806 1087.06C288.56 1084.71 287.303 1082.36 286.038 1080.03L282.522 1081.94C283.781 1084.26 285.031 1086.59 286.272 1088.93L289.806 1087.06ZM282.181 1073.01C280.886 1070.68 279.581 1068.36 278.266 1066.05L274.791 1068.03C276.098 1070.33 277.396 1072.63 278.685 1074.95L282.181 1073.01ZM274.294 1059.17C272.946 1056.86 271.589 1054.57 270.221 1052.29L266.79 1054.34C268.15 1056.61 269.5 1058.89 270.84 1061.19L274.294 1059.17ZM266.06 1045.43C264.663 1043.16 263.256 1040.91 261.839 1038.67L258.458 1040.81C259.866 1043.03 261.265 1045.28 262.653 1047.53L266.06 1045.43ZM257.559 1031.99C256.094 1029.74 254.618 1027.5 253.133 1025.28L249.808 1027.5C251.284 1029.71 252.75 1031.93 254.206 1034.17L257.559 1031.99ZM248.633 1018.65C247.123 1016.46 245.603 1014.29 244.072 1012.13L240.811 1014.45C242.331 1016.59 243.84 1018.75 245.339 1020.92L248.633 1018.65ZM239.417 1005.68C237.824 1003.51 236.22 1001.35 234.605 999.219L231.416 1001.63C233.018 1003.75 234.609 1005.89 236.19 1008.04L239.417 1005.68ZM229.729 992.886C228.093 990.797 226.446 988.73 224.789 986.686L221.682 989.205C223.325 991.231 224.957 993.281 226.58 995.353L229.729 992.886ZM219.669 980.486C217.938 978.427 216.195 976.394 214.441 974.387L211.429 977.019C213.166 979.007 214.892 981.021 216.608 983.06L219.669 980.486ZM209.145 968.445C207.349 966.47 205.542 964.522 203.723 962.603L200.82 965.355C202.619 967.253 204.408 969.18 206.185 971.136L209.145 968.445ZM198.106 956.805C196.221 954.902 194.325 953.031 192.416 951.191L189.64 954.071C191.526 955.889 193.401 957.739 195.264 959.62L198.106 956.805ZM186.653 945.767C184.652 943.929 182.638 942.127 180.612 940.36L177.984 943.376C179.983 945.119 181.971 946.898 183.947 948.713L186.653 945.767ZM174.495 935.172C172.443 933.479 170.378 931.824 168.3 930.207L165.844 933.364C167.891 934.957 169.926 936.588 171.949 938.257L174.495 935.172ZM161.851 925.344C159.675 923.754 157.485 922.207 155.281 920.704L153.027 924.008C155.195 925.487 157.35 927.009 159.492 928.574L161.851 925.344ZM148.629 916.327C146.349 914.88 144.054 913.481 141.745 912.13L139.725 915.583C141.992 916.909 144.246 918.284 146.487 919.705L148.629 916.327ZM134.718 908.193C132.362 906.931 129.991 905.719 127.606 904.559L125.856 908.157C128.194 909.293 130.518 910.481 132.829 911.719L134.718 908.193ZM120.286 901.184C117.817 900.107 115.333 899.086 112.834 898.122L111.395 901.854C113.839 902.796 116.27 903.796 118.687 904.85L120.286 901.184ZM105.294 895.403C102.744 894.548 100.18 893.753 97.6003 893.019L96.5054 896.866C99.0245 897.583 101.53 898.36 104.022 899.196L105.294 895.403ZM89.8021 890.998C87.188 890.388 84.5592 889.84 81.9158 889.357L81.1965 893.291C83.7753 893.763 86.3405 894.297 88.8919 894.893L89.8021 890.998ZM73.9856 888.108C71.3295 887.757 68.6592 887.472 65.9748 887.253L65.6498 891.239C68.2673 891.453 70.8712 891.731 73.4616 892.074L73.9856 888.108ZM57.8798 886.798C55.2352 886.716 52.5774 886.7 49.9067 886.749L49.9808 890.748C52.5856 890.7 55.1775 890.717 57.7564 890.796L57.8798 886.798ZM41.8582 887.097C39.1625 887.281 36.4541 887.531 33.733 887.851L34.1995 891.824C36.8559 891.512 39.4992 891.267 42.1294 891.088L41.8582 887.097ZM25.8994 888.956C23.2773 889.388 20.6438 889.884 17.9991 890.445L18.829 894.358C21.4146 893.81 23.9881 893.325 26.5496 892.903L25.8994 888.956ZM10.0314 892.324C7.50774 892.979 4.97414 893.693 2.43066 894.467L3.59546 898.294C6.08647 897.536 8.56669 896.837 11.0361 896.196L10.0314 892.324ZM-5.16039 896.947C-7.70039 897.833 -10.25 898.78 -12.8091 899.787L-11.3443 903.509C-8.83309 902.521 -6.33251 901.593 -3.84254 900.724L-5.16039 896.947ZM-20.2072 902.857C-22.5888 903.897 -24.9785 904.989 -27.3762 906.134L-25.6518 909.744C-23.2946 908.617 -20.9464 907.544 -18.6072 906.523L-20.2072 902.857ZM-34.5935 909.732C-37.0073 910.985 -39.4291 912.292 -41.8589 913.655L-39.9029 917.144C-37.5098 915.802 -35.1257 914.515 -32.7505 913.282L-34.5935 909.732ZM-48.602 917.564C-50.8376 918.903 -53.0799 920.288 -55.3287 921.72L-53.18 925.094C-50.9616 923.681 -48.7505 922.315 -46.5469 920.995L-48.602 917.564ZM-62.0953 926.158C-64.3574 927.685 -66.6262 929.259 -68.9016 930.882L-66.5793 934.139C-64.3314 932.536 -62.0908 930.981 -59.8576 929.474L-62.0953 926.158ZM-75.1487 935.445C-77.2277 937 -79.3122 938.595 -81.4021 940.231L-78.9369 943.381C-76.8696 941.763 -74.8083 940.185 -72.753 938.648L-75.1487 935.445ZM-87.6882 945.26C-89.789 946.977 -91.8952 948.735 -94.0068 950.535L-91.4122 953.579C-89.3211 951.797 -87.2359 950.056 -85.1567 948.357L-87.6882 945.26ZM-99.9944 955.736C-101.917 957.438 -103.845 959.175 -105.777 960.946L-103.074 963.894C-101.159 962.139 -99.2486 960.418 -97.3433 958.731L-99.9944 955.736ZM-111.586 966.364C-113.527 968.205 -115.472 970.081 -117.422 971.992L-114.622 974.848C-112.687 972.952 -110.758 971.092 -108.833 969.266L-111.586 966.364ZM-123.284 977.832C-125.093 979.662 -126.906 981.524 -128.722 983.415L-125.837 986.186C-124.033 984.308 -122.234 982.46 -120.439 980.643L-123.284 977.832ZM-134.078 989.071C-135.867 990.985 -137.659 992.93 -139.455 994.904L-136.496 997.596C-134.712 995.634 -132.931 993.703 -131.155 991.801L-134.078 989.071ZM-144.854 1000.92C-146.658 1002.95 -148.464 1005.02 -150.275 1007.11L-147.248 1009.73C-145.449 1007.64 -143.653 1005.59 -141.861 1003.57L-144.854 1000.92ZM-155.456 1013.18C-157.104 1015.13 -158.755 1017.11 -160.41 1019.11L-157.325 1021.66C-155.68 1019.67 -154.038 1017.7 -152.399 1015.76L-155.456 1013.18ZM-165.381 1025.2C-167.041 1027.26 -168.704 1029.34 -170.37 1031.44L-167.233 1033.93C-165.575 1031.83 -163.921 1029.76 -162.27 1027.72L-165.381 1025.2ZM-175.377 1037.84C-177.049 1040 -178.724 1042.18 -180.402 1044.39L-177.216 1046.81C-175.546 1044.61 -173.879 1042.44 -172.215 1040.29L-175.377 1037.84ZM-185.132 1050.68C-186.663 1052.74 -188.195 1054.81 -189.73 1056.91L-186.502 1059.27C-184.974 1057.18 -183.448 1055.12 -181.925 1053.07L-185.132 1050.68ZM-194.342 1063.26C-195.882 1065.41 -197.424 1067.57 -198.968 1069.75L-195.702 1072.06C-194.164 1069.89 -192.628 1067.73 -191.094 1065.6L-194.342 1063.26ZM-203.609 1076.38C-205.158 1078.6 -206.71 1080.86 -208.264 1083.13L-204.962 1085.39C-203.414 1083.12 -201.868 1080.88 -200.324 1078.66L-203.609 1076.38ZM-212.829 1089.86C-214.25 1091.98 -215.673 1094.11 -217.098 1096.26L-213.763 1098.47C-212.343 1096.33 -210.926 1094.2 -209.51 1092.1L-212.829 1089.86ZM-221.378 1102.77C-222.807 1104.96 -224.238 1107.16 -225.671 1109.39L-222.307 1111.55C-220.879 1109.34 -219.453 1107.14 -218.029 1104.95L-221.378 1102.77ZM-229.975 1116.13C-231.412 1118.39 -232.851 1120.67 -234.292 1122.98L-230.901 1125.1C-229.464 1122.8 -228.03 1120.53 -226.598 1118.27L-229.975 1116.13ZM-238.62 1129.94C-240.039 1132.24 -241.46 1134.56 -242.883 1136.9L-239.466 1138.98C-238.047 1136.65 -236.63 1134.34 -235.216 1132.04L-238.62 1129.94ZM-246.861 1143.47C-248.189 1145.68 -249.518 1147.91 -250.849 1150.15L-247.41 1152.19C-246.083 1149.95 -244.757 1147.74 -243.433 1145.53L-246.861 1143.47ZM-254.847 1156.92C-256.181 1159.19 -257.517 1161.48 -258.855 1163.79L-255.394 1165.8C-254.06 1163.5 -252.728 1161.21 -251.397 1158.94L-254.847 1156.92ZM-262.872 1170.76C-264.213 1173.1 -265.555 1175.46 -266.9 1177.83L-263.419 1179.8C-262.078 1177.43 -260.739 1175.08 -259.402 1172.75L-262.872 1170.76ZM-270.937 1185C-271.61 1186.2 -272.284 1187.41 -272.959 1188.62L-269.464 1190.57C-268.791 1189.36 -268.118 1188.15 -267.446 1186.95L-270.937 1185Z" fill="white"/>
<path opacity="0.8" d="M177.266 956.073L177.81 954.148L177.266 956.073ZM712.391 796.918C713.485 797.072 714.497 796.311 714.651 795.217C714.805 794.123 714.044 793.112 712.95 792.957L712.391 796.918ZM-403.316 1394.14C-402.721 1393.21 -402.062 1392.19 -401.342 1391.09L-404.693 1388.9C-405.418 1390.01 -406.082 1391.04 -406.684 1391.98L-403.316 1394.14ZM-396.939 1384.42C-395.551 1382.34 -394.033 1380.09 -392.387 1377.66L-395.695 1375.42C-397.347 1377.85 -398.872 1380.11 -400.266 1382.2L-396.939 1384.42ZM-387.984 1371.23C-386.54 1369.14 -385.021 1366.94 -383.429 1364.66L-386.71 1362.37C-388.306 1364.66 -389.829 1366.86 -391.278 1368.96L-387.984 1371.23ZM-378.849 1358.13C-377.369 1356.03 -375.836 1353.87 -374.251 1351.65L-377.509 1349.33C-379.097 1351.56 -380.634 1353.72 -382.118 1355.83L-378.849 1358.13ZM-369.622 1345.19C-368.094 1343.06 -366.525 1340.89 -364.915 1338.68L-368.151 1336.33C-369.764 1338.55 -371.337 1340.72 -372.868 1342.85L-369.622 1345.19ZM-360.281 1332.33C-358.701 1330.18 -357.086 1327.99 -355.437 1325.76L-358.652 1323.38C-360.305 1325.61 -361.923 1327.81 -363.506 1329.97L-360.281 1332.33ZM-350.797 1319.52C-349.226 1317.41 -347.627 1315.28 -346.001 1313.12L-349.196 1310.72C-350.826 1312.88 -352.428 1315.02 -354.002 1317.12L-350.797 1319.52ZM-341.155 1306.72C-339.591 1304.66 -338.003 1302.58 -336.393 1300.47L-339.568 1298.04C-341.182 1300.15 -342.772 1302.23 -344.34 1304.3L-341.155 1306.72ZM-331.492 1294.11C-329.885 1292.02 -328.256 1289.93 -326.606 1287.81L-329.761 1285.35C-331.414 1287.47 -333.046 1289.57 -334.657 1291.66L-331.492 1294.11ZM-321.746 1281.6C-320.107 1279.51 -318.448 1277.41 -316.771 1275.29L-319.905 1272.81C-321.586 1274.93 -323.248 1277.04 -324.891 1279.13L-321.746 1281.6ZM-311.807 1269.06C-310.177 1267.02 -308.53 1264.97 -306.867 1262.91L-309.981 1260.4C-311.648 1262.46 -313.298 1264.52 -314.932 1266.56L-311.807 1269.06ZM-301.829 1256.68C-300.157 1254.63 -298.469 1252.56 -296.766 1250.48L-299.859 1247.95C-301.565 1250.03 -303.257 1252.1 -304.933 1254.16L-301.829 1256.68ZM-291.753 1244.4C-290.068 1242.36 -288.369 1240.32 -286.656 1238.27L-289.727 1235.7C-291.444 1237.76 -293.147 1239.81 -294.835 1241.85L-291.753 1244.4ZM-281.482 1232.1C-279.8 1230.1 -278.105 1228.09 -276.398 1226.09L-279.446 1223.49C-281.157 1225.51 -282.856 1227.52 -284.542 1229.52L-281.482 1232.1ZM-271.239 1220.04C-269.507 1218.02 -267.762 1216 -266.006 1213.97L-269.031 1211.35C-270.791 1213.38 -272.539 1215.41 -274.275 1217.44L-271.239 1220.04ZM-260.794 1207.97C-259.063 1205.99 -257.32 1204.01 -255.567 1202.02L-258.567 1199.37C-260.324 1201.37 -262.071 1203.36 -263.806 1205.34L-260.794 1207.97ZM-250.276 1196.05C-248.506 1194.06 -246.726 1192.07 -244.936 1190.08L-247.91 1187.41C-249.705 1189.4 -251.489 1191.4 -253.263 1193.39L-250.276 1196.05ZM-239.634 1184.21C-237.857 1182.26 -236.07 1180.3 -234.274 1178.34L-237.221 1175.64C-239.022 1177.6 -240.813 1179.56 -242.595 1181.52L-239.634 1184.21ZM-228.857 1172.47C-227.058 1170.53 -225.249 1168.59 -223.432 1166.65L-226.351 1163.91C-228.173 1165.86 -229.986 1167.8 -231.791 1169.75L-228.857 1172.47ZM-217.992 1160.87C-216.17 1158.95 -214.34 1157.03 -212.501 1155.11L-215.391 1152.34C-217.234 1154.26 -219.07 1156.19 -220.897 1158.12L-217.992 1160.87ZM-206.961 1149.35C-205.124 1147.45 -203.278 1145.56 -201.425 1143.67L-204.282 1140.87C-206.141 1142.76 -207.992 1144.67 -209.835 1146.57L-206.961 1149.35ZM-195.847 1138C-193.98 1136.12 -192.105 1134.24 -190.224 1132.36L-193.048 1129.53C-194.935 1131.41 -196.815 1133.3 -198.688 1135.19L-195.847 1138ZM-184.565 1126.76C-182.679 1124.9 -180.786 1123.05 -178.886 1121.2L-181.674 1118.33C-183.58 1120.18 -185.48 1122.04 -187.372 1123.91L-184.565 1126.76ZM-173.166 1115.67C-171.253 1113.84 -169.333 1112.01 -167.407 1110.18L-170.158 1107.28C-172.09 1109.11 -174.016 1110.94 -175.936 1112.79L-173.166 1115.67ZM-161.611 1104.73C-159.673 1102.92 -157.729 1101.11 -155.779 1099.32L-158.489 1096.38C-160.446 1098.18 -162.397 1099.99 -164.342 1101.81L-161.611 1104.73ZM-149.911 1093.95C-147.949 1092.17 -145.982 1090.4 -144.009 1088.63L-146.676 1085.65C-148.656 1087.42 -150.631 1089.2 -152.6 1090.99L-149.911 1093.95ZM-138.052 1083.35C-136.059 1081.59 -134.062 1079.85 -132.059 1078.11L-134.679 1075.09C-136.689 1076.83 -138.695 1078.58 -140.695 1080.34L-138.052 1083.35ZM-126.036 1072.93C-124.02 1071.22 -121.998 1069.51 -119.973 1067.81L-122.542 1064.74C-124.576 1066.45 -126.606 1068.16 -128.631 1069.89L-126.036 1072.93ZM-113.838 1062.71C-111.788 1061.03 -109.734 1059.35 -107.676 1057.69L-110.19 1054.58C-112.258 1056.25 -114.321 1057.93 -116.38 1059.63L-113.838 1062.71ZM-101.488 1052.74C-99.406 1051.08 -97.3199 1049.45 -95.2298 1047.82L-97.6843 1044.66C-99.7848 1046.3 -101.881 1047.94 -103.973 1049.6L-101.488 1052.74ZM-88.9117 1042.96C-86.8019 1041.36 -84.6883 1039.77 -82.5713 1038.19L-84.9607 1034.98C-87.089 1036.57 -89.2137 1038.17 -91.3343 1039.78L-88.9117 1042.96ZM-76.2099 1033.5C-74.0505 1031.93 -71.8877 1030.37 -69.7217 1028.83L-72.0399 1025.57C-74.2183 1027.12 -76.3933 1028.69 -78.5647 1030.27L-76.2099 1033.5ZM-63.2112 1024.26C-61.0381 1022.75 -58.862 1021.26 -56.6834 1019.79L-58.9233 1016.48C-61.1156 1017.96 -63.3049 1019.46 -65.4911 1020.97L-63.2112 1024.26ZM-50.0792 1015.39C-47.8492 1013.92 -45.6167 1012.47 -43.382 1011.05L-45.5353 1007.67C-47.7851 1009.11 -50.0325 1010.57 -52.2769 1012.04L-50.0792 1015.39ZM-36.6714 1006.82C-34.4325 1005.44 -32.1916 1004.07 -29.949 1002.72L-32.0069 999.293C-34.2661 1000.65 -36.5233 1002.03 -38.7781 1003.42L-36.6714 1006.82ZM-23.0542 998.657C-20.7531 997.323 -18.4505 996.013 -16.1466 994.726L-18.0975 991.234C-20.4201 992.531 -22.7409 993.852 -25.0598 995.196L-23.0542 998.657ZM-9.23168 990.936C-6.8875 989.676 -4.54233 988.441 -2.19646 987.233L-4.02866 983.677C-6.39543 984.897 -8.76102 986.142 -11.1251 987.412L-9.23168 990.936ZM4.91831 983.647C7.2904 982.479 9.66288 981.338 12.0355 980.225L10.3365 976.604C7.9406 977.728 5.54537 978.88 3.15109 980.059L4.91831 983.647ZM19.2198 976.94C21.662 975.853 24.104 974.797 26.5454 973.771L24.9963 970.083C22.5284 971.12 20.0606 972.188 17.5932 973.286L19.2198 976.94ZM33.8676 970.789C36.3169 969.823 38.7652 968.889 41.2124 967.989L39.8309 964.235C37.3544 965.146 34.8773 966.091 32.4001 967.068L33.8676 970.789ZM48.7419 965.322C51.2501 964.468 53.7567 963.65 56.2613 962.869L55.0702 959.051C52.5323 959.842 49.9932 960.671 47.4532 961.535L48.7419 965.322ZM63.7747 960.635C66.3476 959.907 68.918 959.219 71.4854 958.572L70.5077 954.693C67.9025 955.35 65.2952 956.048 62.6863 956.785L63.7747 960.635ZM79.1783 956.754C81.7407 956.189 84.2997 955.665 86.8551 955.185L86.1156 951.254C83.5188 951.742 80.9191 952.274 78.317 952.848L79.1783 956.754ZM94.7026 953.842C97.3142 953.44 99.9215 953.084 102.524 952.775L102.052 948.803C99.4031 949.117 96.7502 949.48 94.094 949.889L94.7026 953.842ZM110.33 951.988C112.974 951.769 115.612 951.6 118.244 951.483L118.065 947.487C115.382 947.607 112.694 947.779 110.001 948.001L110.33 951.988ZM126.123 951.284C128.749 951.269 131.369 951.306 133.982 951.397L134.121 947.399C131.453 947.307 128.78 947.269 126.101 947.284L126.123 951.284ZM141.864 951.835C144.484 952.036 147.098 952.292 149.704 952.605L150.18 948.634C147.517 948.314 144.847 948.052 142.17 947.847L141.864 951.835ZM157.491 953.713C160.076 954.138 162.652 954.621 165.22 955.163L166.045 951.249C163.418 950.695 160.784 950.201 158.141 949.766L157.491 953.713ZM172.9 956.963C174.176 957.293 175.45 957.637 176.722 957.997L177.81 954.148C176.509 953.78 175.206 953.428 173.901 953.09L172.9 956.963ZM176.722 957.997C178.081 958.381 179.431 958.758 180.773 959.126L181.832 955.269C180.5 954.903 179.159 954.53 177.81 954.148L176.722 957.997ZM188.727 961.243C191.345 961.917 193.931 962.56 196.485 963.172L197.418 959.282C194.886 958.675 192.322 958.038 189.724 957.369L188.727 961.243ZM204.136 964.937C206.886 965.546 209.598 966.118 212.273 966.654L213.06 962.732C210.411 962.201 207.725 961.635 205 961.031L204.136 964.937ZM220.187 968.156C222.799 968.623 225.373 969.055 227.912 969.452L228.53 965.5C226.021 965.108 223.475 964.681 220.892 964.219L220.187 968.156ZM236.154 970.636C238.858 970.99 241.521 971.302 244.144 971.575L244.557 967.596C241.971 967.327 239.343 967.019 236.672 966.67L236.154 970.636ZM252.08 972.289C254.871 972.5 257.615 972.664 260.312 972.783L260.488 968.787C257.833 968.67 255.132 968.508 252.381 968.3L252.08 972.289ZM268.269 973.003C271.048 973.033 273.777 973.013 276.458 972.944L276.355 968.945C273.725 969.013 271.044 969.033 268.312 969.003L268.269 973.003ZM284.543 972.581C287.275 972.404 289.955 972.174 292.584 971.893L292.16 967.916C289.586 968.191 286.962 968.416 284.284 968.589L284.543 972.581ZM300.687 970.845C303.382 970.435 306.022 969.968 308.61 969.448L307.822 965.526C305.296 966.034 302.718 966.49 300.084 966.891L300.687 970.845ZM316.601 967.635C319.245 966.964 321.833 966.236 324.369 965.453L323.189 961.631C320.718 962.394 318.196 963.104 315.618 963.757L316.601 967.635ZM332.117 962.833C334.68 961.89 337.188 960.889 339.645 959.835L338.067 956.159C335.674 957.186 333.232 958.161 330.736 959.079L332.117 962.833ZM347.044 956.423C349.49 955.216 351.886 953.954 354.235 952.642L352.284 949.15C349.993 950.43 347.658 951.66 345.274 952.836L347.044 956.423ZM361.224 948.509C363.531 947.068 365.793 945.58 368.015 944.047L365.744 940.754C363.569 942.254 361.358 943.709 359.106 945.116L361.224 948.509ZM374.589 939.303C376.75 937.675 378.876 936.007 380.971 934.302L378.447 931.199C376.388 932.874 374.301 934.512 372.182 936.108L374.589 939.303ZM387.166 929.086C389.198 927.319 391.205 925.519 393.19 923.692L390.482 920.749C388.521 922.553 386.543 924.327 384.541 926.068L387.166 929.086ZM399.07 918.152C401.004 916.288 402.922 914.401 404.83 912.495L402.002 909.666C400.11 911.557 398.209 913.427 396.294 915.272L399.07 918.152ZM410.485 906.761C412.356 904.84 414.221 902.903 416.085 900.955L413.194 898.19C411.337 900.132 409.48 902.06 407.619 903.971L410.485 906.761ZM421.618 895.141C423.457 893.201 425.307 891.245 427.156 889.294L424.253 886.543C422.397 888.501 420.558 890.445 418.715 892.389L421.618 895.141ZM432.674 883.491C434.517 881.561 436.372 879.631 438.242 877.704L435.371 874.918C433.492 876.855 431.63 878.792 429.782 880.728L432.674 883.491ZM443.844 871.994C445.719 870.106 447.613 868.225 449.53 866.353L446.735 863.491C444.802 865.379 442.894 867.274 441.006 869.175L443.844 871.994ZM455.298 860.821C457.23 859.003 459.187 857.199 461.174 855.41L458.498 852.437C456.487 854.247 454.509 856.072 452.557 857.907L455.298 860.821ZM467.174 850.138C469.182 848.418 471.221 846.717 473.296 845.036L470.778 841.928C468.673 843.633 466.606 845.358 464.572 847.1L467.174 850.138ZM479.572 840.103C481.668 838.507 483.801 836.933 485.974 835.384L483.652 832.127C481.443 833.701 479.277 835.3 477.148 836.921L479.572 840.103ZM492.548 830.863C494.737 829.411 496.968 827.985 499.243 826.588L497.149 823.18C494.834 824.602 492.564 826.052 490.337 827.529L492.548 830.863ZM506.108 822.539C508.392 821.246 510.721 819.983 513.096 818.75L511.254 815.2C508.835 816.455 506.464 817.742 504.138 819.058L506.108 822.539ZM520.217 815.218C522.597 814.092 525.022 812.996 527.496 811.934L525.917 808.258C523.398 809.34 520.929 810.456 518.506 811.603L520.217 815.218ZM534.815 808.943C537.292 807.982 539.816 807.054 542.39 806.16L541.077 802.381C538.458 803.291 535.89 804.236 533.369 805.214L534.815 808.943ZM549.833 803.714C552.36 802.93 554.933 802.178 557.554 801.46L556.498 797.602C553.834 798.332 551.218 799.096 548.648 799.893L549.833 803.714ZM565.219 799.492C567.758 798.883 570.34 798.304 572.968 797.757L572.154 793.841C569.486 794.396 566.864 794.984 564.285 795.603L565.219 799.492ZM580.95 796.221C583.475 795.774 586.04 795.356 588.647 794.967L588.057 791.011C585.415 791.405 582.814 791.829 580.253 792.283L580.95 796.221ZM596.593 793.891C599.226 793.57 601.9 793.279 604.616 793.017L604.233 789.036C601.483 789.3 598.776 789.595 596.109 789.921L596.593 793.891ZM612.417 792.36C615.056 792.169 617.733 792.005 620.45 791.87L620.251 787.875C617.505 788.011 614.797 788.177 612.128 788.371L612.417 792.36ZM628.539 791.557C631.109 791.486 633.712 791.439 636.351 791.418L636.319 787.418C633.654 787.439 631.024 787.487 628.428 787.559L628.539 791.557ZM644.371 791.432C647.08 791.463 649.824 791.52 652.605 791.604L652.725 787.605C649.92 787.521 647.151 787.463 644.416 787.432L644.371 791.432ZM660.358 791.903C662.969 792.025 665.612 792.171 668.287 792.34L668.539 788.348C665.843 788.177 663.179 788.031 660.545 787.907L660.358 791.903ZM676.405 792.918C679.05 793.127 681.724 793.359 684.429 793.613L684.804 789.631C682.079 789.375 679.385 789.141 676.721 788.931L676.405 792.918ZM692.207 794.399C694.828 794.682 697.476 794.986 700.153 795.311L700.635 791.34C697.941 791.013 695.275 790.707 692.637 790.422L692.207 794.399ZM708.269 796.35C709.636 796.534 711.01 796.723 712.391 796.918L712.95 792.957C711.56 792.761 710.178 792.571 708.802 792.386L708.269 796.35Z" fill="white"/>
<path opacity="0.8" d="M1307.46 1145.62L1308 1143.7L1307.46 1145.62ZM1792.25 1001.62C1793.34 1001.77 1794.35 1001.01 1794.51 999.918C1794.66 998.825 1793.9 997.813 1792.8 997.659L1792.25 1001.62ZM781.623 1542.6C782.225 1541.67 782.898 1540.62 783.641 1539.49L780.292 1537.3C779.543 1538.45 778.864 1539.5 778.255 1540.45L781.623 1542.6ZM788.084 1532.78C789.468 1530.71 790.985 1528.47 792.632 1526.05L789.328 1523.8C787.675 1526.22 786.151 1528.48 784.761 1530.55L788.084 1532.78ZM797.269 1519.31C798.696 1517.25 800.195 1515.1 801.766 1512.86L798.491 1510.56C796.916 1512.81 795.412 1514.97 793.981 1517.03L797.269 1519.31ZM806.499 1506.16C807.98 1504.07 809.513 1501.92 811.097 1499.72L807.848 1497.39C806.26 1499.6 804.723 1501.75 803.238 1503.84L806.499 1506.16ZM815.884 1493.09C817.401 1491 818.959 1488.86 820.556 1486.69L817.33 1484.32C815.729 1486.5 814.168 1488.64 812.647 1490.74L815.884 1493.09ZM825.436 1480.07C826.973 1477.99 828.542 1475.88 830.143 1473.74L826.94 1471.35C825.336 1473.49 823.763 1475.61 822.222 1477.68L825.436 1480.07ZM835.041 1467.23C836.623 1465.13 838.234 1463.01 839.872 1460.86L836.692 1458.44C835.05 1460.59 833.435 1462.72 831.849 1464.82L835.041 1467.23ZM844.759 1454.49C846.398 1452.36 848.062 1450.21 849.75 1448.03L846.592 1445.58C844.9 1447.76 843.232 1449.91 841.59 1452.04L844.759 1454.49ZM854.635 1441.78C856.285 1439.68 857.957 1437.55 859.65 1435.42L856.514 1432.93C854.817 1435.08 853.142 1437.2 851.488 1439.31L854.635 1441.78ZM864.671 1429.11C866.321 1427.04 867.989 1424.97 869.676 1422.88L866.563 1420.37C864.873 1422.46 863.201 1424.54 861.547 1426.61L864.671 1429.11ZM874.791 1416.57C876.469 1414.51 878.164 1412.44 879.876 1410.36L876.787 1407.82C875.071 1409.91 873.372 1411.98 871.691 1414.05L874.791 1416.57ZM884.982 1404.19C886.701 1402.12 888.435 1400.04 890.184 1397.96L887.121 1395.39C885.367 1397.48 883.628 1399.56 881.906 1401.63L884.982 1404.19ZM895.355 1391.83C897.075 1389.8 898.809 1387.77 900.556 1385.73L897.518 1383.12C895.766 1385.17 894.028 1387.21 892.304 1389.24L895.355 1391.83ZM905.84 1379.59C907.585 1377.57 909.342 1375.55 911.112 1373.53L908.1 1370.89C906.326 1372.92 904.564 1374.95 902.815 1376.97L905.84 1379.59ZM916.406 1367.5C918.183 1365.49 919.972 1363.48 921.773 1361.46L918.79 1358.8C916.984 1360.82 915.19 1362.84 913.409 1364.85L916.406 1367.5ZM927.154 1355.47C928.939 1353.49 930.736 1351.51 932.544 1349.53L929.59 1346.84C927.778 1348.82 925.976 1350.81 924.185 1352.79L927.154 1355.47ZM937.999 1343.6C939.819 1341.63 941.65 1339.66 943.491 1337.69L940.569 1334.95C938.722 1336.93 936.886 1338.91 935.06 1340.88L937.999 1343.6ZM948.983 1331.84C950.823 1329.9 952.673 1327.95 954.533 1326.01L951.644 1323.25C949.779 1325.19 947.923 1327.14 946.077 1329.1L948.983 1331.84ZM960.136 1320.2C961.995 1318.28 963.862 1316.37 965.739 1314.46L962.885 1311.65C961.003 1313.57 959.129 1315.49 957.264 1317.41L960.136 1320.2ZM971.393 1308.74C973.286 1306.84 975.187 1304.94 977.097 1303.05L974.281 1300.2C972.365 1302.1 970.457 1304.01 968.558 1305.92L971.393 1308.74ZM982.827 1297.4C984.743 1295.53 986.666 1293.67 988.596 1291.81L985.821 1288.93C983.883 1290.79 981.953 1292.67 980.031 1294.54L982.827 1297.4ZM994.41 1286.24C996.356 1284.4 998.308 1282.56 1000.27 1280.73L997.535 1277.8C995.568 1279.64 993.609 1281.49 991.656 1283.34L994.41 1286.24ZM1006.16 1275.26C1008.14 1273.44 1010.12 1271.63 1012.1 1269.84L1009.42 1266.87C1007.42 1268.68 1005.44 1270.49 1003.46 1272.31L1006.16 1275.26ZM1018.08 1264.47C1020.09 1262.68 1022.1 1260.9 1024.12 1259.14L1021.48 1256.13C1019.46 1257.9 1017.44 1259.68 1015.42 1261.48L1018.08 1264.47ZM1030.19 1253.87C1032.22 1252.13 1034.26 1250.39 1036.3 1248.67L1033.72 1245.61C1031.67 1247.34 1029.63 1249.08 1027.59 1250.84L1030.19 1253.87ZM1042.49 1243.51C1044.56 1241.79 1046.63 1240.1 1048.71 1238.41L1046.19 1235.3C1044.1 1237 1042.02 1238.7 1039.94 1240.42L1042.49 1243.51ZM1054.97 1233.4C1057.07 1231.73 1059.18 1230.07 1061.3 1228.43L1058.85 1225.27C1056.72 1226.92 1054.6 1228.58 1052.48 1230.26L1054.97 1233.4ZM1067.69 1223.53C1069.82 1221.91 1071.96 1220.31 1074.11 1218.73L1071.73 1215.51C1069.57 1217.11 1067.42 1218.72 1065.27 1220.34L1067.69 1223.53ZM1080.59 1214C1082.78 1212.42 1084.97 1210.86 1087.16 1209.33L1084.86 1206.05C1082.66 1207.6 1080.45 1209.17 1078.25 1210.75L1080.59 1214ZM1093.75 1204.77C1095.97 1203.26 1098.18 1201.77 1100.4 1200.31L1098.19 1196.97C1095.96 1198.45 1093.73 1199.94 1091.5 1201.46L1093.75 1204.77ZM1107.16 1195.9C1109.42 1194.46 1111.68 1193.03 1113.95 1191.63L1111.84 1188.23C1109.56 1189.64 1107.28 1191.08 1105.01 1192.53L1107.16 1195.9ZM1120.76 1187.49C1123.09 1186.1 1125.41 1184.74 1127.74 1183.4L1125.75 1179.93C1123.4 1181.28 1121.06 1182.65 1118.71 1184.05L1120.76 1187.49ZM1134.73 1179.47C1137.06 1178.19 1139.4 1176.93 1141.74 1175.7L1139.87 1172.16C1137.51 1173.4 1135.15 1174.67 1132.8 1175.97L1134.73 1179.47ZM1148.93 1172C1151.32 1170.8 1153.72 1169.63 1156.12 1168.49L1154.4 1164.88C1151.98 1166.03 1149.56 1167.21 1147.13 1168.43L1148.93 1172ZM1163.35 1165.15C1165.82 1164.04 1168.28 1162.97 1170.75 1161.93L1169.2 1158.24C1166.7 1159.29 1164.21 1160.38 1161.71 1161.5L1163.35 1165.15ZM1178.15 1158.92C1180.64 1157.94 1183.13 1157 1185.61 1156.1L1184.25 1152.34C1181.73 1153.26 1179.21 1154.21 1176.69 1155.2L1178.15 1158.92ZM1193.22 1153.46C1195.75 1152.62 1198.28 1151.82 1200.81 1151.07L1199.67 1147.23C1197.1 1148 1194.53 1148.81 1191.96 1149.67L1193.22 1153.46ZM1208.51 1148.89C1211.1 1148.2 1213.7 1147.55 1216.29 1146.95L1215.39 1143.06C1212.75 1143.67 1210.12 1144.32 1207.48 1145.02L1208.51 1148.89ZM1224.05 1145.3C1226.69 1144.78 1229.32 1144.32 1231.95 1143.9L1231.32 1139.95C1228.65 1140.38 1225.97 1140.85 1223.28 1141.37L1224.05 1145.3ZM1239.85 1142.81C1242.49 1142.5 1245.12 1142.24 1247.75 1142.04L1247.44 1138.05C1244.76 1138.26 1242.07 1138.52 1239.38 1138.84L1239.85 1142.81ZM1255.74 1141.58C1258.4 1141.49 1261.05 1141.45 1263.69 1141.48L1263.72 1137.48C1261.02 1137.45 1258.31 1137.49 1255.6 1137.59L1255.74 1141.58ZM1271.64 1141.73C1274.3 1141.87 1276.95 1142.08 1279.58 1142.35L1279.99 1138.37C1277.29 1138.09 1274.58 1137.88 1271.86 1137.73L1271.64 1141.73ZM1287.47 1143.35C1290.09 1143.75 1292.69 1144.21 1295.29 1144.73L1296.09 1140.81C1293.42 1140.27 1290.75 1139.8 1288.07 1139.39L1287.47 1143.35ZM1303.05 1146.51C1304.34 1146.84 1305.63 1147.19 1306.92 1147.55L1308 1143.7C1306.69 1143.33 1305.37 1142.97 1304.05 1142.63L1303.05 1146.51ZM1306.92 1147.55C1308.26 1147.93 1309.59 1148.3 1310.91 1148.66L1311.97 1144.8C1310.65 1144.44 1309.33 1144.08 1308 1143.7L1306.92 1147.55ZM1318.74 1150.73C1321.31 1151.39 1323.85 1152.01 1326.36 1152.6L1327.27 1148.71C1324.79 1148.12 1322.28 1147.51 1319.73 1146.86L1318.74 1150.73ZM1334.06 1154.34C1336.75 1154.92 1339.4 1155.46 1342.01 1155.96L1342.77 1152.03C1340.19 1151.54 1337.57 1151 1334.9 1150.43L1334.06 1154.34ZM1349.72 1157.35C1352.4 1157.8 1355.04 1158.21 1357.63 1158.57L1358.19 1154.61C1355.63 1154.25 1353.03 1153.85 1350.39 1153.4L1349.72 1157.35ZM1365.61 1159.59C1368.22 1159.89 1370.79 1160.14 1373.32 1160.35L1373.65 1156.37C1371.16 1156.16 1368.63 1155.91 1366.06 1155.62L1365.61 1159.59ZM1381.5 1160.9C1384.18 1161.03 1386.8 1161.11 1389.38 1161.14L1389.44 1157.14C1386.91 1157.11 1384.33 1157.03 1381.7 1156.9L1381.5 1160.9ZM1397.44 1161.09C1400.15 1161.02 1402.8 1160.9 1405.4 1160.72L1405.13 1156.73C1402.58 1156.9 1399.99 1157.03 1397.34 1157.1L1397.44 1161.09ZM1413.38 1159.99C1416.08 1159.67 1418.72 1159.3 1421.31 1158.88L1420.65 1154.93C1418.13 1155.35 1415.56 1155.71 1412.93 1156.01L1413.38 1159.99ZM1429.19 1157.36C1431.84 1156.78 1434.42 1156.13 1436.95 1155.43L1435.87 1151.58C1433.42 1152.26 1430.91 1152.89 1428.33 1153.45L1429.19 1157.36ZM1444.65 1153.05C1447.19 1152.18 1449.68 1151.25 1452.11 1150.26L1450.6 1146.56C1448.24 1147.52 1445.83 1148.42 1443.36 1149.26L1444.65 1153.05ZM1459.51 1147C1461.94 1145.85 1464.32 1144.63 1466.64 1143.37L1464.72 1139.86C1462.46 1141.09 1460.15 1142.27 1457.79 1143.39L1459.51 1147ZM1473.58 1139.33C1475.86 1137.92 1478.1 1136.46 1480.29 1134.94L1478.02 1131.65C1475.88 1133.13 1473.7 1134.55 1471.48 1135.93L1473.58 1139.33ZM1486.78 1130.26C1488.9 1128.64 1490.99 1126.99 1493.05 1125.29L1490.51 1122.2C1488.49 1123.87 1486.44 1125.49 1484.36 1127.07L1486.78 1130.26ZM1499.13 1120.11C1501.12 1118.35 1503.09 1116.56 1505.03 1114.74L1502.3 1111.82C1500.38 1113.61 1498.44 1115.38 1496.48 1117.11L1499.13 1120.11ZM1510.78 1109.23C1512.67 1107.38 1514.54 1105.5 1516.41 1103.61L1513.56 1100.8C1511.71 1102.68 1509.85 1104.54 1507.98 1106.37L1510.78 1109.23ZM1521.95 1097.92C1523.78 1096.02 1525.6 1094.1 1527.43 1092.18L1524.53 1089.43C1522.7 1091.34 1520.89 1093.25 1519.07 1095.14L1521.95 1097.92ZM1532.89 1086.42C1534.69 1084.51 1536.5 1082.6 1538.33 1080.69L1535.43 1077.93C1533.6 1079.85 1531.79 1081.76 1529.98 1083.67L1532.89 1086.42ZM1543.81 1074.98C1545.64 1073.1 1547.47 1071.23 1549.33 1069.36L1546.5 1066.53C1544.62 1068.42 1542.77 1070.31 1540.94 1072.2L1543.81 1074.98ZM1554.94 1063.81C1556.82 1061.98 1558.72 1060.17 1560.65 1058.37L1557.92 1055.44C1555.97 1057.26 1554.05 1059.1 1552.15 1060.94L1554.94 1063.81ZM1566.46 1053.08C1568.42 1051.34 1570.41 1049.62 1572.44 1047.92L1569.87 1044.86C1567.81 1046.58 1565.79 1048.33 1563.81 1050.09L1566.46 1053.08ZM1578.51 1042.99C1580.56 1041.38 1582.65 1039.79 1584.78 1038.22L1582.41 1035C1580.24 1036.59 1578.12 1038.21 1576.03 1039.85L1578.51 1042.99ZM1591.16 1033.71C1593.31 1032.25 1595.51 1030.82 1597.75 1029.41L1595.62 1026.02C1593.34 1027.45 1591.1 1028.92 1588.92 1030.4L1591.16 1033.71ZM1604.45 1025.39C1606.7 1024.1 1608.99 1022.85 1611.34 1021.62L1609.49 1018.08C1607.09 1019.32 1604.76 1020.61 1602.46 1021.92L1604.45 1025.39ZM1618.34 1018.14C1620.68 1017.03 1623.07 1015.96 1625.51 1014.92L1623.94 1011.24C1621.45 1012.3 1619.02 1013.39 1616.63 1014.52L1618.34 1018.14ZM1632.76 1012.01C1635.18 1011.09 1637.65 1010.2 1640.17 1009.35L1638.9 1005.56C1636.32 1006.42 1633.8 1007.33 1631.33 1008.27L1632.76 1012.01ZM1647.59 1007C1650.1 1006.26 1652.66 1005.55 1655.26 1004.87L1654.27 1001C1651.61 1001.68 1649.01 1002.41 1646.46 1003.16L1647.59 1007ZM1662.77 1003.07C1665.32 1002.51 1667.91 1001.97 1670.56 1001.47L1669.82 997.543C1667.13 998.049 1664.49 998.591 1661.9 999.168L1662.77 1003.07ZM1678.22 1000.15C1680.77 999.754 1683.36 999.386 1685.99 999.051L1685.49 995.083C1682.81 995.423 1680.18 995.796 1677.6 996.201L1678.22 1000.15ZM1693.93 998.156C1696.45 997.908 1699.01 997.688 1701.61 997.499L1701.31 993.51C1698.68 993.702 1696.09 993.924 1693.54 994.176L1693.93 998.156ZM1709.53 997.021C1712.12 996.897 1714.76 996.801 1717.44 996.735L1717.34 992.736C1714.63 992.803 1711.96 992.9 1709.34 993.026L1709.53 997.021ZM1725.18 996.628C1727.8 996.62 1730.45 996.64 1733.14 996.688L1733.22 992.688C1730.5 992.64 1727.81 992.62 1725.17 992.628L1725.18 996.628ZM1741.08 996.907C1743.62 997.002 1746.19 997.121 1748.8 997.265L1749.02 993.271C1746.39 993.126 1743.79 993.005 1741.23 992.91L1741.08 996.907ZM1756.71 997.773C1759.37 997.967 1762.05 998.185 1764.78 998.429L1765.13 994.445C1762.39 994.199 1759.68 993.979 1757 993.784L1756.71 997.773ZM1772.4 999.172C1774.97 999.441 1777.57 999.733 1780.2 1000.05L1780.68 996.076C1778.03 995.759 1775.41 995.465 1772.82 995.193L1772.4 999.172ZM1788.18 1001.06C1789.53 1001.24 1790.88 1001.43 1792.25 1001.62L1792.8 997.659C1791.43 997.465 1790.07 997.278 1788.72 997.096L1788.18 1001.06Z" fill="white"/>
<path opacity="0.8" d="M559.631 519.551L561.314 518.47L559.631 519.551ZM1065.81 755.085C1066.52 755.926 1067.78 756.026 1068.62 755.309C1069.47 754.593 1069.57 753.33 1068.85 752.49L1065.81 755.085ZM-165.454 462.723C-164.393 462.422 -163.224 462.096 -161.952 461.746L-163.013 457.889C-164.294 458.242 -165.473 458.571 -166.546 458.875L-165.454 462.723ZM-154.237 459.673C-151.82 459.037 -149.188 458.355 -146.351 457.632L-147.337 453.756C-150.185 454.481 -152.828 455.165 -155.255 455.804L-154.237 459.673ZM-138.79 455.734C-136.32 455.122 -133.73 454.488 -131.025 453.834L-131.965 449.946C-134.677 450.601 -137.274 451.237 -139.752 451.851L-138.79 455.734ZM-123.269 451.981C-120.769 451.391 -118.187 450.788 -115.528 450.174L-116.428 446.277C-119.094 446.892 -121.681 447.497 -124.188 448.088L-123.269 451.981ZM-107.778 448.404C-105.227 447.827 -102.614 447.243 -99.9403 446.651L-100.804 442.746C-103.484 443.339 -106.103 443.924 -108.66 444.502L-107.778 448.404ZM-92.2632 444.971C-89.6524 444.405 -86.9904 443.834 -84.2791 443.259L-85.1089 439.346C-87.826 439.922 -90.4937 440.494 -93.1102 441.061L-92.2632 444.971ZM-76.6681 441.662C-74.0975 441.128 -71.4867 440.591 -68.8372 440.052L-69.6344 436.132C-72.2895 436.672 -74.9057 437.21 -77.4818 437.745L-76.6681 441.662ZM-60.9621 438.467C-58.4265 437.962 -55.8585 437.457 -53.2592 436.95L-54.0242 433.024C-56.6288 433.531 -59.2021 434.038 -61.743 434.544L-60.9621 438.467ZM-45.3689 435.43C-42.7862 434.938 -40.1751 434.446 -37.5367 433.954L-38.2693 430.022C-40.9131 430.514 -43.5296 431.007 -46.1176 431.5L-45.3689 435.43ZM-29.7815 432.526C-27.1713 432.05 -24.5364 431.576 -21.8776 431.103L-22.5778 427.165C-25.2421 427.639 -27.8825 428.114 -30.498 428.59L-29.7815 432.526ZM-14.0281 429.724C-11.456 429.278 -8.86322 428.834 -6.25057 428.391L-6.91817 424.448C-9.53631 424.891 -12.1345 425.336 -14.7119 425.783L-14.0281 429.724ZM1.64622 427.072C4.26144 426.64 6.89521 426.212 9.54672 425.786L8.91259 421.837C6.2554 422.263 3.61604 422.693 0.995278 423.125L1.64622 427.072ZM17.333 424.553C19.9447 424.145 22.5725 423.74 25.2156 423.339L24.6154 419.384C21.9664 419.786 19.3329 420.192 16.7156 420.601L17.333 424.553ZM33.1791 422.148C35.7627 421.767 38.36 421.391 40.9702 421.018L40.4048 417.058C37.7887 417.432 35.1857 417.809 32.5964 418.191L33.1791 422.148ZM48.8394 419.912C51.475 419.548 54.123 419.188 56.7826 418.833L56.2532 414.868C53.5874 415.224 50.9333 415.585 48.2917 415.95L48.8394 419.912ZM64.659 417.8C67.2689 417.463 69.8892 417.132 72.5194 416.805L72.0269 412.836C69.3904 413.163 66.7638 413.495 64.1478 413.832L64.659 417.8ZM80.4391 415.842C83.0813 415.527 85.7327 415.217 88.3927 414.913L87.9386 410.939C85.272 411.244 82.6142 411.554 79.9656 411.87L80.4391 415.842ZM96.2517 414.035C98.8793 413.748 101.515 413.467 104.157 413.191L103.743 409.213C101.093 409.489 98.4514 409.771 95.8172 410.059L96.2517 414.035ZM112.106 412.384C114.74 412.123 117.38 411.869 120.027 411.621L119.654 407.639C117 407.887 114.353 408.142 111.712 408.403L112.106 412.384ZM127.928 410.903C130.567 410.67 133.212 410.444 135.861 410.224L135.532 406.238C132.875 406.458 130.223 406.685 127.576 406.918L127.928 410.903ZM143.824 409.588C146.458 409.385 149.096 409.189 151.738 409.001L151.453 405.011C148.804 405.2 146.158 405.396 143.516 405.6L143.824 409.588ZM159.668 408.459C162.314 408.286 164.964 408.12 167.616 407.963L167.379 403.97C164.719 404.128 162.061 404.294 159.406 404.467L159.668 408.459ZM175.57 407.515C178.214 407.375 180.859 407.242 183.507 407.118L183.319 403.122C180.664 403.247 178.01 403.38 175.358 403.521L175.57 407.515ZM191.452 406.771C194.102 406.665 196.753 406.566 199.404 406.477L199.27 402.479C196.609 402.569 193.95 402.667 191.291 402.775L191.452 406.771ZM207.358 406.236C210.01 406.165 212.661 406.103 215.312 406.051L215.233 402.052C212.573 402.104 209.912 402.166 207.251 402.238L207.358 406.236ZM223.262 405.922C225.911 405.889 228.56 405.866 231.206 405.852L231.186 401.852C228.529 401.866 225.871 401.889 223.212 401.923L223.262 405.922ZM239.171 405.842C241.826 405.849 244.479 405.867 247.129 405.895L247.171 401.895C244.51 401.867 241.847 401.849 239.182 401.842L239.171 405.842ZM255.07 406.011C257.719 406.06 260.365 406.121 263.007 406.193L263.115 402.194C260.462 402.122 257.805 402.061 255.145 402.011L255.07 406.011ZM270.978 406.444C273.631 406.539 276.279 406.646 278.923 406.765L279.103 402.769C276.447 402.65 273.786 402.542 271.121 402.446L270.978 406.444ZM286.839 407.158C289.492 407.302 292.14 407.458 294.781 407.628L295.037 403.636C292.382 403.466 289.722 403.309 287.056 403.164L286.839 407.158ZM302.733 408.177C305.377 408.373 308.015 408.582 310.645 408.805L310.983 404.819C308.338 404.595 305.687 404.385 303.029 404.188L302.733 408.177ZM318.514 409.513C321.174 409.767 323.825 410.035 326.468 410.317L326.893 406.34C324.235 406.056 321.569 405.786 318.894 405.531L318.514 409.513ZM334.374 411.208C337 411.52 339.617 411.846 342.225 412.188L342.744 408.222C340.121 407.878 337.487 407.55 334.845 407.236L334.374 411.208ZM350.088 413.268C352.73 413.648 355.361 414.045 357.981 414.457L358.603 410.506C355.965 410.09 353.317 409.692 350.658 409.309L350.088 413.268ZM365.804 415.744C368.4 416.189 370.983 416.651 373.555 417.13L374.287 413.198C371.697 412.715 369.095 412.25 366.48 411.801L365.804 415.744ZM381.413 418.655C384.019 419.182 386.612 419.727 389.19 420.29L390.044 416.383C387.445 415.815 384.832 415.266 382.205 414.735L381.413 418.655ZM396.88 422.036C399.47 422.647 402.045 423.277 404.602 423.927L405.587 420.05C403.007 419.394 400.41 418.759 397.798 418.143L396.88 422.036ZM412.306 425.958C414.857 426.656 417.389 427.374 419.904 428.113L421.032 424.276C418.493 423.529 415.936 422.804 413.361 422.1L412.306 425.958ZM427.46 430.416C430.009 431.221 432.538 432.048 435.046 432.899L436.331 429.111C433.796 428.251 431.24 427.415 428.664 426.602L427.46 430.416ZM442.505 435.519C444.979 436.419 447.432 437.343 449.861 438.291L451.315 434.564C448.856 433.605 446.375 432.671 443.873 431.76L442.505 435.519ZM457.266 441.285C459.71 442.308 462.129 443.357 464.522 444.433L466.162 440.784C463.737 439.694 461.286 438.632 458.812 437.595L457.266 441.285ZM471.629 447.74C474.038 448.9 476.419 450.089 478.77 451.306L480.609 447.754C478.223 446.519 475.808 445.313 473.366 444.136L471.629 447.74ZM485.735 455.044C488.028 456.319 490.291 457.624 492.523 458.958L494.575 455.524C492.307 454.168 490.008 452.843 487.68 451.548L485.735 455.044ZM499.289 463.154C501.511 464.584 503.7 466.046 505.853 467.539L508.133 464.252C505.941 462.732 503.714 461.245 501.454 459.79L499.289 463.154ZM512.22 472.124C514.344 473.713 516.431 475.335 518.48 476.992L520.995 473.881C518.906 472.192 516.779 470.539 514.616 468.921L512.22 472.124ZM524.512 482.065C526.488 483.795 528.424 485.559 530.321 487.359L533.075 484.458C531.139 482.621 529.162 480.82 527.146 479.055L524.512 482.065ZM535.932 492.912C537.761 494.799 539.548 496.723 541.292 498.685L544.281 496.027C542.499 494.022 540.673 492.056 538.805 490.128L535.932 492.912ZM546.389 504.676C548.041 506.708 549.65 508.777 551.215 510.885L554.427 508.501C552.827 506.345 551.181 504.229 549.492 502.152L546.389 504.676ZM555.772 517.323C556.509 518.416 557.234 519.518 557.948 520.631L561.314 518.47C560.584 517.332 559.842 516.205 559.088 515.087L555.772 517.323ZM557.948 520.631C558.71 521.819 559.472 522.996 560.233 524.162L563.582 521.975C562.827 520.819 562.071 519.65 561.314 518.47L557.948 520.631ZM564.786 531.018C566.299 533.259 567.809 535.454 569.315 537.605L572.592 535.311C571.099 533.178 569.601 531.001 568.1 528.779L564.786 531.018ZM573.874 543.998C575.53 546.277 577.182 548.503 578.829 550.678L582.017 548.262C580.386 546.109 578.751 543.905 577.11 541.647L573.874 543.998ZM583.759 557.048C585.405 559.129 587.047 561.159 588.685 563.139L591.767 560.589C590.148 558.632 588.524 556.625 586.897 554.567L583.759 557.048ZM594.07 569.488C595.861 571.546 597.648 573.545 599.431 575.487L602.378 572.783C600.619 570.867 598.856 568.894 597.088 566.862L594.07 569.488ZM604.899 581.282C606.85 583.291 608.795 585.232 610.737 587.109L613.517 584.233C611.606 582.386 609.691 580.475 607.769 578.496L604.899 581.282ZM616.548 592.547C618.609 594.413 620.666 596.207 622.719 597.932L625.292 594.869C623.278 593.176 621.258 591.415 619.232 589.581L616.548 592.547ZM629.013 603.019C631.176 604.697 633.335 606.301 635.49 607.834L637.808 604.575C635.699 603.074 633.585 601.503 631.466 599.858L629.013 603.019ZM642.252 612.42C644.542 613.899 646.828 615.299 649.11 616.626L651.12 613.167C648.892 611.873 646.659 610.505 644.421 609.06L642.252 612.42ZM656.295 620.565C658.72 621.815 661.141 622.986 663.559 624.08L665.208 620.436C662.852 619.37 660.493 618.229 658.129 617.01L656.295 620.565ZM671.096 627.254C673.64 628.247 676.181 629.16 678.72 629.999L679.975 626.2C677.502 625.384 675.027 624.495 672.55 623.528L671.096 627.254ZM686.521 632.349C689.153 633.066 691.783 633.71 694.412 634.284L695.266 630.376C692.702 629.816 690.139 629.189 687.574 628.49L686.521 632.349ZM702.385 635.822C705.067 636.272 707.747 636.657 710.428 636.982L710.909 633.012C708.287 632.693 705.667 632.317 703.048 631.877L702.385 635.822ZM718.494 637.788C721.191 638.002 723.889 638.161 726.588 638.274L726.754 634.277C724.102 634.167 721.454 634.01 718.81 633.801L718.494 637.788ZM734.684 638.474C737.377 638.498 740.072 638.481 742.769 638.429L742.693 634.43C740.029 634.481 737.371 634.498 734.719 634.474L734.684 638.474ZM750.844 638.178C753.527 638.064 756.215 637.923 758.907 637.76L758.665 633.767C755.994 633.929 753.331 634.069 750.675 634.181L750.844 638.178ZM766.942 637.215C769.616 637.017 772.297 636.803 774.983 636.58L774.652 632.594C771.974 632.816 769.306 633.029 766.646 633.226L766.942 637.215ZM782.98 635.894C785.643 635.66 788.324 635.422 791.002 635.187L790.652 631.202C787.964 631.438 785.298 631.675 782.631 631.909L782.98 635.894ZM798.981 634.499C801.64 634.276 804.308 634.06 806.985 633.857L806.682 629.868C803.992 630.072 801.313 630.289 798.646 630.513L798.981 634.499ZM814.965 633.295C817.62 633.124 820.285 632.971 822.961 632.84L822.765 628.844C820.067 628.976 817.382 629.131 814.709 629.303L814.965 633.295ZM830.947 632.521C833.598 632.441 836.26 632.387 838.934 632.364L838.9 628.364C836.195 628.387 833.504 628.442 830.826 628.523L830.947 632.521ZM846.92 632.394C849.563 632.437 852.218 632.515 854.886 632.632L855.061 628.635C852.355 628.517 849.663 628.438 846.986 628.394L846.92 632.394ZM862.855 633.098C865.482 633.292 868.122 633.527 870.776 633.808L871.197 629.83C868.5 629.545 865.817 629.306 863.149 629.109L862.855 633.098ZM878.695 634.78C881.297 635.144 883.912 635.555 886.542 636.017L887.234 632.077C884.558 631.608 881.896 631.189 879.25 630.819L878.695 634.78ZM894.366 637.536C896.933 638.082 899.514 638.679 902.11 639.331L903.084 635.451C900.441 634.788 897.812 634.18 895.198 633.623L894.366 637.536ZM909.783 641.407C912.312 642.14 914.854 642.928 917.41 643.772L918.664 639.973C916.061 639.114 913.473 638.312 910.898 637.565L909.783 641.407ZM924.873 646.384C927.364 647.307 929.87 648.285 932.39 649.321L933.911 645.622C931.347 644.567 928.798 643.572 926.261 642.633L924.873 646.384ZM939.584 652.423C941.996 653.511 944.42 654.654 946.859 655.854L948.625 652.265C946.147 651.045 943.682 649.883 941.229 648.777L939.584 652.423ZM953.903 659.461C956.208 660.687 958.525 661.966 960.855 663.298L962.841 659.826C960.476 658.473 958.123 657.175 955.782 655.929L953.903 659.461ZM967.849 667.439C970.036 668.778 972.234 670.165 974.444 671.601L976.624 668.248C974.385 666.792 972.156 665.385 969.938 664.027L967.849 667.439ZM981.107 676.063C983.291 677.568 985.486 679.122 987.693 680.726L990.045 677.491C987.811 675.867 985.588 674.293 983.376 672.769L981.107 676.063ZM993.97 685.405C996.073 687.011 998.186 688.663 1000.31 690.363L1002.81 687.24C1000.66 685.521 998.525 683.851 996.398 682.226L993.97 685.405ZM1006.57 695.491C1008.55 697.14 1010.53 698.831 1012.52 700.564L1015.14 697.548C1013.13 695.798 1011.13 694.09 1009.14 692.423L1006.57 695.491ZM1018.51 705.891C1020.52 707.709 1022.54 709.571 1024.56 711.477L1027.3 708.563C1025.26 706.64 1023.22 704.762 1021.2 702.926L1018.51 705.891ZM1030.17 716.84C1032.04 718.663 1033.93 720.523 1035.82 722.423L1038.65 719.601C1036.75 717.686 1034.85 715.81 1032.96 713.972L1030.17 716.84ZM1041.51 728.237C1043.35 730.147 1045.2 732.093 1047.06 734.076L1049.98 731.343C1048.11 729.345 1046.25 727.384 1044.39 725.46L1041.51 728.237ZM1052.36 739.82C1054.14 741.769 1055.92 743.752 1057.71 745.77L1060.7 743.116C1058.9 741.085 1057.11 739.089 1055.32 737.127L1052.36 739.82ZM1063.1 751.927C1064 752.971 1064.9 754.024 1065.81 755.085L1068.85 752.49C1067.94 751.422 1067.03 750.363 1066.12 749.313L1063.1 751.927Z" fill="white"/>
</svg>
