<svg width="1226" height="1111" viewBox="0 0 1226 1111" fill="none" xmlns="http://www.w3.org/2000/svg">
<g opacity="0.15" clip-path="url(#clip0_358_20383)">
<mask id="mask0_358_20383" style="mask-type:luminance" maskUnits="userSpaceOnUse" x="0" y="0" width="613" height="609">
<path d="M613 0H0V609H613V0Z" fill="white"/>
</mask>
<g mask="url(#mask0_358_20383)">
<path fill-rule="evenodd" clip-rule="evenodd" d="M306.5 609C475.774 609 613 472.669 613 304.5C613 136.329 475.774 0 306.5 0C137.225 0 0 136.329 0 304.5C0 472.669 137.225 609 306.5 609ZM306.5 572.46C455.462 572.46 576.22 452.49 576.22 304.5C576.22 156.51 455.462 36.54 306.5 36.54C157.538 36.54 36.78 156.51 36.78 304.5C36.78 452.49 157.538 572.46 306.5 572.46ZM306.5 535.92C435.15 535.92 539.44 432.311 539.44 304.5C539.44 176.69 435.15 73.08 306.5 73.08C177.851 73.08 73.56 176.69 73.56 304.5C73.56 432.311 177.851 535.92 306.5 535.92ZM306.5 499.38C414.835 499.38 502.66 412.129 502.66 304.5C502.66 196.871 414.835 109.62 306.5 109.62C198.164 109.62 110.34 196.871 110.34 304.5C110.34 412.129 198.164 499.38 306.5 499.38ZM465.88 304.5C465.88 391.949 394.524 462.84 306.5 462.84C218.477 462.84 147.12 391.949 147.12 304.5C147.12 217.051 218.477 146.16 306.5 146.16C394.524 146.16 465.88 217.051 465.88 304.5ZM429.1 304.5C429.1 371.767 374.209 426.3 306.5 426.3C238.79 426.3 183.9 371.767 183.9 304.5C183.9 237.232 238.79 182.7 306.5 182.7C374.209 182.7 429.1 237.232 429.1 304.5Z" fill="white"/>
</g>
</g>
<g opacity="0.15" clip-path="url(#clip1_358_20383)">
<mask id="mask1_358_20383" style="mask-type:luminance" maskUnits="userSpaceOnUse" x="613" y="502" width="613" height="609">
<path d="M1226 502H613V1111H1226V502Z" fill="white"/>
</mask>
<g mask="url(#mask1_358_20383)">
<path fill-rule="evenodd" clip-rule="evenodd" d="M919.5 1111C1088.77 1111 1226 974.669 1226 806.5C1226 638.329 1088.77 502 919.5 502C750.225 502 613 638.329 613 806.5C613 974.669 750.225 1111 919.5 1111ZM919.5 1074.46C1068.46 1074.46 1189.22 954.49 1189.22 806.5C1189.22 658.51 1068.46 538.54 919.5 538.54C770.538 538.54 649.78 658.51 649.78 806.5C649.78 954.49 770.538 1074.46 919.5 1074.46ZM919.5 1037.92C1048.15 1037.92 1152.44 934.311 1152.44 806.5C1152.44 678.69 1048.15 575.08 919.5 575.08C790.851 575.08 686.56 678.69 686.56 806.5C686.56 934.311 790.851 1037.92 919.5 1037.92ZM919.5 1001.38C1027.84 1001.38 1115.66 914.129 1115.66 806.5C1115.66 698.871 1027.84 611.62 919.5 611.62C811.164 611.62 723.34 698.871 723.34 806.5C723.34 914.129 811.164 1001.38 919.5 1001.38ZM1078.88 806.5C1078.88 893.949 1007.52 964.84 919.5 964.84C831.477 964.84 760.12 893.949 760.12 806.5C760.12 719.051 831.477 648.16 919.5 648.16C1007.52 648.16 1078.88 719.051 1078.88 806.5ZM1042.1 806.5C1042.1 873.767 987.209 928.3 919.5 928.3C851.79 928.3 796.9 873.767 796.9 806.5C796.9 739.232 851.79 684.7 919.5 684.7C987.209 684.7 1042.1 739.232 1042.1 806.5Z" fill="white"/>
</g>
</g>
<defs>
<clipPath id="clip0_358_20383">
<rect width="613" height="609" fill="white"/>
</clipPath>
<clipPath id="clip1_358_20383">
<rect width="613" height="609" fill="white" transform="translate(613 502)"/>
</clipPath>
</defs>
</svg>
