<svg width="16" height="16" viewBox="0 0 16 16" fill="none" xmlns="http://www.w3.org/2000/svg">
<path d="M4.83464 14.6663C4.2362 14.6663 3.72547 14.4548 3.30247 14.0318C2.87947 13.6088 2.66797 13.0981 2.66797 12.4997V3.49967C2.66797 2.90123 2.87947 2.39051 3.30247 1.96751C3.72547 1.54451 4.2362 1.33301 4.83464 1.33301H13.3346V11.333C13.0457 11.333 12.8069 11.4497 12.618 11.683C12.4291 11.9163 12.3346 12.1886 12.3346 12.4997C12.3346 12.8108 12.4291 13.083 12.618 13.3163C12.8069 13.5497 13.0457 13.6663 13.3346 13.6663V14.6663H4.83464ZM3.66797 10.6663C3.83464 10.5552 4.0152 10.4719 4.20964 10.4163C4.40407 10.3608 4.6124 10.333 4.83464 10.333H5.33464V2.33301H4.83464C4.51054 2.33301 4.23507 2.44645 4.0083 2.67334C3.7814 2.90012 3.66797 3.17556 3.66797 3.49967V10.6663ZM6.33464 10.333H12.3346V2.33301H6.33464V10.333ZM4.82697 13.6663H11.6513C11.5513 13.4997 11.4735 13.3163 11.418 13.1163C11.3624 12.9163 11.3346 12.7108 11.3346 12.4997C11.3346 12.2774 11.3624 12.0691 11.418 11.8747C11.4735 11.6802 11.5569 11.4997 11.668 11.333H4.82814C4.51024 11.333 4.2374 11.4464 4.00964 11.6733C3.78187 11.9001 3.66797 12.1756 3.66797 12.4997C3.66797 12.8219 3.78187 13.0969 4.00964 13.3247C4.2374 13.5524 4.50987 13.6663 4.82697 13.6663Z" fill="white"/>
</svg>
