<svg width="16" height="16" viewBox="0 0 16 16" fill="none" xmlns="http://www.w3.org/2000/svg">
<g clip-path="url(#clip0_583_17199)">
<path d="M11.4422 5.76425C11.6781 5.99982 11.6781 6.38203 11.4422 6.6176L7.22068 10.8391C6.98511 11.075 6.6029 11.075 6.36733 10.8391L4.5581 9.02991C4.22964 8.70146 4.37992 8.14061 4.8286 8.02038C5.03683 7.96459 5.25901 8.02412 5.41145 8.17656L6.794 9.55986L10.5889 5.76425C10.8244 5.52842 11.2067 5.52842 11.4422 5.76425ZM15.8402 8.00016C15.8402 14.0354 9.30683 17.8074 4.08016 14.7898C-1.14651 11.7722 -1.14651 4.22813 4.08016 1.21052C5.27199 0.522413 6.62395 0.160156 8.00016 0.160156C12.3282 0.164731 15.8356 3.67214 15.8402 8.00016ZM14.634 8.00016C14.634 2.89342 9.1058 -0.298294 4.68323 2.25507C0.26067 4.80844 0.26067 11.1919 4.68323 13.7452C5.69162 14.3274 6.83578 14.6339 8.00016 14.634C11.6622 14.6298 14.6299 11.6622 14.634 8.00016Z" fill="white"/>
</g>
<defs>
<clipPath id="clip0_583_17199">
<rect width="16" height="16" fill="white"/>
</clipPath>
</defs>
</svg>
