<svg width="24" height="24" viewBox="0 0 24 24" fill="none" xmlns="http://www.w3.org/2000/svg">
<path d="M11.9995 5.23276C12.0006 4.84613 11.9244 4.46316 11.7754 4.1064C11.6264 3.74964 11.4075 3.42628 11.1317 3.15534C10.8558 2.88441 10.5286 2.67136 10.1692 2.52874C9.80988 2.38611 9.42561 2.31679 9.03906 2.32485C8.6525 2.33291 8.27146 2.41818 7.91834 2.57565C7.56523 2.73313 7.24717 2.95962 6.98287 3.24182C6.71857 3.52402 6.51336 3.85622 6.37933 4.21888C6.24529 4.58154 6.18513 4.96734 6.20238 5.3536C5.63417 5.4997 5.10666 5.77318 4.6598 6.15333C4.21294 6.53348 3.85844 7.01034 3.62316 7.54778C3.38788 8.08523 3.27798 8.66916 3.30179 9.25537C3.3256 9.84157 3.48249 10.4147 3.76058 10.9313C3.27162 11.3285 2.88712 11.8392 2.64054 12.4189C2.39395 12.9986 2.29275 13.6298 2.34573 14.2576C2.39871 14.8853 2.60427 15.4906 2.94452 16.0208C3.28478 16.551 3.74943 16.99 4.29804 17.2997C4.2303 17.8238 4.27073 18.3563 4.41684 18.8642C4.56294 19.3722 4.81163 19.8447 5.14754 20.2528C5.48344 20.6608 5.89943 20.9957 6.36982 21.2367C6.84021 21.4776 7.35501 21.6196 7.88242 21.6539C8.40983 21.6881 8.93866 21.6138 9.43625 21.4357C9.93384 21.2575 10.3896 20.9792 10.7754 20.618C11.1613 20.2568 11.4689 19.8203 11.6795 19.3355C11.89 18.8507 11.9989 18.328 11.9995 17.7994V5.23276Z" stroke="white" stroke-width="1.5" stroke-linecap="round" stroke-linejoin="round"/>
<path d="M12 5.23276C11.9989 4.84613 12.0751 4.46316 12.2241 4.1064C12.3731 3.74964 12.592 3.42628 12.8678 3.15534C13.1436 2.88441 13.4709 2.67136 13.8302 2.52874C14.1896 2.38611 14.5739 2.31679 14.9604 2.32485C15.347 2.33291 15.728 2.41818 16.0811 2.57565C16.4343 2.73313 16.7523 2.95962 17.0166 3.24182C17.2809 3.52402 17.4861 3.85622 17.6202 4.21888C17.7542 4.58154 17.8144 4.96734 17.7971 5.3536C18.3653 5.4997 18.8928 5.77318 19.3397 6.15333C19.7866 6.53348 20.141 7.01034 20.3763 7.54778C20.6116 8.08523 20.7215 8.66916 20.6977 9.25537C20.6739 9.84157 20.517 10.4147 20.2389 10.9313C20.7279 11.3285 21.1124 11.8392 21.359 12.4189C21.6055 12.9986 21.7067 13.6298 21.6538 14.2576C21.6008 14.8853 21.3952 15.4906 21.055 16.0208C20.7147 16.551 20.2501 16.99 19.7014 17.2997C19.7692 17.8238 19.7288 18.3563 19.5827 18.8642C19.4365 19.3722 19.1879 19.8447 18.852 20.2528C18.516 20.6608 18.1001 20.9957 17.6297 21.2367C17.1593 21.4776 16.6445 21.6196 16.1171 21.6539C15.5897 21.6881 15.0608 21.6138 14.5632 21.4357C14.0657 21.2575 13.6099 20.9792 13.224 20.618C12.8382 20.2568 12.5305 19.8203 12.32 19.3355C12.1095 18.8507 12.0006 18.328 12 17.7994V5.23276Z" stroke="white" stroke-width="1.5" stroke-linecap="round" stroke-linejoin="round"/>
<path d="M14.8996 12.9663C14.088 12.6808 13.3794 12.161 12.8632 11.4728C12.347 10.7845 12.0464 9.95866 11.9996 9.09961C11.9528 9.95866 11.6523 10.7845 11.1361 11.4728C10.6199 12.161 9.91118 12.6808 9.09961 12.9663" stroke="white" stroke-width="1.5" stroke-linecap="round" stroke-linejoin="round"/>
<path d="M17.4121 6.68268C17.6461 6.27725 17.7784 5.82121 17.7978 5.35352" stroke="white" stroke-width="1.5" stroke-linecap="round" stroke-linejoin="round"/>
<path d="M6.20312 5.35352C6.22224 5.82112 6.35424 6.27716 6.58786 6.68268" stroke="white" stroke-width="1.5" stroke-linecap="round" stroke-linejoin="round"/>
<path d="M3.76172 10.9336C3.93856 10.7896 4.1278 10.6615 4.32722 10.5508" stroke="white" stroke-width="1.5" stroke-linecap="round" stroke-linejoin="round"/>
<path d="M19.6738 10.5508C19.8732 10.6615 20.0625 10.7896 20.2393 10.9336" stroke="white" stroke-width="1.5" stroke-linecap="round" stroke-linejoin="round"/>
<path d="M6.20026 17.7996C5.53406 17.7999 4.87909 17.6281 4.29883 17.3008" stroke="white" stroke-width="1.5" stroke-linecap="round" stroke-linejoin="round"/>
<path d="M19.7022 17.3008C19.122 17.6281 18.467 17.7999 17.8008 17.7996" stroke="white" stroke-width="1.5" stroke-linecap="round" stroke-linejoin="round"/>
</svg>
