<svg width="16" height="16" viewBox="0 0 16 16" fill="none" xmlns="http://www.w3.org/2000/svg">
<g clip-path="url(#clip0_583_17174)">
<path d="M1.73297 9.43298L0.399639 13.9396C0.349299 14.1086 0.332732 14.2858 0.350885 14.4612C0.369038 14.6366 0.421555 14.8067 0.505437 14.9617C0.58932 15.1168 0.702925 15.2538 0.839766 15.365C0.976607 15.4762 1.134 15.5593 1.30297 15.6096C1.64422 15.7113 2.01187 15.6733 2.32506 15.5038C2.48013 15.42 2.61717 15.3064 2.72834 15.1695C2.8395 15.0327 2.92263 14.8753 2.97297 14.7063L4.30631 10.1996C4.95646 10.124 5.56995 9.85855 6.07025 9.43649C6.57055 9.01444 6.93552 8.45443 7.11964 7.82631L7.19964 7.55298L0.759639 5.63965L0.666306 5.91298C0.479179 6.53965 0.480533 7.20752 0.6702 7.83342C0.859867 8.45932 1.22947 9.0156 1.73297 9.43298Z" stroke="white" stroke-linecap="round" stroke-linejoin="round"/>
<path d="M8.66839 2.72621C8.69391 2.64174 8.7024 2.55303 8.69338 2.46525C8.68436 2.37747 8.658 2.29235 8.61583 2.21483C8.57366 2.13731 8.51652 2.06893 8.44772 2.01367C8.37892 1.9584 8.29984 1.91734 8.21505 1.89288L3.03505 0.359544C2.95058 0.334022 2.86188 0.325526 2.77409 0.334548C2.68631 0.34357 2.60119 0.36993 2.52367 0.4121C2.44615 0.45427 2.37778 0.511411 2.32251 0.580208C2.26724 0.649005 2.22619 0.728091 2.20172 0.812877L0.761719 5.63954L7.20172 7.55288L8.66839 2.72621Z" stroke="white" stroke-linecap="round" stroke-linejoin="round"/>
<path d="M1.14453 4.35352L7.57786 6.26685" stroke="white" stroke-linecap="round" stroke-linejoin="round"/>
<path d="M4.31786 0.74707L3.64453 3.0004" stroke="white" stroke-linecap="round" stroke-linejoin="round"/>
<path d="M6.89323 1.50684L6.22656 3.76017" stroke="white" stroke-linecap="round" stroke-linejoin="round"/>
<path d="M1.67969 14.3197L1.87302 13.6797" stroke="white" stroke-linecap="round" stroke-linejoin="round"/>
<path d="M8.97896 6.5999C9.74995 6.41741 10.54 6.32789 11.3323 6.33323C13.7256 6.33323 15.6656 7.0799 15.6656 7.9999C15.6656 8.9199 13.7256 9.66657 11.3323 9.66657C10.2894 9.68529 9.25143 9.52056 8.26562 9.1799" stroke="white" stroke-linecap="round" stroke-linejoin="round"/>
<path d="M6.99219 10.6667V14C6.99219 14.92 8.93219 15.6667 11.3255 15.6667C13.7189 15.6667 15.6589 14.92 15.6589 14V8" stroke="white" stroke-linecap="round" stroke-linejoin="round"/>
<path d="M9.66016 9.5402V12.0002C9.66016 12.177 9.73039 12.3466 9.85542 12.4716C9.98044 12.5966 10.15 12.6669 10.3268 12.6669C10.5036 12.6669 10.6732 12.5966 10.7982 12.4716C10.9233 12.3466 10.9935 12.177 10.9935 12.0002C10.9935 11.8234 11.0637 11.6538 11.1888 11.5288C11.3138 11.4038 11.4833 11.3335 11.6602 11.3335C11.837 11.3335 12.0065 11.4038 12.1316 11.5288C12.2566 11.6538 12.3268 11.8234 12.3268 12.0002C12.3268 12.2654 12.4322 12.5198 12.6197 12.7073C12.8073 12.8948 13.0616 13.0002 13.3268 13.0002C13.592 13.0002 13.8464 12.8948 14.0339 12.7073C14.2215 12.5198 14.3268 12.2654 14.3268 12.0002V9.2002" stroke="white" stroke-linecap="round" stroke-linejoin="round"/>
</g>
<defs>
<clipPath id="clip0_583_17174">
<rect width="16" height="16" fill="white"/>
</clipPath>
</defs>
</svg>
