<svg width="16" height="16" viewBox="0 0 16 16" fill="none" xmlns="http://www.w3.org/2000/svg">
<g clip-path="url(#clip0_583_17201)">
<path d="M0.8125 8C0.8125 9.90625 1.56975 11.7344 2.91767 13.0824C4.26559 14.4302 6.09375 15.1875 8 15.1875C9.90625 15.1875 11.7344 14.4302 13.0824 13.0824C14.4302 11.7344 15.1875 9.90625 15.1875 8C15.1875 6.09375 14.4302 4.26559 13.0824 2.91767C11.7344 1.56975 9.90625 0.8125 8 0.8125C6.09375 0.8125 4.26559 1.56975 2.91767 2.91767C1.56975 4.26559 0.8125 6.09375 0.8125 8Z" stroke="white" stroke-linecap="round" stroke-linejoin="round"/>
<path d="M11.5655 5.1356C11.5988 5.03767 11.6041 4.93236 11.5806 4.83162C11.5572 4.73087 11.5059 4.6387 11.4328 4.56556C11.3597 4.49241 11.2675 4.44121 11.1667 4.41775C11.066 4.39429 10.9607 4.39952 10.8627 4.43282L6.04297 6.04282L9.95808 9.95797L11.5655 5.1356Z" stroke="white" stroke-linecap="round" stroke-linejoin="round"/>
<path d="M6.03993 6.04199L4.43185 10.8643C4.39854 10.9622 4.39332 11.0675 4.41678 11.1683C4.44024 11.269 4.49144 11.3612 4.56458 11.4344C4.63773 11.5075 4.72989 11.5587 4.83064 11.5822C4.93139 11.6056 5.03669 11.6004 5.13462 11.5671L9.95695 9.95963" stroke="white" stroke-linecap="round" stroke-linejoin="round"/>
</g>
<defs>
<clipPath id="clip0_583_17201">
<rect width="16" height="16" fill="white"/>
</clipPath>
</defs>
</svg>
