<svg width="15" height="15" viewBox="0 0 15 15" fill="none" xmlns="http://www.w3.org/2000/svg">
<path d="M14.0186 5.66699C14.1739 5.66707 14.3069 5.72525 14.418 5.8418C14.5291 5.95845 14.5959 6.09997 14.6182 6.2666C14.707 7.16659 14.6292 8.04161 14.3848 8.8916C14.1403 9.7416 13.7346 10.5168 13.168 11.2168C12.6791 11.8167 12.1121 12.3136 11.4678 12.708C10.8234 13.1024 10.1236 13.3777 9.36816 13.5332L10.002 13.9004C10.1239 13.9671 10.1988 14.067 10.2266 14.2002C10.2543 14.3334 10.2345 14.4609 10.168 14.583C10.1014 14.7051 10.0046 14.7808 9.87695 14.8086C9.74926 14.8363 9.62406 14.8165 9.50195 14.75L7.46777 13.583C7.34582 13.5163 7.26864 13.4164 7.23535 13.2832C7.20204 13.1499 7.21858 13.0226 7.28516 12.9004L8.45117 10.9004C8.51784 10.7782 8.61862 10.7003 8.75195 10.667C8.88516 10.6338 9.01264 10.6502 9.13477 10.7168C9.25697 10.7835 9.33255 10.881 9.36035 11.0088C9.38795 11.1364 9.36833 11.2617 9.30176 11.3838L8.58496 12.6504C9.28495 12.5837 9.94613 12.3919 10.5684 12.0752C11.1905 11.7585 11.7345 11.3386 12.2012 10.8164C12.7678 10.1832 13.1735 9.46684 13.418 8.66699C13.6624 7.86703 13.7237 7.05009 13.6016 6.2168C13.5793 6.07236 13.61 5.94411 13.6934 5.83301C13.7767 5.72209 13.8853 5.66699 14.0186 5.66699ZM2.93457 3.18359C3.0679 3.21693 3.16868 3.29476 3.23535 3.41699L4.40137 5.41699C4.46794 5.53915 4.48446 5.66656 4.45117 5.7998C4.41784 5.93314 4.33997 6.03294 4.21777 6.09961C4.09564 6.16616 3.96817 6.18366 3.83496 6.15039C3.70176 6.11709 3.60182 6.03902 3.53516 5.91699L2.81836 4.7002C2.66283 5.06682 2.54329 5.4419 2.45996 5.8252C2.37665 6.20847 2.33496 6.60006 2.33496 7C2.33496 8.16667 2.65182 9.22256 3.28516 10.167C3.91847 11.1112 4.76842 11.8056 5.83496 12.25C5.96827 12.3056 6.06583 12.3976 6.12695 12.5254C6.18782 12.653 6.18475 12.7783 6.11816 12.9004C6.02936 13.0334 5.91273 13.1193 5.76855 13.1582C5.62409 13.1971 5.47389 13.1829 5.31836 13.1162C4.09617 12.5829 3.12681 11.7637 2.41016 10.6582C1.69349 9.55264 1.33496 8.33333 1.33496 7C1.33496 6.64443 1.36241 6.2859 1.41797 5.9248C1.47352 5.56376 1.56236 5.2106 1.68457 4.86621L1.01855 5.25C0.896448 5.3166 0.771204 5.33624 0.643555 5.30859C0.515775 5.28083 0.418229 5.20524 0.351562 5.08301C0.285031 4.96089 0.268493 4.83339 0.301758 4.7002C0.335091 4.56686 0.412933 4.46706 0.535156 4.40039L2.55176 3.2334C2.67387 3.16683 2.80137 3.15035 2.93457 3.18359ZM8.00195 0.333008C8.96848 0.33306 9.8854 0.530414 10.752 0.924805C11.6185 1.31924 12.3687 1.87747 13.002 2.59961V1.83301C13.002 1.68871 13.0492 1.56898 13.1436 1.47461C13.2379 1.3804 13.3577 1.33301 13.502 1.33301C13.6462 1.33309 13.766 1.38025 13.8604 1.47461C13.9547 1.56898 14.0019 1.68873 14.002 1.83301V4.16699C14.0019 4.31126 13.9547 4.43103 13.8604 4.52539C13.766 4.61974 13.6462 4.66691 13.502 4.66699H11.168C11.0236 4.66693 10.9039 4.61975 10.8096 4.52539C10.7152 4.43103 10.668 4.31128 10.668 4.16699C10.668 4.02271 10.7153 3.90298 10.8096 3.80859C10.9039 3.71422 11.0236 3.66705 11.168 3.66699H12.585C12.0516 2.93366 11.3817 2.3613 10.5762 1.9502C9.77079 1.53922 8.91282 1.33307 8.00195 1.33301C7.36863 1.33301 6.76008 1.4338 6.17676 1.63379C5.59348 1.83377 5.05172 2.12777 4.55176 2.5166C4.4296 2.60545 4.29893 2.64711 4.16016 2.6416C4.02131 2.63604 3.91823 2.57233 3.85156 2.4502C3.77376 2.31686 3.75182 2.17216 3.78516 2.0166C3.8185 1.8611 3.89635 1.73926 4.01855 1.65039C4.59628 1.2282 5.22362 0.902576 5.90137 0.674805C6.57913 0.447028 7.27972 0.333008 8.00195 0.333008Z" fill="white"/>
</svg>
