<svg width="16" height="16" viewBox="0 0 16 16" fill="none" xmlns="http://www.w3.org/2000/svg">
<path d="M7.91797 13.6663C7.97354 13.6663 8.0374 13.6524 8.10964 13.6246C8.18187 13.5968 8.2402 13.5607 8.28464 13.5163L13.9013 7.88294C14.0457 7.73851 14.1541 7.57368 14.2263 7.38844C14.2985 7.20334 14.3346 7.01818 14.3346 6.83294C14.3346 6.64404 14.2985 6.45518 14.2263 6.26628C14.1541 6.07738 14.0457 5.91071 13.9013 5.76628L10.9013 2.76628C10.7569 2.62183 10.5902 2.5135 10.4013 2.44128C10.2124 2.36906 10.0235 2.33294 9.83464 2.33294C9.6494 2.33294 9.46424 2.36906 9.27914 2.44128C9.0939 2.5135 8.92907 2.62183 8.78464 2.76628L8.48464 3.06628L9.83464 4.43294C9.97907 4.58851 10.1069 4.76904 10.218 4.97461C10.3291 5.18018 10.3846 5.40518 10.3846 5.64961C10.3846 6.07184 10.2207 6.44404 9.89297 6.76628C9.5652 7.08851 9.1902 7.24961 8.76797 7.24961C8.4902 7.24961 8.25964 7.20794 8.0763 7.12461C7.89297 7.04128 7.72524 6.92271 7.57314 6.76894L6.3513 5.54961L3.33464 8.56628C3.27908 8.62184 3.24019 8.68034 3.21797 8.74178C3.19575 8.80311 3.18464 8.86888 3.18464 8.93911C3.18464 9.07944 3.23186 9.19684 3.3263 9.29128C3.42074 9.38571 3.53837 9.43294 3.67914 9.43294C3.74947 9.43294 3.8152 9.41628 3.8763 9.38294C3.9374 9.34961 3.9902 9.31071 4.03464 9.26628L6.33464 6.96628L7.03464 7.66628L4.7513 9.94961C4.69574 10.0052 4.65687 10.0663 4.63464 10.1329C4.6124 10.1996 4.6013 10.2663 4.6013 10.3329C4.6013 10.4663 4.6513 10.5829 4.7513 10.6829C4.8513 10.7829 4.96797 10.8329 5.1013 10.8329C5.16797 10.8329 5.23187 10.819 5.29297 10.7913C5.35407 10.7635 5.40687 10.7274 5.4513 10.6829L7.7513 8.38294L8.4513 9.08294L6.16797 11.3663C6.12354 11.4107 6.0874 11.4681 6.05964 11.5384C6.03187 11.6089 6.01797 11.6793 6.01797 11.7496C6.01797 11.8829 6.06797 11.9996 6.16797 12.0996C6.26797 12.1996 6.38464 12.2496 6.51797 12.2496C6.58464 12.2496 6.64574 12.2385 6.7013 12.2163C6.75687 12.194 6.8124 12.1552 6.86797 12.0996L9.16797 9.79961L9.86797 10.4996L7.56797 12.7996C7.5124 12.8552 7.47354 12.9163 7.4513 12.9829C7.42907 13.0496 7.41797 13.1107 7.41797 13.1663C7.41797 13.3218 7.4624 13.444 7.5513 13.5329C7.6402 13.6218 7.7624 13.6663 7.91797 13.6663ZM7.91897 14.6663C7.55164 14.6663 7.22354 14.5302 6.93464 14.2579C6.64574 13.9857 6.47354 13.6489 6.41797 13.2476C6.0402 13.1934 5.72354 13.0385 5.46797 12.7829C5.2124 12.5274 5.05687 12.2107 5.0013 11.8329C4.62354 11.7774 4.30964 11.619 4.05964 11.3579C3.80964 11.0968 3.65687 10.7829 3.6013 10.4163C3.19019 10.3607 2.8513 10.194 2.58464 9.91628C2.31797 9.63851 2.18464 9.30518 2.18464 8.91628C2.18464 8.72738 2.22197 8.53821 2.29664 8.34878C2.37141 8.15934 2.47853 7.99294 2.61797 7.84961L6.3513 4.11628L8.18464 5.94961C8.27354 6.03851 8.3698 6.10794 8.47347 6.15794C8.57724 6.20794 8.68097 6.23294 8.78464 6.23294C8.92907 6.23294 9.0652 6.16904 9.19297 6.04128C9.32074 5.91351 9.38464 5.77654 9.38464 5.63044C9.38464 5.56544 9.3652 5.49128 9.3263 5.40794C9.2874 5.32461 9.22354 5.23851 9.13464 5.14961L6.7513 2.76628C6.60687 2.62183 6.4402 2.5135 6.2513 2.44128C6.0624 2.36906 5.87354 2.33294 5.68464 2.33294C5.4994 2.33294 5.31424 2.36906 5.12914 2.44128C4.9439 2.5135 4.7794 2.62106 4.63564 2.76394L2.1013 5.29961C1.94575 5.45518 1.83741 5.61904 1.7763 5.79128C1.71519 5.96351 1.67908 6.15794 1.66797 6.37461C1.65686 6.59128 1.69853 6.80238 1.79297 7.00794C1.88741 7.21351 2.0013 7.39961 2.13464 7.56628L1.41797 8.28294C1.19575 8.03851 1.01519 7.74404 0.876302 7.39961C0.737412 7.05518 0.667969 6.70518 0.667969 6.34961C0.667969 6.01628 0.731859 5.69684 0.859635 5.39128C0.987412 5.08571 1.16797 4.81628 1.4013 4.58294L3.91797 2.06628C4.1624 1.82183 4.43904 1.64128 4.7478 1.52461C5.0567 1.40794 5.37337 1.34961 5.6978 1.34961C6.02237 1.34961 6.3374 1.40794 6.64297 1.52461C6.94854 1.64128 7.22354 1.82183 7.46797 2.06628L7.76797 2.36628L8.06797 2.06628C8.3124 1.82183 8.58904 1.64128 8.8978 1.52461C9.2067 1.40794 9.52337 1.34961 9.8478 1.34961C10.1724 1.34961 10.4874 1.40794 10.793 1.52461C11.0985 1.64128 11.3735 1.82183 11.618 2.06628L14.6013 5.04961C14.8457 5.29404 15.0291 5.57201 15.1513 5.88344C15.2735 6.19501 15.3346 6.51168 15.3346 6.83344C15.3346 7.15534 15.2735 7.46904 15.1513 7.77461C15.0291 8.08018 14.8457 8.35518 14.6013 8.59961L8.98464 14.2163C8.8402 14.3607 8.67614 14.4718 8.49247 14.5496C8.3088 14.6274 8.11764 14.6663 7.91897 14.6663Z" fill="white"/>
</svg>
