<svg width="24" height="24" viewBox="0 0 24 24" fill="none" xmlns="http://www.w3.org/2000/svg">
<path d="M19.7342 12.9658C19.7342 17.7991 16.3509 20.2158 12.3296 21.6175C12.119 21.6888 11.8903 21.6854 11.6819 21.6078C7.65091 20.2158 4.26758 17.7991 4.26758 12.9658V6.19913C4.26758 5.94276 4.36942 5.69688 4.55071 5.5156C4.73199 5.33431 4.97787 5.23247 5.23424 5.23247C7.16758 5.23247 9.58424 4.07247 11.2662 2.60313C11.471 2.42816 11.7316 2.33203 12.0009 2.33203C12.2703 2.33203 12.5308 2.42816 12.7356 2.60313C14.4272 4.08213 16.8342 5.23247 18.7676 5.23247C19.024 5.23247 19.2698 5.33431 19.4511 5.5156C19.6324 5.69688 19.7342 5.94276 19.7342 6.19913V12.9658Z" stroke="white" stroke-width="1.5" stroke-linecap="round" stroke-linejoin="round"/>
</svg>
