<svg width="16" height="16" viewBox="0 0 16 16" fill="none" xmlns="http://www.w3.org/2000/svg">
<path d="M8.42575 4.80578C8.58722 4.46495 8.65986 4.08882 8.63692 3.71237C8.61397 3.33593 8.49619 2.9714 8.29452 2.65271C8.09285 2.33401 7.81385 2.0715 7.48348 1.8896C7.15311 1.70769 6.78209 1.6123 6.40495 1.6123C6.02781 1.6123 5.65679 1.70769 5.32642 1.8896C4.99604 2.0715 4.71704 2.33401 4.51538 2.65271C4.31371 2.9714 4.19592 3.33593 4.17298 3.71237C4.15003 4.08882 4.22267 4.46495 4.38414 4.80578H1.61328V7.06425C1.93038 7.01906 2.25349 7.04253 2.56074 7.13306C2.86798 7.22359 3.15219 7.37907 3.39413 7.58898C3.63607 7.79889 3.83009 8.05832 3.96305 8.34972C4.09602 8.64113 4.16483 8.95769 4.16483 9.278C4.16483 9.5983 4.09602 9.91487 3.96305 10.2063C3.83009 10.4977 3.63607 10.7571 3.39413 10.967C3.15219 11.1769 2.86798 11.3324 2.56074 11.4229C2.25349 11.5135 1.93038 11.5369 1.61328 11.4917V14.3891H4.51064C4.46546 14.072 4.48893 13.7489 4.57946 13.4417C4.66999 13.1344 4.82547 12.8502 5.03538 12.6083C5.24528 12.3663 5.50472 12.1723 5.79612 12.0393C6.08752 11.9064 6.40409 11.8376 6.72439 11.8376C7.0447 11.8376 7.36126 11.9064 7.65267 12.0393C7.94407 12.1723 8.2035 12.3663 8.41341 12.6083C8.62332 12.8502 8.7788 13.1344 8.86933 13.4417C8.95986 13.7489 8.98333 14.072 8.93814 14.3891H11.1966V11.6182C11.5374 11.7797 11.9136 11.8524 12.29 11.8294C12.6665 11.8065 13.031 11.6887 13.3497 11.487C13.6684 11.2853 13.9309 11.0063 14.1128 10.676C14.2947 10.3456 14.3901 9.97458 14.3901 9.59744C14.3901 9.2203 14.2947 8.84928 14.1128 8.51891C13.9309 8.18854 13.6684 7.90954 13.3497 7.70787C13.031 7.5062 12.6665 7.38842 12.29 7.36547C11.9136 7.34253 11.5374 7.41517 11.1966 7.57664V4.80578H8.42575Z" stroke="white"/>
</svg>
