<svg width="16" height="16" viewBox="0 0 16 16" fill="none" xmlns="http://www.w3.org/2000/svg">
<g clip-path="url(#clip0_583_17152)">
<path fill-rule="evenodd" clip-rule="evenodd" d="M7.3123 4.11026L8.16561 3.2569C8.85313 2.56942 10.059 2.09231 11.2573 1.92114C11.8478 1.83679 12.4062 1.83154 12.862 1.89979C13.3338 1.97045 13.6229 2.10856 13.7581 2.24361C13.8931 2.37866 14.0313 2.6678 14.1019 3.13961C14.1701 3.59539 14.1649 4.15382 14.0805 4.74435C13.9093 5.94262 13.4322 7.14848 12.7446 7.83602L8.00181 12.5789L6.77893 11.3561C6.57064 11.1478 6.23296 11.1478 6.02468 11.3561C5.8164 11.5643 5.8164 11.902 6.02468 12.1103L7.62469 13.7103C7.83298 13.9185 8.17067 13.9185 8.37894 13.7103L8.9626 13.1266L10.2111 15.2075C10.2956 15.3484 10.4403 15.4424 10.6033 15.4625C10.7663 15.4826 10.9295 15.4264 11.0456 15.3103L13.1789 13.177C13.2976 13.0583 13.3535 12.8906 13.3298 12.7244L12.8341 9.25505L13.499 8.59026C14.4114 7.67776 14.9476 6.21692 15.1364 4.8952C15.2321 4.22572 15.2435 3.56084 15.1568 2.98163C15.0724 2.41845 14.8838 1.86095 14.5122 1.48935C14.1407 1.11777 13.5832 0.929225 13.02 0.844886C12.4408 0.758146 11.7759 0.769558 11.1064 0.865191C9.78468 1.054 8.32384 1.5902 7.41136 2.50265L6.74659 3.16746L3.27725 2.67185C3.11107 2.6481 2.9434 2.70399 2.8247 2.8227L0.691371 4.95602C0.575241 5.07216 0.51909 5.23531 0.539156 5.39831C0.559224 5.56131 0.653268 5.70598 0.794097 5.79048L2.87504 7.03904L2.29138 7.62268C2.19137 7.72271 2.13518 7.85836 2.13518 7.99981C2.13518 8.14125 2.19137 8.27691 2.29138 8.37694L3.89139 9.97694C4.09967 10.1852 4.43735 10.1852 4.64563 9.97694C4.85392 9.76866 4.85392 9.43097 4.64563 9.2227L3.42275 7.99981L4.1123 7.31027L7.3123 4.11026ZM10.7744 14.073L9.74005 12.3491L11.8913 10.1979L12.2362 12.6112L10.7744 14.073ZM3.6525 6.26158L5.8038 4.11027L3.39039 3.7655L1.92863 5.22726L3.6525 6.26158ZM2.51229 11.0435C2.72056 10.8353 2.72056 10.4976 2.51229 10.2893C2.30401 10.0811 1.96631 10.0811 1.75804 10.2893L0.691371 11.356C0.48309 11.5643 0.48309 11.902 0.691371 12.1102C0.89965 12.3185 1.23734 12.3185 1.44562 12.1102L2.51229 11.0435ZM4.11231 12.6436C4.32059 12.4353 4.3206 12.0976 4.11232 11.8894C3.90404 11.6811 3.56636 11.6811 3.35807 11.8894L1.2247 14.0226C1.01643 14.231 1.01642 14.5687 1.2247 14.7769C1.43298 14.9852 1.77067 14.9852 1.97894 14.777L4.11231 12.6436ZM5.71229 14.2435C5.92056 14.0353 5.92056 13.6976 5.71229 13.4893C5.50401 13.2811 5.16631 13.2811 4.95804 13.4893L3.89137 14.556C3.68309 14.7643 3.68309 15.102 3.89137 15.3102C4.09965 15.5185 4.43734 15.5185 4.64562 15.3102L5.71229 14.2435ZM10.1351 7.19853C10.8708 7.19853 11.4672 6.60215 11.4672 5.86647C11.4672 5.13079 10.8708 4.5344 10.1351 4.5344C9.39943 4.5344 8.80305 5.13079 8.80305 5.86647C8.80305 6.60215 9.39943 7.19853 10.1351 7.19853Z" fill="white"/>
</g>
<defs>
<clipPath id="clip0_583_17152">
<rect width="16" height="16" fill="white"/>
</clipPath>
</defs>
</svg>
