<svg width="16" height="16" viewBox="0 0 16 16" fill="none" xmlns="http://www.w3.org/2000/svg">
<g clip-path="url(#clip0_583_17150)">
<path d="M12.4334 8.34054L8.94788 7.05257L7.66396 3.56438C7.3779 2.78722 6.3578 2.61117 5.8278 3.2475C5.74916 3.34191 5.68728 3.44908 5.64485 3.56438L4.35282 7.05257L0.864633 8.33649C0.0874703 8.62256 -0.0885735 9.64265 0.547752 10.1727C0.642158 10.2513 0.749333 10.3132 0.864633 10.3556L4.35282 11.6476L5.63673 15.1358C5.9228 15.913 6.9429 16.089 7.4729 15.4527C7.55154 15.3583 7.61341 15.2511 7.65586 15.1358L8.94788 11.6476L12.4361 10.3637C13.2132 10.0777 13.3893 9.05756 12.753 8.52755C12.6585 8.44891 12.5514 8.38704 12.4361 8.34459L12.4334 8.34054ZM8.33971 10.7165C8.1912 10.7712 8.07414 10.8883 8.01941 11.0368L6.65035 14.7459L5.284 11.0395C5.22934 10.8894 5.1111 10.7711 4.96099 10.7165L1.25454 9.3501L4.96099 7.98375C5.1111 7.92909 5.22934 7.81084 5.284 7.66074L6.65035 3.95429L8.0167 7.66074C8.07143 7.80925 8.1885 7.92631 8.33701 7.98104L12.0462 9.3501L8.33971 10.7165ZM8.81273 2.32237C8.81273 2.02381 9.05476 1.78177 9.35333 1.78177H10.4345V0.700581C10.4345 0.284431 10.885 0.0243372 11.2454 0.232412C11.4127 0.328981 11.5157 0.507443 11.5157 0.700581V1.78177H12.5969C13.013 1.78177 13.2731 2.23227 13.0651 2.59266C12.9685 2.75992 12.79 2.86296 12.5969 2.86296H11.5157V3.94415C11.5157 4.3603 11.0652 4.62039 10.7048 4.41232C10.5376 4.31576 10.4345 4.13729 10.4345 3.94415V2.86296H9.35333C9.05475 2.86297 8.81273 2.62094 8.81273 2.32237ZM15.8405 5.56594C15.8405 5.86449 15.5984 6.10652 15.2999 6.10653H14.7593V6.64712C14.7593 7.06327 14.3088 7.32337 13.9484 7.11529C13.7811 7.01872 13.6781 6.84026 13.6781 6.64712V6.10653H13.1375C12.7213 6.10655 12.4613 5.65607 12.6693 5.29566C12.7659 5.12839 12.9443 5.02534 13.1375 5.02534H13.6781V4.48474C13.6781 4.06859 14.1286 3.8085 14.489 4.01657C14.6562 4.11314 14.7593 4.29161 14.7593 4.48474V5.02534H15.2999C15.5984 5.02534 15.8405 5.26737 15.8405 5.56594Z" fill="white"/>
</g>
<defs>
<clipPath id="clip0_583_17150">
<rect width="16" height="16" fill="white"/>
</clipPath>
</defs>
</svg>
