<svg width="24" height="24" viewBox="0 0 24 24" fill="none" xmlns="http://www.w3.org/2000/svg">
<path d="M3.18337 8.25139C2.63952 7.70754 2.33398 6.96991 2.33398 6.20078C2.33398 5.43165 2.63952 4.69403 3.18337 4.15017C3.72723 3.60632 4.46486 3.30078 5.23398 3.30078C6.00311 3.30078 6.74074 3.60632 7.28459 4.15017C7.82845 4.69403 8.13398 5.43165 8.13398 6.20078C8.13398 6.96991 7.82845 7.70754 7.28459 8.25139C6.74074 8.79525 6.00311 9.10078 5.23398 9.10078C4.46486 9.10078 3.72723 8.79525 3.18337 8.25139Z" stroke="white" stroke-width="1.5" stroke-linecap="round" stroke-linejoin="round"/>
<path d="M12 6.19922H16.8333C17.3461 6.19922 17.8378 6.40291 18.2004 6.76548C18.563 7.12805 18.7667 7.6198 18.7667 8.13255V14.8992" stroke="white" stroke-width="1.5" stroke-linecap="round" stroke-linejoin="round"/>
<path d="M14.9 9.10078L12 6.20078L14.9 3.30078" stroke="white" stroke-width="1.5" stroke-linecap="round" stroke-linejoin="round"/>
<path d="M16.7166 19.851C16.1727 19.3071 15.8672 18.5695 15.8672 17.8004C15.8672 17.0313 16.1727 16.2936 16.7166 15.7498C17.2604 15.2059 17.9981 14.9004 18.7672 14.9004C19.5363 14.9004 20.2739 15.2059 20.8178 15.7498C21.3617 16.2936 21.6672 17.0313 21.6672 17.8004C21.6672 18.5695 21.3617 19.3071 20.8178 19.851C20.2739 20.3949 19.5363 20.7004 18.7672 20.7004C17.9981 20.7004 17.2604 20.3949 16.7166 19.851Z" stroke="white" stroke-width="1.5" stroke-linecap="round" stroke-linejoin="round"/>
<path d="M11.9991 17.7996H7.16576C6.653 17.7996 6.16125 17.5959 5.79868 17.2333C5.43611 16.8708 5.23242 16.379 5.23242 15.8663V9.09961" stroke="white" stroke-width="1.5" stroke-linecap="round" stroke-linejoin="round"/>
<path d="M9.09961 14.9004L11.9996 17.8004L9.09961 20.7004" stroke="white" stroke-width="1.5" stroke-linecap="round" stroke-linejoin="round"/>
</svg>
