<svg width="24" height="24" viewBox="0 0 24 24" fill="none" xmlns="http://www.w3.org/2000/svg">
<path d="M10.0664 11.0332H10.0761" stroke="white" stroke-width="1.5" stroke-linecap="round" stroke-linejoin="round"/>
<path d="M13.9336 6.19922H13.9433" stroke="white" stroke-width="1.5" stroke-linecap="round" stroke-linejoin="round"/>
<path d="M17.8008 6.19922H17.8104" stroke="white" stroke-width="1.5" stroke-linecap="round" stroke-linejoin="round"/>
<path d="M6.68359 13.0625H6.69326" stroke="white" stroke-width="1.5" stroke-linecap="round" stroke-linejoin="round"/>
<path d="M15.8664 16.834C17.7997 16.834 21.6664 13.934 21.6664 5.23398C21.6664 3.30065 19.7331 2.33398 15.8664 2.33398C11.9997 2.33398 10.0664 3.30065 10.0664 5.23398C10.0664 13.934 13.9331 16.834 15.8664 16.834Z" stroke="white" stroke-width="1.5" stroke-linecap="round" stroke-linejoin="round"/>
<path d="M17.2203 9.9707C16.447 10.744 15.287 10.744 14.5137 9.9707" stroke="white" stroke-width="1.5" stroke-linecap="round" stroke-linejoin="round"/>
<path d="M10.1633 7.26367C9.10001 7.36034 7.84334 7.84367 6.20001 8.71367C2.81667 10.647 1.65667 12.4837 2.62334 14.127C6.97334 21.667 11.8067 22.247 13.45 21.2803C14.32 20.797 15.2867 19.2503 15.2867 16.737" stroke="white" stroke-width="1.5" stroke-linecap="round" stroke-linejoin="round"/>
<path d="M9.19727 16.3496C9.48727 15.2863 10.5506 14.7063 11.5173 14.9963" stroke="white" stroke-width="1.5" stroke-linecap="round" stroke-linejoin="round"/>
</svg>
