<svg width="617" height="656" viewBox="0 0 617 656" fill="none" xmlns="http://www.w3.org/2000/svg">
<mask id="mask0_254_514" style="mask-type:alpha" maskUnits="userSpaceOnUse" x="0" y="22" width="581" height="634">
<path d="M558.508 481.97C558.975 477.745 560.235 473.327 562.001 470.268C562.771 468.935 563.81 467.604 565.39 465.713C565.538 465.537 565.692 465.353 565.852 465.162L565.922 465.079C567.301 463.438 569.113 461.282 570.688 458.922C576.923 449.582 581.317 439.073 580.448 426.443C579.944 419.101 578.083 409.391 570.922 402.203C565.453 396.715 557.695 393.529 552.892 391.557L552.881 391.551C552.364 391.34 551.881 391.141 551.439 390.955C544.97 388.238 539.945 385.314 535.963 381.122C532.021 376.975 530.234 371.792 531.656 365.397C534.157 354.146 533.551 337.184 521.071 327.591C512.132 320.721 500.292 320.465 490.79 323.017C481.117 325.613 471.188 331.769 465.634 341.387C459.812 351.472 457.051 363.956 456.308 374.684C455.93 380.131 456.048 385.454 456.678 390.164C457.27 394.6 458.447 399.542 460.89 403.464C464.138 408.676 468.222 412.748 472.055 416.092C473.973 417.764 475.924 419.334 477.715 420.765L478.337 421.262C479.934 422.538 481.388 423.699 482.792 424.885C487.394 428.775 491.584 433.191 495.341 438.087C501.888 446.623 503.098 457.446 497.975 470.491C486.873 489.919 482.616 506.182 483.085 520.979C483.557 535.831 488.78 547.981 494.129 558.713C496.075 562.617 499.372 566.255 502.675 569.204C503.835 570.238 505.076 571.26 506.384 572.251L517.098 553.694C516.988 553.599 516.88 553.503 516.773 553.407C514.382 551.274 513.309 549.733 513.077 549.268C508.07 539.223 504.568 530.445 504.246 520.308C503.928 510.288 506.707 497.705 516.694 480.407L517.059 479.775L517.334 479.099C524.851 460.596 524.428 441.222 512.138 425.201C507.493 419.146 502.26 413.619 496.457 408.715C494.812 407.325 493.115 405.97 491.545 404.717L490.934 404.228C489.147 402.799 487.512 401.48 485.97 400.135C482.883 397.443 480.537 394.959 478.86 392.269C478.861 392.272 478.862 392.273 478.862 392.271L478.86 392.269L478.859 392.266C478.833 392.214 478.641 391.845 478.396 391.016C478.129 390.11 477.867 388.892 477.663 387.361C477.252 384.289 477.132 380.417 477.428 376.147C478.032 367.437 480.265 358.389 483.969 351.973C486.08 348.317 490.658 344.973 496.278 343.464C502.068 341.91 506.305 342.945 508.169 344.377C510.774 346.379 512.856 352.407 510.99 360.801C507.942 374.505 512.129 386.776 520.616 395.707C527.452 402.899 535.478 407.214 543.24 410.474L543.919 410.76C549.833 413.242 553.615 414.829 555.924 417.147C557.611 418.84 558.932 422.15 559.327 427.895C559.766 434.282 557.754 440.165 553.078 447.17C552.195 448.494 551.176 449.71 549.713 451.457C549.531 451.675 549.341 451.902 549.144 452.138C547.529 454.071 545.434 456.62 543.666 459.683C539.92 466.17 538.017 473.929 537.391 480.364C536.493 489.588 540.568 498.483 544.184 503.807C544.491 504.259 544.787 504.736 545.076 505.235L558.508 481.97Z" fill="#2E3120"/>
<path d="M493.295 594.923C491.905 593.21 490.403 591.178 488.721 588.746C484.716 582.952 479.189 575.685 472.323 569.735C465.499 563.82 456.436 558.415 445.482 558.09C427.579 557.559 411.095 568.17 400.582 581.584C393.424 590.717 388.16 602.269 387.234 614.34L410.754 627.92C409.993 626.915 409.528 626.059 409.329 625.411C406.49 616.15 409.498 604.528 417.245 594.643C425.022 584.72 435.678 578.979 444.854 579.252C449.018 579.376 453.551 581.481 458.457 585.733C463.321 589.949 467.657 595.506 471.306 600.784C474.757 605.779 478.223 610.307 482.202 614.136L493.295 594.923Z" fill="#2E3120"/>
<path d="M464.453 644.878C459.85 643.64 455.432 643.234 451.465 643.049C449.124 642.939 447.068 642.896 445.181 642.855C441.644 642.78 438.701 642.717 435.591 642.259L458.372 655.412L464.453 644.878Z" fill="#2E3120"/>
<path d="M352.701 594.402L352.5 592.459L349.815 592.736L352.701 594.402Z" fill="#2E3120"/>
<path d="M278.02 551.285C278.05 550.557 278.09 549.826 278.137 549.093C278.897 537.168 272.541 528.439 265.622 522.802C258.828 517.267 250.514 513.799 244.08 511.783C239.316 510.29 233.963 510.068 229.752 509.991C228.263 509.963 226.877 509.954 225.56 509.944L225.548 509.945L225.543 509.944C222.618 509.924 220.027 509.906 217.385 509.702C213.62 509.41 211.438 508.812 210.238 508.156C209.553 507.781 209.14 507.443 208.823 506.143C206.363 496.053 206.167 485.05 209.724 478.393C210.797 476.381 212.263 474.531 214.425 472.004C214.644 471.747 214.873 471.48 215.112 471.204L215.118 471.196C217.034 468.973 219.514 466.092 221.621 462.784C226.721 454.781 229.771 446.298 231.931 437.964L234.588 427.718L214.094 422.404L211.437 432.651C209.606 439.715 207.269 445.91 203.767 451.407C202.525 453.357 201.067 455.057 199.033 457.43L199.026 457.437C198.804 457.696 198.574 457.964 198.337 458.241C196.115 460.839 193.302 464.199 191.047 468.42C186.127 477.635 185.287 488.552 186.12 498.227L278.02 551.285Z" fill="#2E3120"/>
<path d="M130.411 466.063C132.288 462.138 133.61 457.996 134.471 454.001C136.248 445.753 136.371 436.707 134.318 429.044C133.374 425.523 131.91 421.344 130.646 417.741C129.968 415.807 129.348 414.037 128.898 412.625C127.333 407.713 126.526 403.745 126.75 400.01C126.849 398.361 127.541 396.567 129.501 393.169C129.732 392.769 129.994 392.327 130.28 391.844C132.018 388.917 134.611 384.547 135.988 379.732C137.663 373.878 137.772 366.714 136.871 360.32C135.989 354.075 133.874 346.647 129.469 341.182C124.496 335.014 116.935 332.399 110.987 331.36C104.802 330.279 98.1017 330.493 92.6906 331.943C88.3001 333.119 83.3328 334.954 78.9821 336.562C76.8746 337.341 74.9119 338.066 73.2293 338.637C67.2483 340.667 62.4608 341.725 58.1243 341.418C49.9946 340.841 45.5671 339.363 42.2268 337.22C39.892 335.72 37.6188 333.602 34.9238 330.281L23.8306 349.495C25.9752 351.557 28.2686 353.417 30.79 355.035C38.1892 359.786 46.5017 361.818 56.6266 362.536C65.277 363.149 73.3279 360.961 80.0334 358.685C82.9775 357.686 85.4957 356.747 87.8219 355.879C91.4453 354.526 94.6013 353.349 98.1702 352.393C100.267 351.831 103.826 351.601 107.343 352.215C111.098 352.871 112.682 354.092 112.987 354.47C113.934 355.645 115.26 358.696 115.907 363.278C116.532 367.713 116.258 371.725 115.633 373.909C115.064 375.899 114.071 377.599 112.332 380.577L112.332 380.578C111.974 381.191 111.585 381.857 111.162 382.591C109.01 386.321 106.034 391.802 105.617 398.741C105.16 406.353 106.881 413.262 108.726 419.053C109.626 421.878 110.436 424.147 111.176 426.223C112.18 429.04 113.058 431.504 113.867 434.523C114.88 438.305 114.997 443.87 113.774 449.543C113.309 451.7 112.696 453.673 111.98 455.422L130.411 466.063Z" fill="#2E3120"/>
<path d="M51.4629 420.483C50.7144 419.281 49.9544 418.089 49.1824 416.919C40.6156 403.944 30.5445 392.713 16.0684 384.356C12.7099 382.416 9.34914 381.117 6.08144 380.237L-7.62939e-06 390.771L51.4629 420.483Z" fill="#2E3120"/>
<path d="M48.013 307.61C50.6135 309.582 53.4762 311.435 56.4716 313.028C60.9229 315.396 66.0884 317.414 71.4316 318.157C76.7838 318.901 83.1072 318.451 88.7855 314.821C100.658 307.231 105.474 297.761 110.405 288.064L110.423 288.029C117.86 273.405 117.085 260.567 112.34 247.353C112.161 246.855 111.975 246.33 111.78 245.782L111.78 245.781C109.901 240.488 107.276 233.087 103.328 227.273C101.114 224.013 99.865 220.094 100.091 217.774C100.105 217.626 100.121 217.478 100.137 217.329L86.7046 240.594C88.611 243.896 90.159 248.215 92.0113 253.383L92.0186 253.403C92.1487 253.768 92.2808 254.136 92.4149 254.508C95.6343 263.474 95.8007 270.077 91.5519 278.432C86.6261 288.118 83.9717 292.771 77.382 296.983C77.2623 297.06 76.499 297.487 74.3476 297.187C72.1867 296.887 69.4306 295.941 66.4128 294.337C63.5881 292.834 60.9029 290.949 58.7267 289.053L48.013 307.61Z" fill="#2E3120"/>
<path d="M366.52 166.878C368.881 166.763 372.671 168.512 377.461 172.935C385.668 180.514 387.197 187.971 384.843 193.248C382.509 198.486 379.573 203.473 376.27 209.085L375.943 209.64C372.617 215.293 368.937 221.59 366.038 228.476C361.695 238.792 355.432 255.172 367.845 271.284C370.64 274.913 375.154 278.91 379.553 282.079C383.75 285.104 389.541 288.62 395.081 289.759C406.124 292.026 414.753 286.913 420.436 282.07C423.299 279.631 425.804 276.94 427.839 274.679C428.454 273.994 429.01 273.371 429.519 272.797C430.859 271.292 431.893 270.13 432.922 269.111C437.992 264.087 446.034 257.401 453.827 254.462C457.603 253.036 460.501 252.807 462.64 253.294C464.482 253.713 466.871 254.902 469.447 258.759C473.643 265.044 474.066 272.161 471.703 279.292C469.269 286.639 464.001 293.408 457.967 297.611C439.257 310.642 413.455 308.47 385.631 299.143C374.186 295.308 363.346 290.601 352.046 285.694L352.045 285.694C346.592 283.326 341.032 280.912 335.245 278.527C326.139 274.773 315.352 270.596 304.354 268.339C293.38 266.086 281.184 265.521 269.693 270.01C261.419 273.244 255.03 278.979 251.998 287.171C249.093 295.023 249.832 303.626 252.473 311.849C255.055 319.889 261.492 326.79 268.065 332.299C274.929 338.051 283.366 343.445 291.924 348.186C308.969 357.628 327.881 365.23 338.844 368.244C354.228 372.475 398.741 387.016 412.964 393.209L422.669 397.434L431.121 378.024L421.416 373.798C405.863 367.026 360.254 352.176 344.458 347.831C335.392 345.337 318.036 338.449 302.182 329.666C294.288 325.294 287.117 320.642 281.664 316.072C275.919 311.258 273.331 307.558 272.63 305.377C270.866 299.882 271.142 296.443 271.855 294.518C272.441 292.932 273.753 291.154 277.398 289.73C283.578 287.315 291.176 287.246 300.096 289.078C308.992 290.904 318.203 294.402 327.177 298.1C332.174 300.16 337.316 302.39 342.561 304.666L342.564 304.667L342.565 304.668C354.318 309.767 366.588 315.09 378.903 319.217C407.948 328.952 442.574 334.132 470.067 314.983C479.676 308.291 487.861 297.84 491.801 285.949C495.812 273.841 495.53 259.698 487.054 247.004C481.897 239.279 475.166 234.434 467.341 232.651C459.811 230.936 452.496 232.335 446.354 234.653C434.309 239.197 423.696 248.449 418.02 254.072C416.475 255.603 414.799 257.489 413.326 259.144L413.321 259.15C412.895 259.63 412.485 260.09 412.1 260.517C410.193 262.638 408.455 264.465 406.705 265.956C403.159 268.976 401.075 269.377 399.341 269.019C398.396 268.826 395.632 267.571 391.929 264.903C388.426 262.378 385.691 259.759 384.616 258.363C380.169 252.591 381.165 247.106 385.55 236.691C387.826 231.286 390.803 226.132 394.19 220.376L394.71 219.494C397.856 214.151 401.345 208.229 404.18 201.87C411.757 184.877 403.452 168.119 391.825 157.382C386.473 152.439 377.043 145.17 365.49 145.732C353.134 146.334 342.648 152.004 335.043 159.158C324.132 169.423 314.442 179.789 304.807 190.932C299.598 196.956 294.163 202.904 288.606 208.546C288.254 208.904 287.869 209.309 287.532 209.662L287.336 209.868C286.926 210.297 286.54 210.698 286.147 211.09C285.798 211.44 285.468 211.756 285.16 212.038L285.151 212.004C284.525 209.781 284.511 206.872 284.781 204.914C285.759 197.839 288.458 191.145 291.749 182.985C292.12 182.064 292.5 181.124 292.885 180.163C296.459 171.237 300.462 160.587 300.552 148.615C300.632 138.04 297.558 123.147 283.4 114.973C274.279 109.708 264.458 110.503 256.817 112.783C249.15 115.072 242.336 119.208 237.654 122.785C220.909 135.576 211.622 154.767 204.057 170.398L204.057 170.399C203.622 171.299 203.191 172.187 202.766 173.061C193.538 192.039 190.257 213.578 187.346 232.687L187.346 232.689C187.1 234.304 186.857 235.901 186.612 237.479L184.993 247.94L205.915 251.178L207.534 240.717C207.752 239.312 207.966 237.914 208.18 236.522C211.222 216.702 214.05 198.269 221.806 182.32L222.376 181.148C230.588 164.25 237.874 149.259 250.506 139.609C253.818 137.079 258.355 134.418 262.871 133.071C267.415 131.714 270.609 132.035 272.815 133.308C277.287 135.891 279.437 141.103 279.381 148.455C279.323 156.038 276.8 163.378 273.231 172.293C272.862 173.213 272.478 174.156 272.087 175.122C268.918 182.929 265.171 192.161 263.809 202.015C263.267 205.939 263.138 211.934 264.771 217.74C266.413 223.573 270.562 231.286 279.944 233.866C287.529 235.952 293.727 232.178 296.766 229.896C299.441 227.889 301.955 225.231 303.163 223.954C303.387 223.718 303.566 223.529 303.693 223.4C309.617 217.383 315.362 211.093 320.821 204.779C330.097 194.051 339.284 184.237 349.551 174.578C354.276 170.132 360.18 167.187 366.52 166.878Z" fill="#2E3120"/>
<path d="M518.643 190.57L535.509 177.773L541.907 186.206C563.371 214.492 576.599 259.442 549.917 293.837L543.428 302.201L526.701 289.225L533.189 280.861C551.216 257.623 544.013 224.005 525.041 199.003L518.643 190.57Z" fill="#2E3120"/>
<path fill-rule="evenodd" clip-rule="evenodd" d="M376.966 441.459L377.22 441.573C396.634 450.31 409.415 456.063 417.523 471.587C419.983 476.298 420.77 482.661 419.766 489.947C418.77 497.168 416.119 504.425 412.81 510.157C407.552 519.264 396.224 526.139 384.592 528.317C374.608 530.185 367.011 530.276 361.402 528.334C356.534 526.649 351.973 523.029 348.663 514.098C348.275 513.054 347.892 512.037 347.516 511.043C345.432 505.517 343.615 500.701 343.031 496.067C342.436 491.337 343.363 488.866 345.953 486.827C348.625 484.725 353.346 482.961 359.047 482.505C364.734 482.05 369.812 483.026 372.946 484.688C375.479 486.034 377.96 487.678 379.623 489.368C380.713 490.475 380.988 491.105 381.047 491.295L380.42 501.744L401.553 503.013L402.187 492.446C402.669 484.42 398.454 478.317 394.711 474.515C390.894 470.638 386.293 467.805 382.87 465.988C375.22 461.928 365.835 460.723 357.36 461.4C348.9 462.077 339.763 464.758 332.862 470.189C322.521 478.325 320.853 489.396 322.025 498.712C322.955 506.089 325.84 513.649 327.89 519.02L327.89 519.023C328.223 519.896 328.535 520.71 328.812 521.458C334.014 535.488 342.831 544.309 354.476 548.341C365.379 552.116 377.426 551.197 388.487 549.127C404.495 546.13 422.026 536.537 431.145 520.743C435.732 512.796 439.345 502.944 440.739 492.839C442.124 482.799 441.426 471.62 436.289 461.785C424.74 439.673 405.76 431.166 387.986 423.198L386.441 422.505C386.178 422.388 385.917 422.27 385.656 422.152C366.684 413.613 347.58 410.487 326.598 414.443C309.865 417.597 293.604 421.851 278.595 434.723L270.56 441.614L284.342 457.685L292.377 450.794C303.015 441.671 314.676 438.234 330.52 435.248C346.698 432.198 361.407 434.456 376.966 441.459ZM381.062 491.358C381.061 491.358 381.058 491.347 381.056 491.327C381.062 491.347 381.062 491.357 381.062 491.358Z" fill="#2E3120"/>
<path d="M153.236 256.395L162.403 261.687C184.714 274.569 193.073 297.171 192.378 319.927C192.105 328.858 190.25 337.99 188.234 346.558C187.565 349.401 186.888 352.15 186.224 354.845C184.801 360.619 183.441 366.143 182.36 371.797C179.221 388.208 179.465 401.177 187.424 411.857L193.749 420.345L176.774 432.996L170.449 424.508C156.95 406.396 158.147 385.694 161.565 367.82C162.753 361.605 164.336 355.177 165.823 349.137L165.824 349.131L165.825 349.129L165.826 349.128L165.828 349.116C166.457 346.563 167.069 344.079 167.626 341.71C169.588 333.365 171.012 325.966 171.216 319.28C171.741 302.089 165.645 288.005 151.818 280.022L142.65 274.729L153.236 256.395Z" fill="#2E3120"/>
<path fill-rule="evenodd" clip-rule="evenodd" d="M364.646 92.4861C360.547 76.0177 355.47 57.5965 340.242 42.9025C332.905 35.8223 322.654 26.0399 308.445 23.2992C295.162 20.737 283.999 24.4275 274.664 29.6292C270.078 32.1845 265.796 35.1786 261.884 38.0329C260.56 38.9985 259.305 39.9276 258.088 40.8292L258.086 40.8304L258.084 40.8319L258.082 40.8333L258.08 40.8352L258.071 40.8418C255.53 42.7238 253.151 44.4858 250.647 46.2086C244.3 50.5767 235.443 58.4713 236.681 71.8553C237.19 77.355 240.039 82.1439 242.941 85.4648C245.863 88.8079 250.134 92.1505 255.248 93.5078C262.832 95.521 272.121 94.0393 277.198 92.9342C280.966 92.1135 284.154 90.2629 285.89 89.2555L286.066 89.153L286.211 89.0693C288.375 87.8206 288.984 87.5634 289.388 87.4715C291.12 87.0804 292.508 87.3754 294.551 89.2554C296.971 91.4829 299.283 95.1549 301.5 99.6483C301.853 100.361 302.207 101.212 302.758 102.527L302.881 102.82C303.44 104.154 304.17 105.885 305.052 107.607C306.688 110.797 309.742 115.827 315.507 118.522C323.872 122.432 334.62 123.462 343.654 121C348.475 119.687 353.951 116.765 358.139 112.64C362.258 108.581 366.872 101.432 364.646 92.4861ZM325.542 58.138C335.808 68.0443 339.857 80.6566 343.912 96.8423C343.77 97.0341 343.565 97.2774 343.279 97.5586C342.632 98.1979 341.743 98.8633 340.716 99.4439C339.683 100.028 338.738 100.397 338.088 100.574C334.141 101.65 328.753 101.213 324.839 99.5073C324.689 99.3195 324.363 98.866 323.894 97.9496C323.424 97.0355 322.974 95.9907 322.409 94.6431L322.247 94.2549C321.766 93.1015 321.149 91.6247 320.487 90.2817C317.992 85.2253 314.284 78.6433 308.887 73.6769C303.113 68.3634 294.887 64.5243 284.722 66.8214C280.887 67.6875 277.693 69.5373 275.907 70.5718C275.812 70.6269 275.721 70.6795 275.634 70.7295C274.592 71.3306 273.975 71.681 273.406 71.9553C272.894 72.2022 272.693 72.2479 272.693 72.2479C267.947 73.2812 263.065 73.6487 260.741 73.0612C260.7 73.0427 260.531 72.9658 260.25 72.7732C259.832 72.4862 259.345 72.062 258.882 71.5332C258.418 71.0015 258.087 70.4902 257.891 70.0934C257.812 69.9341 257.771 69.8246 257.751 69.7678C257.683 68.7927 257.895 68.1959 258.367 67.4966C259.038 66.5028 260.325 65.2486 262.649 63.6495C265.46 61.7145 268.335 59.5865 271.029 57.5921L271.032 57.5897C272.182 56.7387 273.298 55.9122 274.362 55.136C278.101 52.4081 281.543 50.0323 284.969 48.1234C291.657 44.3969 297.67 42.7823 304.435 44.0872C311.651 45.4792 317.727 50.5969 325.542 58.138Z" fill="#2E3120"/>
<path d="M231.85 321.904L232.276 332.48C232.99 350.183 238.148 364.089 248.013 380.339C249.895 383.442 253.915 386.299 258.749 387.696L268.919 390.637L263.038 410.975L252.869 408.034C244.454 405.602 235.278 400.159 229.916 391.325C218.727 372.895 212.017 355.527 211.122 333.334L210.696 322.756L231.85 321.904Z" fill="#2E3120"/>
<path d="M447.993 111.496C441.362 104.519 436.567 99.7689 429.75 96.3502C426.368 94.6541 422.328 93.6395 417.407 92.9303C414.961 92.5778 412.436 92.318 409.729 92.0561C409.347 92.0191 408.96 91.9816 408.568 91.9442C406.261 91.7229 403.802 91.4865 401.399 91.19L390.894 89.8935L393.487 68.8817L403.993 70.1781C406.088 70.437 408.222 70.6421 410.542 70.8648C410.945 70.9034 411.354 70.9426 411.769 70.9829C414.5 71.2474 417.451 71.5469 420.427 71.9757C426.349 72.8289 432.939 74.2653 439.24 77.425C449.732 82.6869 456.778 90.007 463.34 96.9121C471.425 105.421 477.586 113.81 483.373 123.89C485.774 128.074 488.016 131.682 490.439 134.414L497.462 142.335L481.622 156.381L474.599 148.461C470.608 143.96 467.45 138.678 465.011 134.43C460.021 125.737 454.857 118.72 447.993 111.496Z" fill="#2E3120"/>
</mask>
<g mask="url(#mask0_254_514)">
<circle cx="354.5" cy="298.899" r="261.5" fill="black"/>
</g>
</svg>
