<svg width="312" height="312" viewBox="0 0 312 312" fill="none" xmlns="http://www.w3.org/2000/svg">
<path d="M165.235 1.77614C158.163 -0.592048 153.837 -0.592048 146.765 1.77614C129.515 7.55337 130.264 44.114 135.594 80.1857C122.098 46.3118 104.394 14.3152 86.5743 17.9772C79.2698 19.4783 75.5274 21.6502 70.6004 27.2478C58.7512 40.7095 77.047 71.2661 99.3321 99.4563C71.0929 77.2332 40.4962 59.0046 27.0606 70.8833C21.4738 75.8226 19.3101 79.5697 17.8251 86.8775C14.2269 104.584 45.8033 122.099 79.4492 135.486C43.6178 130.254 7.51405 129.633 1.77614 146.765C-0.592048 153.837 -0.592048 158.163 1.77614 165.235C7.51405 182.367 43.6178 181.746 79.4492 176.514C45.8032 189.901 14.2267 207.416 17.8249 225.123C19.31 232.43 21.4737 236.177 27.0604 241.117C40.496 252.995 71.0922 234.767 99.3311 212.544C77.0463 240.734 58.7509 271.291 70.5999 284.752C75.527 290.35 79.2693 292.522 86.5738 294.023C104.393 297.685 122.098 265.687 135.594 231.812C130.264 267.885 129.515 304.447 146.765 310.224C153.837 312.592 158.163 312.592 165.235 310.224C182.485 304.446 181.736 267.883 176.405 231.81C189.901 265.686 207.607 297.685 225.427 294.023C232.731 292.522 236.474 290.35 241.401 284.752C253.25 271.291 234.954 240.734 212.669 212.544C240.908 234.767 271.505 252.995 284.94 241.117C290.527 236.177 292.691 232.43 294.176 225.123C297.774 207.417 266.197 189.901 232.552 176.514C268.383 181.746 304.486 182.367 310.224 165.235C312.592 158.163 312.592 153.837 310.224 146.765C304.486 129.633 268.383 130.254 232.552 135.486C266.197 122.099 297.774 104.583 294.175 86.8775C292.69 79.5697 290.527 75.8226 284.94 70.8833C271.504 59.0046 240.908 77.2332 212.668 99.4563C234.953 71.2661 253.249 40.7095 241.4 27.2478C236.473 21.6502 232.731 19.4783 225.426 17.9772C207.606 14.3151 189.902 46.3131 176.406 80.1878C181.736 44.1154 182.485 7.55347 165.235 1.77614Z" fill="#00FFEE" fill-opacity="0.29"/>
</svg>
