<svg width="724" height="724" viewBox="0 0 724 724" fill="none" xmlns="http://www.w3.org/2000/svg">
<path d="M558.508 549.571C558.975 545.346 560.235 540.928 562.001 537.869C562.771 536.536 563.81 535.205 565.39 533.314C565.538 533.138 565.692 532.954 565.852 532.763L565.922 532.68C567.301 531.039 569.113 528.883 570.688 526.523C576.923 517.183 581.317 506.674 580.448 494.044C579.944 486.702 578.083 476.992 570.922 469.804C565.453 464.316 557.695 461.13 552.892 459.158L552.881 459.152C552.364 458.941 551.881 458.742 551.439 458.556C544.97 455.839 539.945 452.915 535.963 448.723C532.021 444.576 530.234 439.393 531.656 432.998C534.157 421.747 533.551 404.785 521.071 395.192C512.132 388.322 500.292 388.066 490.79 390.618C481.117 393.214 471.188 399.37 465.634 408.988C459.812 419.073 457.051 431.557 456.308 442.285C455.93 447.733 456.048 453.056 456.678 457.765C457.27 462.201 458.447 467.143 460.89 471.065C464.138 476.277 468.222 480.349 472.055 483.693C473.973 485.365 475.924 486.935 477.715 488.366L478.337 488.863C479.934 490.139 481.388 491.3 482.792 492.487C487.394 496.376 491.584 500.792 495.341 505.688C501.888 514.224 503.098 525.048 497.975 538.092C486.873 557.52 482.616 573.783 483.085 588.58C483.557 603.433 488.78 615.583 494.129 626.314C496.075 630.218 499.372 633.856 502.675 636.805C503.835 637.839 505.076 638.861 506.384 639.852L517.098 621.295C516.988 621.2 516.88 621.104 516.773 621.008C514.382 618.875 513.309 617.334 513.077 616.869C508.07 606.824 504.568 598.046 504.246 587.909C503.928 577.889 506.707 565.306 516.694 548.009L517.059 547.376L517.334 546.7C524.851 528.197 524.428 508.824 512.138 492.802C507.493 486.747 502.26 481.22 496.457 476.316C494.812 474.926 493.115 473.571 491.545 472.318L490.934 471.829C489.147 470.4 487.512 469.081 485.97 467.736C482.883 465.044 480.537 462.56 478.86 459.87C478.861 459.873 478.862 459.874 478.862 459.872L478.86 459.87L478.859 459.867C478.833 459.815 478.641 459.446 478.396 458.617C478.129 457.711 477.867 456.493 477.663 454.962C477.252 451.89 477.132 448.018 477.428 443.748C478.032 435.038 480.265 425.99 483.969 419.574C486.08 415.918 490.658 412.574 496.278 411.065C502.068 409.511 506.305 410.546 508.169 411.978C510.774 413.98 512.856 420.008 510.99 428.403C507.942 442.106 512.129 454.377 520.616 463.308C527.452 470.5 535.478 474.815 543.24 478.076L543.919 478.361C549.833 480.843 553.616 482.43 555.924 484.748C557.611 486.441 558.932 489.751 559.327 495.496C559.766 501.883 557.754 507.766 553.078 514.771C552.195 516.095 551.176 517.311 549.713 519.058C549.531 519.276 549.341 519.503 549.144 519.739C547.529 521.672 545.434 524.221 543.666 527.284C539.92 533.771 538.017 541.53 537.391 547.966C536.493 557.189 540.568 566.084 544.184 571.408C544.491 571.86 544.787 572.337 545.076 572.836L558.508 549.571Z" fill="#2E3120"/>
<path d="M493.295 662.524C491.905 660.811 490.403 658.779 488.721 656.347C484.716 650.553 479.189 643.286 472.324 637.336C465.499 631.421 456.436 626.016 445.482 625.691C427.579 625.16 411.095 635.771 400.582 649.185C393.424 658.318 388.16 669.87 387.234 681.941L410.754 695.521C409.993 694.517 409.528 693.66 409.329 693.012C406.49 683.751 409.499 672.129 417.246 662.244C425.023 652.321 435.678 646.58 444.854 646.853C449.018 646.977 453.551 649.082 458.457 653.334C463.322 657.55 467.658 663.107 471.306 668.385C474.758 673.38 478.223 677.908 482.202 681.737L493.295 662.524Z" fill="#2E3120"/>
<path d="M464.453 712.479C459.85 711.241 455.432 710.835 451.465 710.65C449.124 710.54 447.067 710.497 445.18 710.456C441.644 710.381 438.701 710.318 435.591 709.86L458.372 723.013L464.453 712.479Z" fill="#2E3120"/>
<path d="M352.701 662.003L352.5 660.06L349.815 660.337L352.701 662.003Z" fill="#2E3120"/>
<path d="M278.02 618.887C278.05 618.158 278.09 617.427 278.137 616.694C278.897 604.769 272.541 596.04 265.622 590.403C258.828 584.868 250.514 581.4 244.08 579.385C239.316 577.892 233.963 577.669 229.752 577.592C228.263 577.564 226.877 577.555 225.56 577.545L225.548 577.546L225.543 577.545C222.618 577.525 220.027 577.507 217.385 577.303C213.62 577.011 211.438 576.413 210.238 575.757C209.553 575.382 209.14 575.045 208.823 573.745C206.363 563.654 206.167 552.651 209.724 545.994C210.797 543.983 212.263 542.132 214.425 539.605C214.644 539.348 214.873 539.082 215.112 538.805L215.118 538.797C217.034 536.574 219.514 533.693 221.621 530.385C226.721 522.382 229.771 513.899 231.931 505.565L234.588 495.319L214.094 490.005L211.437 500.252C209.606 507.316 207.269 513.511 203.767 519.008C202.525 520.958 201.067 522.658 199.033 525.031L199.026 525.038C198.804 525.297 198.574 525.565 198.337 525.842C196.115 528.44 193.302 531.8 191.047 536.021C186.127 545.236 185.287 556.153 186.12 565.828L278.02 618.887Z" fill="#2E3120"/>
<path d="M130.41 533.664C132.288 529.739 133.61 525.597 134.47 521.602C136.247 513.354 136.371 504.308 134.317 496.645C133.374 493.124 131.909 488.945 130.646 485.342C129.968 483.408 129.348 481.639 128.898 480.226C127.332 475.314 126.526 471.347 126.75 467.611C126.849 465.962 127.541 464.169 129.501 460.77C129.731 460.37 129.994 459.928 130.28 459.445C132.018 456.519 134.61 452.148 135.987 447.333C137.663 441.48 137.772 434.315 136.87 427.921C135.988 421.676 133.874 414.248 129.469 408.783C124.495 402.615 116.934 400 110.987 398.961C104.802 397.88 98.1015 398.094 92.6903 399.544C88.2998 400.72 83.3325 402.556 78.9819 404.163C76.8743 404.942 74.9116 405.667 73.229 406.238C67.2481 408.268 62.4605 409.327 58.124 409.019C49.9944 408.443 45.5668 406.964 42.2266 404.821C39.8918 403.321 37.6186 401.203 34.9236 397.882L23.8304 417.096C25.975 419.158 28.2683 421.018 30.7898 422.636C38.1889 427.387 46.5014 429.419 56.6263 430.137C65.2767 430.75 73.3277 428.562 80.0332 426.287C82.9772 425.287 85.4955 424.348 87.8216 423.48C91.445 422.127 94.601 420.95 98.17 419.994C100.267 419.432 103.826 419.202 107.343 419.816C111.098 420.472 112.681 421.693 112.986 422.071C113.934 423.246 115.26 426.298 115.907 430.879C116.532 435.315 116.258 439.327 115.633 441.51C115.064 443.5 114.071 445.2 112.332 448.178L112.332 448.179C111.974 448.792 111.585 449.458 111.162 450.192C109.01 453.922 106.033 459.403 105.617 466.342C105.16 473.954 106.881 480.863 108.726 486.654C109.626 489.479 110.436 491.748 111.176 493.825C112.18 496.641 113.058 499.105 113.867 502.124C114.88 505.906 114.997 511.471 113.773 517.144C113.309 519.301 112.696 521.274 111.979 523.023L130.41 533.664Z" fill="#2E3120"/>
<path d="M51.4629 488.084C50.7144 486.882 49.9544 485.69 49.1824 484.521C40.6156 471.545 30.5445 460.314 16.0684 451.957C12.7099 450.018 9.34914 448.718 6.08144 447.838L-7.58975e-06 458.372L51.4629 488.084Z" fill="#2E3120"/>
<path d="M48.0128 375.211C50.6132 377.183 53.4759 379.036 56.4713 380.629C60.9227 382.997 66.0881 385.015 71.4314 385.758C76.7835 386.502 83.1069 386.052 88.7852 382.422C100.658 374.832 105.474 365.362 110.405 355.665L110.423 355.63C117.86 341.006 117.085 328.168 112.34 314.954C112.161 314.456 111.975 313.931 111.78 313.383L111.779 313.382C109.901 308.089 107.276 300.689 103.327 294.874C101.113 291.614 99.8648 287.695 100.09 285.375C100.105 285.227 100.12 285.079 100.136 284.93L86.7044 308.195C88.6108 311.497 90.1588 315.816 92.011 320.984L92.0184 321.004C92.1485 321.369 92.2805 321.737 92.4147 322.109C95.634 331.075 95.8005 337.678 91.5516 346.033C86.6258 355.719 83.9714 360.372 77.3817 364.584C77.262 364.661 76.4987 365.088 74.3474 364.788C72.1865 364.488 69.4303 363.542 66.4126 361.938C63.5878 360.435 60.9026 358.55 58.7265 356.654L48.0128 375.211Z" fill="#2E3120"/>
<path d="M366.52 234.479C368.881 234.364 372.671 236.113 377.461 240.536C385.668 248.115 387.197 255.572 384.843 260.849C382.509 266.087 379.573 271.074 376.27 276.686L375.943 277.241C372.617 282.894 368.937 289.191 366.038 296.077C361.695 306.393 355.432 322.773 367.845 338.885C370.64 342.514 375.154 346.511 379.553 349.68C383.75 352.705 389.541 356.221 395.081 357.36C406.124 359.627 414.753 354.514 420.436 349.671C423.299 347.232 425.804 344.541 427.839 342.28C428.454 341.595 429.01 340.972 429.519 340.398C430.859 338.893 431.893 337.731 432.922 336.712C437.992 331.688 446.034 325.002 453.827 322.063C457.603 320.637 460.501 320.408 462.64 320.895C464.482 321.314 466.871 322.503 469.447 326.36C473.643 332.645 474.066 339.762 471.703 346.893C469.269 354.24 464.001 361.009 457.967 365.212C439.257 378.243 413.455 376.071 385.631 366.744C374.186 362.909 363.346 358.202 352.046 353.295L352.045 353.295C346.592 350.927 341.032 348.513 335.245 346.128C326.139 342.374 315.352 338.197 304.354 335.94C293.38 333.687 281.184 333.122 269.693 337.611C261.419 340.845 255.03 346.58 251.998 354.772C249.093 362.624 249.832 371.227 252.473 379.451C255.055 387.49 261.492 394.391 268.065 399.9C274.929 405.652 283.366 411.046 291.924 415.787C308.969 425.229 327.881 432.831 338.844 435.845C354.228 440.076 398.741 454.617 412.964 460.81L422.669 465.036L431.121 445.625L421.416 441.399C405.863 434.627 360.254 419.777 344.458 415.432C335.392 412.938 318.036 406.05 302.182 397.268C294.288 392.895 287.117 388.244 281.664 383.674C275.919 378.859 273.331 375.159 272.63 372.978C270.866 367.484 271.142 364.044 271.855 362.119C272.441 360.533 273.752 358.756 277.398 357.332C283.578 354.916 291.176 354.847 300.096 356.679C308.992 358.505 318.203 362.003 327.177 365.701C332.174 367.761 337.316 369.991 342.561 372.267L342.564 372.268L342.565 372.27C354.318 377.368 366.588 382.691 378.903 386.818C407.948 396.553 442.574 401.733 470.067 382.585C479.676 375.892 487.861 365.441 491.801 353.55C495.812 341.442 495.53 327.299 487.054 314.605C481.897 306.88 475.166 302.035 467.341 300.252C459.811 298.537 452.496 299.936 446.354 302.254C434.309 306.798 423.696 316.05 418.02 321.673C416.475 323.204 414.799 325.09 413.326 326.745L413.321 326.751C412.895 327.231 412.485 327.691 412.1 328.118C410.193 330.239 408.455 332.066 406.705 333.557C403.159 336.577 401.075 336.978 399.341 336.62C398.396 336.427 395.632 335.172 391.929 332.504C388.426 329.979 385.691 327.36 384.616 325.964C380.169 320.192 381.165 314.707 385.55 304.292C387.826 298.887 390.803 293.733 394.19 287.977L394.71 287.095C397.856 281.752 401.345 275.83 404.18 269.471C411.757 252.478 403.452 235.72 391.825 224.983C386.473 220.04 377.043 212.771 365.49 213.333C353.134 213.935 342.648 219.605 335.043 226.759C324.132 237.024 314.442 247.39 304.807 258.533C299.598 264.557 294.163 270.505 288.606 276.147C288.254 276.505 287.869 276.911 287.532 277.263L287.336 277.469C286.926 277.898 286.54 278.299 286.147 278.691C285.798 279.041 285.468 279.357 285.16 279.639L285.151 279.605C284.525 277.382 284.511 274.473 284.781 272.515C285.759 265.44 288.458 258.746 291.749 250.587C292.12 249.665 292.5 248.726 292.885 247.765C296.459 238.838 300.462 228.188 300.552 216.216C300.632 205.641 297.558 190.748 283.4 182.575C274.279 177.309 264.458 178.104 256.817 180.384C249.15 182.673 242.336 186.809 237.654 190.387C220.909 203.177 211.622 222.368 204.057 237.999L204.057 238C203.622 238.9 203.191 239.788 202.766 240.663C193.538 259.641 190.257 281.179 187.346 300.288L187.346 300.29C187.1 301.905 186.857 303.502 186.612 305.08L184.993 315.541L205.915 318.779L207.534 308.318C207.752 306.913 207.966 305.516 208.18 304.123C211.222 284.303 214.05 265.87 221.806 249.921L222.376 248.749C230.588 231.851 237.874 216.86 250.506 207.21C253.818 204.68 258.355 202.019 262.871 200.672C267.415 199.315 270.609 199.636 272.815 200.909C277.287 203.492 279.437 208.704 279.381 216.056C279.323 223.639 276.8 230.979 273.231 239.894C272.862 240.814 272.478 241.757 272.087 242.723C268.918 250.53 265.171 259.762 263.809 269.616C263.267 273.54 263.138 279.535 264.771 285.341C266.413 291.174 270.562 298.887 279.944 301.467C287.529 303.553 293.727 299.779 296.766 297.498C299.441 295.49 301.955 292.832 303.163 291.555C303.387 291.319 303.566 291.13 303.693 291.001C309.617 284.984 315.362 278.694 320.821 272.38C330.097 261.653 339.284 251.838 349.551 242.179C354.276 237.733 360.18 234.788 366.52 234.479Z" fill="#2E3120"/>
<path d="M518.643 258.171L535.509 245.374L541.907 253.807C563.371 282.093 576.599 327.043 549.917 361.438L543.428 369.802L526.701 356.826L533.189 348.462C551.216 325.224 544.013 291.606 525.041 266.604L518.643 258.171Z" fill="#2E3120"/>
<path fill-rule="evenodd" clip-rule="evenodd" d="M376.966 509.06L377.22 509.174C396.634 517.911 409.415 523.664 417.523 539.188C419.984 543.899 420.77 550.262 419.766 557.548C418.77 564.769 416.12 572.026 412.81 577.758C407.552 586.865 396.224 593.74 384.592 595.918C374.609 597.786 367.011 597.877 361.402 595.935C356.535 594.25 351.974 590.63 348.663 581.699C348.276 580.655 347.892 579.638 347.517 578.644C345.432 573.118 343.615 568.302 343.031 563.668C342.436 558.938 343.363 556.467 345.953 554.428C348.625 552.327 353.346 550.562 359.048 550.106C364.734 549.651 369.812 550.627 372.946 552.29C375.479 553.635 377.96 555.279 379.623 556.969C380.714 558.076 380.988 558.706 381.047 558.897L380.421 569.345L401.553 570.614L402.187 560.047C402.669 552.021 398.454 545.918 394.711 542.116C390.894 538.239 386.293 535.406 382.87 533.589C375.22 529.529 365.836 528.324 357.36 529.001C348.901 529.678 339.764 532.359 332.862 537.79C322.521 545.927 320.853 556.998 322.026 566.313C322.955 573.69 325.84 581.25 327.89 586.621L327.891 586.624C328.224 587.497 328.535 588.311 328.812 589.059C334.014 603.089 342.831 611.911 354.476 615.942C365.379 619.717 377.427 618.798 388.487 616.728C404.495 613.731 422.026 604.138 431.145 588.344C435.733 580.398 439.346 570.545 440.739 560.44C442.124 550.4 441.426 539.221 436.289 529.386C424.74 507.274 405.76 498.767 387.986 490.799L386.441 490.107C386.179 489.989 385.917 489.871 385.656 489.753C366.685 481.214 347.581 478.088 326.599 482.044C309.865 485.198 293.604 489.452 278.596 502.324L270.56 509.215L284.342 525.286L292.377 518.395C303.015 509.272 314.676 505.835 330.52 502.849C346.698 499.799 361.407 502.057 376.966 509.06ZM381.062 558.959C381.061 558.959 381.058 558.948 381.057 558.928C381.062 558.948 381.062 558.958 381.062 558.959Z" fill="#2E3120"/>
<path d="M153.236 323.996L162.404 329.288C184.714 342.17 193.073 364.772 192.378 387.529C192.105 396.459 190.25 405.591 188.235 414.159C187.565 417.002 186.888 419.752 186.224 422.446C184.802 428.22 183.441 433.744 182.36 439.398C179.222 455.809 179.465 468.779 187.424 479.458L193.749 487.946L176.774 500.597L170.449 492.11C156.951 473.998 158.147 453.295 161.565 435.422C162.754 429.207 164.336 422.778 165.823 416.738L165.824 416.732L165.825 416.73L165.826 416.729L165.828 416.717C166.457 414.164 167.069 411.68 167.626 409.311C169.589 400.967 171.013 393.567 171.217 386.882C171.742 369.69 165.645 355.607 151.818 347.623L142.65 342.331L153.236 323.996Z" fill="#2E3120"/>
<path fill-rule="evenodd" clip-rule="evenodd" d="M364.645 160.087C360.546 143.619 355.47 125.198 340.242 110.504C332.905 103.423 322.654 93.641 308.445 90.9002C295.162 88.338 283.999 92.0285 274.663 97.2303C270.078 99.7855 265.796 102.78 261.883 105.634C260.56 106.6 259.305 107.529 258.088 108.43L258.086 108.431L258.084 108.433L258.082 108.434L258.08 108.436L258.071 108.443C255.53 110.325 253.151 112.087 250.647 113.81C244.299 118.178 235.443 126.072 236.68 139.456C237.189 144.956 240.039 149.745 242.941 153.066C245.863 156.409 250.134 159.752 255.248 161.109C262.832 163.122 272.121 161.64 277.198 160.535C280.965 159.714 284.154 157.864 285.889 156.857L286.065 156.754L286.211 156.67C288.375 155.422 288.984 155.164 289.388 155.073C291.12 154.681 292.507 154.976 294.551 156.856C296.971 159.084 299.283 162.756 301.5 167.249C301.852 167.962 302.207 168.813 302.758 170.128L302.881 170.421C303.44 171.755 304.17 173.486 305.052 175.208C306.687 178.398 309.741 183.428 315.507 186.123C323.871 190.033 334.62 191.063 343.654 188.601C348.475 187.288 353.951 184.366 358.138 180.241C362.258 176.182 366.872 169.033 364.645 160.087ZM325.542 125.739C335.808 135.645 339.857 148.258 343.911 164.443C343.77 164.635 343.565 164.878 343.279 165.16C342.631 165.799 341.742 166.464 340.715 167.045C339.682 167.629 338.737 167.998 338.087 168.175C334.141 169.251 328.753 168.814 324.839 167.108C324.689 166.921 324.363 166.467 323.893 165.551C323.424 164.637 322.973 163.592 322.409 162.244L322.247 161.856C321.765 160.703 321.149 159.226 320.487 157.883C317.992 152.826 314.284 146.244 308.887 141.278C303.113 135.964 294.887 132.125 284.722 134.422C280.887 135.289 277.693 137.138 275.906 138.173C275.811 138.228 275.72 138.281 275.633 138.331C274.591 138.932 273.974 139.282 273.406 139.556C272.893 139.803 272.693 139.849 272.693 139.849C267.947 140.882 263.064 141.25 260.741 140.662C260.7 140.644 260.531 140.567 260.25 140.374C259.831 140.087 259.344 139.663 258.882 139.134C258.418 138.603 258.087 138.091 257.891 137.694C257.812 137.535 257.771 137.426 257.75 137.369C257.683 136.394 257.894 135.797 258.366 135.098C259.037 134.104 260.324 132.85 262.649 131.251C265.46 129.316 268.335 127.188 271.029 125.193L271.032 125.191C272.181 124.34 273.298 123.513 274.362 122.737C278.101 120.009 281.542 117.633 284.968 115.724C291.656 111.998 297.669 110.383 304.435 111.688C311.651 113.08 317.726 118.198 325.542 125.739Z" fill="#2E3120"/>
<path d="M231.85 389.505L232.276 400.081C232.99 417.784 238.148 431.69 248.013 447.941C249.895 451.043 253.915 453.9 258.749 455.298L268.919 458.238L263.038 478.576L252.869 475.635C244.454 473.203 235.278 467.76 229.916 458.926C218.727 440.496 212.017 423.128 211.122 400.935L210.696 390.357L231.85 389.505Z" fill="#2E3120"/>
<path d="M447.993 179.097C441.363 172.12 436.567 167.37 429.75 163.951C426.368 162.255 422.328 161.241 417.407 160.531C414.961 160.179 412.436 159.919 409.73 159.657C409.348 159.62 408.96 159.583 408.568 159.545C406.261 159.324 403.803 159.088 401.4 158.791L390.894 157.495L393.488 136.483L403.993 137.779C406.088 138.038 408.222 138.243 410.542 138.466C410.945 138.504 411.354 138.544 411.769 138.584C414.5 138.848 417.451 139.148 420.427 139.577C426.349 140.43 432.94 141.866 439.24 145.026C449.732 150.288 456.778 157.608 463.34 164.513C471.426 173.022 477.586 181.411 483.373 191.491C485.775 195.675 488.016 199.283 490.439 202.015L497.463 209.936L481.622 223.982L474.599 216.062C470.608 211.561 467.45 206.279 465.012 202.032C460.021 193.338 454.858 186.321 447.993 179.097Z" fill="#2E3120"/>
</svg>
