<svg width="573" height="571" viewBox="0 0 573 571" fill="none" xmlns="http://www.w3.org/2000/svg">
<path fill-rule="evenodd" clip-rule="evenodd" d="M374.292 312.755C374.963 313.554 378.959 313.328 379.182 313.025C381.079 310.437 383.505 308.308 385.627 305.904C391.932 298.752 399.576 292.771 405.531 285.335C406.961 283.55 410.548 280.532 410.612 277.945C410.647 276.52 395.611 265.499 393.474 266.071C384.856 268.39 376.71 289.17 372.739 296.373C371.617 298.409 367.879 302.85 367.816 305.304C367.742 308.327 371.877 309.884 374.292 312.755Z" fill="#2E3120"/>
<path fill-rule="evenodd" clip-rule="evenodd" d="M39.8455 376.245C40.5161 377.043 44.5128 376.817 44.735 376.514C46.633 373.926 49.0574 371.797 51.1802 369.393C57.4854 362.241 65.1286 356.26 71.0836 348.824C72.5132 347.039 76.1013 344.021 76.1658 341.434C76.2005 340.009 61.1642 328.988 59.028 329.56C50.4092 331.88 42.2626 352.66 38.2922 359.862C37.1699 361.898 33.4315 366.339 33.369 368.793C33.2954 371.817 37.4299 373.373 39.8455 376.245Z" fill="#2E3120"/>
<path fill-rule="evenodd" clip-rule="evenodd" d="M144.639 186.152C145.306 186.958 149.325 186.691 149.551 186.381C151.482 183.733 153.938 181.546 156.094 179.082C162.497 171.753 170.234 165.601 176.287 157.987C177.741 156.159 181.375 153.059 181.463 150.427C181.511 148.979 166.5 137.912 164.348 138.513C155.664 140.951 147.285 162.152 143.228 169.51C142.082 171.59 138.283 176.14 138.198 178.635C138.097 181.71 142.238 183.254 144.639 186.152Z" fill="#2E3120"/>
<path fill-rule="evenodd" clip-rule="evenodd" d="M199.089 294.177C199.723 294.956 203.59 294.658 203.81 294.354C205.692 291.757 208.076 289.606 210.171 287.187C216.398 279.991 223.897 273.93 229.79 266.461C231.205 264.668 234.728 261.614 234.838 259.052C234.898 257.641 220.565 247.008 218.49 247.613C210.115 250.068 201.859 270.788 197.889 277.989C196.767 280.025 193.071 284.49 192.966 286.92C192.838 289.915 196.807 291.379 199.089 294.177Z" fill="#2E3120"/>
<path fill-rule="evenodd" clip-rule="evenodd" d="M160.258 364.616C160.888 365.402 164.777 365.064 165.002 364.753C166.917 362.096 169.333 359.886 171.461 357.407C177.785 350.035 185.378 343.804 191.369 336.156C192.808 334.32 196.377 331.183 196.511 328.577C196.584 327.142 182.276 316.463 180.186 317.098C171.746 319.67 163.257 340.811 159.201 348.17C158.054 350.249 154.299 354.823 154.17 357.294C154.015 360.339 157.99 361.792 160.258 364.616Z" fill="#2E3120"/>
<path fill-rule="evenodd" clip-rule="evenodd" d="M139.263 261.197C139.897 261.975 143.764 261.678 143.985 261.373C145.867 258.777 148.251 256.625 150.346 254.206C156.572 247.011 164.071 240.95 169.964 233.48C171.379 231.687 174.902 228.634 175.012 226.071C175.072 224.66 160.739 214.027 158.665 214.633C150.29 217.088 142.034 237.806 138.063 245.009C136.941 247.044 133.245 251.509 133.14 253.939C133.013 256.933 136.982 258.398 139.263 261.197Z" fill="#2E3120"/>
<path fill-rule="evenodd" clip-rule="evenodd" d="M268.242 168.735C268.872 169.521 272.762 169.183 272.986 168.871C274.901 166.214 277.317 164.006 279.445 161.526C285.769 154.154 293.362 147.923 299.354 140.275C300.792 138.438 304.361 135.302 304.495 132.695C304.568 131.261 290.261 120.582 288.17 121.217C279.73 123.79 271.241 144.93 267.185 152.288C266.038 154.369 262.283 158.942 262.155 161.413C261.999 164.459 265.975 165.911 268.242 168.735Z" fill="#2E3120"/>
<path fill-rule="evenodd" clip-rule="evenodd" d="M278.813 336.167C279.86 336.745 282.98 336.697 283.517 335.95C286.161 332.269 288.764 328.192 291.315 324.386C295.97 317.44 300.882 310.472 304.924 303.14C305.357 302.355 309.431 296.726 309.115 295.538C308.719 294.047 301.512 291.346 300.383 290.724C299.728 290.363 296.72 287.371 296.074 287.357C294.423 287.32 290.496 296.612 289.841 297.802L276.01 322.891C275.167 324.419 271.907 330.822 272.282 332.234C272.978 334.847 275.366 334.267 278.813 336.167Z" fill="#2E3120"/>
<path fill-rule="evenodd" clip-rule="evenodd" d="M240.506 405.655C241.553 406.232 244.657 406.213 245.185 405.484C247.783 401.886 250.336 397.899 252.841 394.178C257.41 387.387 262.235 380.577 266.191 373.401C266.615 372.633 270.618 367.132 270.293 365.961C269.886 364.491 262.689 361.769 261.561 361.147C260.906 360.786 257.886 357.816 257.242 357.796C255.599 357.745 251.776 366.85 251.134 368.014L237.598 392.569C236.774 394.064 233.586 400.335 233.972 401.727C234.688 404.303 237.06 403.755 240.506 405.655Z" fill="#2E3120"/>
<path fill-rule="evenodd" clip-rule="evenodd" d="M348.491 209.773C349.538 210.351 352.642 210.332 353.17 209.602C355.767 206.005 358.32 202.017 360.825 198.297C365.394 191.506 370.22 184.696 374.176 177.52C374.599 176.752 378.602 171.251 378.277 170.08C377.87 168.61 370.674 165.888 369.545 165.266C368.89 164.905 365.87 161.935 365.227 161.915C363.584 161.863 359.76 170.969 359.119 172.133L345.582 196.688C344.758 198.184 341.571 204.453 341.956 205.846C342.673 208.422 345.044 207.873 348.491 209.773Z" fill="#2E3120"/>
<path fill-rule="evenodd" clip-rule="evenodd" d="M133.568 428.468C134.614 429.044 137.734 428.997 138.271 428.25C140.915 424.569 143.518 420.492 146.069 416.686C150.724 409.739 155.637 402.772 159.679 395.439C160.111 394.655 164.185 389.025 163.87 387.837C163.474 386.346 156.266 383.645 155.137 383.023C154.483 382.662 151.474 379.671 150.827 379.656C149.176 379.62 145.251 388.912 144.595 390.101L130.764 415.19C129.922 416.718 126.66 423.122 127.036 424.534C127.731 427.146 130.12 426.567 133.568 428.468Z" fill="#2E3120"/>
<path fill-rule="evenodd" clip-rule="evenodd" d="M238.892 237.412C239.938 237.988 243.059 237.94 243.596 237.193C246.24 233.512 248.843 229.435 251.394 225.629C256.049 218.683 260.961 211.715 265.003 204.383C265.436 203.598 269.51 197.968 269.194 196.78C268.798 195.29 261.591 192.589 260.462 191.966C259.807 191.606 256.799 188.614 256.152 188.6C254.501 188.563 250.575 197.856 249.92 199.045L236.089 224.134C235.247 225.662 231.985 232.065 232.361 233.478C233.056 236.09 235.444 235.511 238.892 237.412Z" fill="#2E3120"/>
<path fill-rule="evenodd" clip-rule="evenodd" d="M70.4207 393.656C71.5368 394.272 74.8155 394.311 75.3586 393.568C78.0339 389.904 80.6555 385.837 83.2292 382.044C87.9267 375.121 92.8937 368.183 96.9359 360.851C97.3685 360.066 101.492 354.464 101.126 353.249C100.669 351.723 93.0157 348.778 91.8117 348.114C91.1138 347.73 87.8673 344.606 87.187 344.573C85.4508 344.489 81.5863 353.816 80.931 355.004L67.0998 380.094C66.2575 381.622 63.0098 388.033 63.4443 389.478C64.2489 392.15 66.7431 391.629 70.4207 393.656Z" fill="#2E3120"/>
<path fill-rule="evenodd" clip-rule="evenodd" d="M379.376 226.784C380.423 227.36 383.543 227.313 384.08 226.566C386.724 222.885 389.327 218.808 391.878 215.002C396.533 208.056 401.445 201.088 405.487 193.756C405.919 192.971 409.993 187.342 409.678 186.154C409.282 184.663 402.074 181.962 400.945 181.34C400.291 180.979 397.283 177.987 396.636 177.973C394.985 177.936 391.059 187.228 390.404 188.418L376.573 213.507C375.73 215.035 372.469 221.438 372.844 222.851C373.54 225.463 375.928 224.883 379.376 226.784Z" fill="#2E3120"/>
<path fill-rule="evenodd" clip-rule="evenodd" d="M175.745 202.6C176.861 203.215 180.14 203.254 180.684 202.511C183.359 198.848 185.98 194.781 188.554 190.988C193.252 184.064 198.219 177.126 202.261 169.794C202.693 169.009 206.817 163.407 206.451 162.193C205.993 160.667 198.34 157.722 197.136 157.058C196.438 156.673 193.192 153.55 192.512 153.517C190.775 153.433 186.911 162.759 186.256 163.948L172.425 189.037C171.582 190.565 168.334 196.977 168.769 198.421C169.574 201.094 172.068 200.573 175.745 202.6Z" fill="#2E3120"/>
<path fill-rule="evenodd" clip-rule="evenodd" d="M323.659 533.26C324.706 533.837 327.826 533.789 328.363 533.043C331.007 529.362 333.61 525.284 336.161 521.479C340.816 514.532 345.728 507.565 349.771 500.232C350.203 499.447 354.277 493.818 353.961 492.631C353.565 491.139 346.357 488.439 345.229 487.817C344.574 487.456 341.566 484.464 340.919 484.449C339.268 484.412 335.342 493.705 334.687 494.894L320.856 519.983C320.013 521.511 316.752 527.915 317.127 529.327C317.823 531.939 320.211 531.36 323.659 533.26Z" fill="#2E3120"/>
<path fill-rule="evenodd" clip-rule="evenodd" d="M428.984 342.204C430.03 342.781 433.151 342.732 433.688 341.986C436.332 338.306 438.934 334.228 441.485 330.422C446.141 323.476 451.053 316.508 455.095 309.176C455.528 308.391 459.601 302.761 459.286 301.574C458.89 300.083 451.682 297.382 450.553 296.76C449.898 296.399 446.891 293.407 446.244 293.393C444.593 293.356 440.667 302.648 440.012 303.837L426.181 328.926C425.338 330.454 422.077 336.858 422.452 338.27C423.148 340.883 425.536 340.303 428.984 342.204Z" fill="#2E3120"/>
<path fill-rule="evenodd" clip-rule="evenodd" d="M259.899 325.674C252.346 328.393 248.937 320.884 248.352 318.845C247.921 317.343 253.167 310.111 253.906 308.77C259.105 299.338 263.189 288.462 270.114 280.248C271.412 278.711 273.908 274.108 275.879 274.184C278.144 274.271 285.556 279.133 285.46 281.411C285.347 284.098 281.093 287.505 279.615 289.377C274.699 295.607 259.844 325.774 259.899 325.674Z" fill="#2E3120"/>
<path fill-rule="evenodd" clip-rule="evenodd" d="M306.414 444.423C298.861 447.141 295.453 439.632 294.867 437.592C294.436 436.091 299.682 428.858 300.421 427.518C305.621 418.086 309.704 407.21 316.629 398.996C317.927 397.458 320.424 392.856 322.394 392.932C324.658 393.02 332.071 397.881 331.975 400.16C331.862 402.846 327.609 406.254 326.13 408.125C321.214 414.356 306.359 444.521 306.414 444.423Z" fill="#2E3120"/>
<path fill-rule="evenodd" clip-rule="evenodd" d="M414.426 248.491C406.816 251.313 403.454 243.719 402.883 241.655C402.463 240.133 407.792 232.749 408.546 231.382C413.848 221.765 418.039 210.692 425.065 202.297C426.381 200.726 428.927 196.033 430.906 196.094C433.18 196.164 440.586 201.037 440.471 203.351C440.335 206.079 436.034 209.573 434.533 211.485C429.543 217.849 414.371 248.591 414.426 248.491Z" fill="#2E3120"/>
<path fill-rule="evenodd" clip-rule="evenodd" d="M20.6208 364.879C13.0682 367.598 9.65943 360.089 9.07459 358.05C8.64319 356.547 13.8895 349.315 14.6285 347.975C19.8282 338.543 23.9106 327.666 30.8362 319.453C32.134 317.915 34.6302 313.313 36.6006 313.389C38.8663 313.476 46.2783 318.337 46.1818 320.616C46.0691 323.303 41.8161 326.71 40.3371 328.582C35.4212 334.812 20.5664 364.978 20.6208 364.879Z" fill="#2E3120"/>
<path fill-rule="evenodd" clip-rule="evenodd" d="M125.946 173.823C118.393 176.541 114.985 169.032 114.4 166.993C113.968 165.491 119.215 158.259 119.954 156.919C125.154 147.486 129.236 136.61 136.161 128.396C137.459 126.859 139.955 122.256 141.926 122.332C144.191 122.42 151.603 127.281 151.507 129.56C151.394 132.247 147.141 135.654 145.662 137.525C140.747 143.755 125.892 173.921 125.946 173.823Z" fill="#2E3120"/>
<path fill-rule="evenodd" clip-rule="evenodd" d="M141.005 351.913C133.395 354.735 130.034 347.141 129.462 345.077C129.041 343.555 134.371 336.171 135.125 334.805C140.427 325.187 144.619 314.114 151.643 305.719C152.96 304.147 155.505 299.455 157.485 299.516C159.76 299.586 167.165 304.458 167.049 306.772C166.915 309.501 162.613 312.995 161.112 314.906C156.122 321.271 140.95 352.014 141.005 351.913Z" fill="#2E3120"/>
<path fill-rule="evenodd" clip-rule="evenodd" d="M248.99 156.032C241.38 158.854 238.018 151.261 237.447 149.195C237.026 147.674 242.356 140.29 243.11 138.923C248.411 129.306 252.603 118.233 259.628 109.837C260.945 108.266 263.49 103.574 265.47 103.635C267.744 103.705 275.15 108.578 275.034 110.891C274.9 113.62 270.598 117.113 269.097 119.025C264.107 125.39 248.935 156.133 248.99 156.032Z" fill="#2E3120"/>
<path fill-rule="evenodd" clip-rule="evenodd" d="M228.997 316.989C230.618 317.882 234.062 310.851 234.718 309.661L241.771 296.867C246.018 289.164 250.427 279.462 256.365 273.017C257.877 271.379 264.023 267.464 264.092 265.992C264.268 262.29 255.876 254.992 251.919 254.862C247.233 254.709 244.966 260.626 242.369 264.32C235.69 273.825 230.615 284.769 224.989 294.975C223.507 297.662 217.678 302.597 217.526 305.85C217.275 311.103 223.982 314.224 228.997 316.989Z" fill="#2E3120"/>
<path fill-rule="evenodd" clip-rule="evenodd" d="M190.165 387.429C191.786 388.322 195.231 381.29 195.886 380.101L202.939 367.307C207.186 359.605 211.595 349.902 217.533 343.457C219.045 341.819 225.191 337.904 225.26 336.433C225.435 332.73 217.044 325.432 213.087 325.302C208.4 325.15 206.133 331.067 203.537 334.761C196.858 344.266 191.783 355.209 186.156 365.415C184.675 368.102 178.846 373.037 178.694 376.29C178.443 381.542 185.15 384.664 190.165 387.429Z" fill="#2E3120"/>
<path fill-rule="evenodd" clip-rule="evenodd" d="M298.15 191.547C299.77 192.441 303.215 185.41 303.871 184.22L310.924 171.426C315.17 163.723 319.58 154.021 325.517 147.575C327.03 145.937 333.176 142.022 333.244 140.551C333.42 136.849 325.028 129.551 321.071 129.421C316.385 129.268 314.118 135.185 311.521 138.879C304.842 148.384 299.767 159.328 294.141 169.534C292.659 172.221 286.83 177.156 286.679 180.409C286.427 185.662 293.134 188.782 298.15 191.547Z" fill="#2E3120"/>
<path fill-rule="evenodd" clip-rule="evenodd" d="M396.115 401.575C398.61 403.459 406.707 388.343 409.535 384.493C414.005 378.414 419.114 372.36 422.764 365.74C423.525 364.359 426.735 360.667 425.556 358.927C424.732 357.711 422.3 357.622 421.284 357.063C409.375 350.498 402.874 372.106 397.735 381.428L393.371 389.344C392.889 390.22 388.905 395.766 389.216 396.882C389.544 398.057 396.313 401.684 396.115 401.575Z" fill="#2E3120"/>
<path fill-rule="evenodd" clip-rule="evenodd" d="M357.283 472.015C359.778 473.899 367.875 458.783 370.703 454.933C375.173 448.854 380.282 442.8 383.932 436.18C384.693 434.799 387.903 431.107 386.724 429.367C385.899 428.151 383.468 428.062 382.452 427.503C370.543 420.938 364.042 442.546 358.903 451.868L354.539 459.784C354.057 460.66 350.073 466.206 350.384 467.322C350.712 468.497 357.48 472.124 357.283 472.015Z" fill="#2E3120"/>
<path fill-rule="evenodd" clip-rule="evenodd" d="M465.799 275.169C468.295 277.052 476.392 261.937 479.219 258.087C483.689 252.009 488.798 245.955 492.448 239.334C493.209 237.953 496.42 234.261 495.241 232.521C494.416 231.305 491.984 231.216 490.969 230.657C479.06 224.092 472.558 245.701 467.42 255.022L463.056 262.939C462.573 263.814 458.59 269.359 458.901 270.475C459.229 271.651 465.997 275.278 465.799 275.169Z" fill="#2E3120"/>
<path fill-rule="evenodd" clip-rule="evenodd" d="M220.175 141.021C222.671 142.904 230.767 127.788 233.595 123.939C238.065 117.86 243.174 111.806 246.824 105.186C247.585 103.804 250.795 100.112 249.616 98.3716C248.791 97.1564 246.36 97.0674 245.344 96.5076C233.436 89.9427 226.934 111.552 221.795 120.874L217.431 128.79C216.949 129.665 212.965 135.212 213.276 136.328C213.604 137.504 220.373 141.13 220.175 141.021Z" fill="#2E3120"/>
<path fill-rule="evenodd" clip-rule="evenodd" d="M349.291 548.134C351.787 550.017 359.884 534.901 362.711 531.052C367.182 524.972 372.291 518.919 375.94 512.298C376.702 510.917 379.912 507.225 378.733 505.484C377.908 504.269 375.477 504.18 374.461 503.62C362.552 497.055 356.051 518.665 350.912 527.987L346.548 535.903C346.065 536.778 342.082 542.324 342.393 543.44C342.721 544.616 349.489 548.243 349.291 548.134Z" fill="#2E3120"/>
<path fill-rule="evenodd" clip-rule="evenodd" d="M454.616 357.077C457.112 358.96 465.209 343.844 468.036 339.995C472.507 333.916 477.615 327.862 481.265 321.242C482.026 319.86 485.237 316.168 484.058 314.428C483.233 313.213 480.801 313.124 479.786 312.565C467.877 306 461.376 327.608 456.237 336.93L451.873 344.846C451.39 345.721 447.407 351.267 447.718 352.383C448.045 353.559 454.814 357.186 454.616 357.077Z" fill="#2E3120"/>
<path fill-rule="evenodd" clip-rule="evenodd" d="M88.24 235.626C90.9301 237.616 99.0137 222.494 101.879 218.665C106.411 212.62 111.617 206.62 115.266 200C116.028 198.618 119.303 194.962 118.007 193.157C117.101 191.896 114.533 191.732 113.445 191.133C100.685 184.099 94.4797 205.872 89.341 215.193L84.977 223.109C84.4945 223.984 80.4606 229.502 80.8223 230.646C81.2029 231.852 88.4521 235.743 88.24 235.626Z" fill="#2E3120"/>
<path fill-rule="evenodd" clip-rule="evenodd" d="M49.408 306.066C52.0981 308.056 60.1817 292.934 63.0474 289.105C67.5794 283.06 72.7847 277.06 76.4348 270.439C77.1958 269.058 80.4709 265.402 79.175 263.597C78.2685 262.336 75.7007 262.172 74.6126 261.573C61.8532 254.539 55.6477 276.312 50.5094 285.632L46.1449 293.549C45.6625 294.425 41.6286 299.942 41.9902 301.086C42.3713 302.291 49.6201 306.183 49.408 306.066Z" fill="#2E3120"/>
<path fill-rule="evenodd" clip-rule="evenodd" d="M157.392 110.185C160.082 112.175 168.166 97.0526 171.032 93.2239C175.564 87.1791 180.769 81.1785 184.419 74.5582C185.18 73.1769 188.455 69.5201 187.16 67.7153C186.253 66.455 183.685 66.291 182.597 65.6912C169.838 58.6573 163.632 80.4303 158.493 89.752L154.129 97.6683C153.647 98.5434 149.613 104.061 149.974 105.206C150.355 106.411 157.604 110.302 157.392 110.185Z" fill="#2E3120"/>
<path fill-rule="evenodd" clip-rule="evenodd" d="M159.732 442.376C162.228 444.259 170.325 429.144 173.152 425.294C177.623 419.215 182.731 413.161 186.38 406.54C187.142 405.159 190.353 401.467 189.174 399.727C188.349 398.512 185.917 398.423 184.901 397.863C172.993 391.298 166.491 412.907 161.352 422.229L156.988 430.145C156.506 431.02 152.522 436.566 152.833 437.682C153.161 438.858 159.929 442.485 159.732 442.376Z" fill="#2E3120"/>
<path fill-rule="evenodd" clip-rule="evenodd" d="M264.524 252.284C267.021 254.168 275.117 239.052 277.945 235.202C282.416 229.123 287.524 223.069 291.173 216.449C291.935 215.068 295.146 211.375 293.967 209.635C293.142 208.42 290.71 208.332 289.694 207.772C277.786 201.207 271.284 222.815 266.145 232.137L261.781 240.053C261.299 240.928 257.315 246.474 257.626 247.59C257.954 248.766 264.722 252.393 264.524 252.284Z" fill="#2E3120"/>
<path fill-rule="evenodd" clip-rule="evenodd" d="M346.544 297.499C349.04 299.382 357.136 284.267 359.964 280.418C364.434 274.338 369.543 268.284 373.193 261.664C373.954 260.283 377.164 256.59 375.986 254.85C375.16 253.635 372.728 253.547 371.714 252.987C359.804 246.422 353.303 268.031 348.165 277.352L343.801 285.268C343.318 286.143 339.335 291.69 339.646 292.806C339.973 293.981 346.742 297.609 346.544 297.499Z" fill="#2E3120"/>
<path fill-rule="evenodd" clip-rule="evenodd" d="M299.685 520.786C302.374 522.776 310.458 507.654 313.324 503.825C317.856 497.78 323.062 491.78 326.711 485.16C327.473 483.778 330.747 480.121 329.451 478.316C328.544 477.056 325.977 476.892 324.889 476.292C312.13 469.259 305.924 491.031 300.786 500.353L296.422 508.269C295.939 509.145 291.905 514.662 292.267 515.806C292.647 517.012 299.897 520.903 299.685 520.786Z" fill="#2E3120"/>
<path fill-rule="evenodd" clip-rule="evenodd" d="M405.009 329.73C407.699 331.72 415.783 316.597 418.649 312.769C423.18 306.723 428.386 300.723 432.036 294.103C432.797 292.722 436.072 289.065 434.776 287.26C433.869 285.999 431.301 285.836 430.213 285.237C417.454 278.203 411.249 299.975 406.11 309.296L401.746 317.212C401.264 318.088 397.23 323.606 397.591 324.75C397.972 325.955 405.221 329.847 405.009 329.73Z" fill="#2E3120"/>
<path fill-rule="evenodd" clip-rule="evenodd" d="M113.885 344.784C116.49 345.953 124.507 329.642 126.421 327.037C128.329 324.438 129.879 321.784 131.741 319.134C135.553 313.699 138.683 307.824 142.427 302.367C143.818 300.341 148.069 295.561 148.21 292.749C148.306 290.801 144.481 289.572 143.298 288.564C142.004 287.46 140.034 285.084 138.18 284.758C132.682 283.786 131.837 291.108 128.935 295.421C122.204 305.424 116.318 316.561 110.496 327.123C109.548 328.843 102.608 338.179 103.207 340.345C103.556 341.61 109.078 343.376 110.056 343.629C110.879 343.841 114.224 346 113.885 344.784Z" fill="#2E3120"/>
<path fill-rule="evenodd" clip-rule="evenodd" d="M183.409 459.89C186.167 461.148 193.992 445.078 195.903 442.532C197.807 439.992 199.337 437.385 201.192 434.793C204.99 429.476 208.061 423.695 211.788 418.353C213.172 416.37 217.451 411.724 217.503 408.912C217.539 406.963 213.503 405.605 212.235 404.555C210.847 403.406 208.71 400.959 206.764 400.571C200.992 399.413 200.354 406.72 197.468 410.944C190.776 420.74 185.004 431.699 179.279 442.085C178.346 443.776 171.413 452.896 172.111 455.087C172.519 456.365 178.342 458.319 179.372 458.605C180.239 458.846 183.803 461.12 183.409 459.89Z" fill="#2E3120"/>
<path fill-rule="evenodd" clip-rule="evenodd" d="M288.214 269.775C290.975 271.03 298.945 254.693 300.882 252.101C302.812 249.515 304.367 246.863 306.247 244.224C310.099 238.81 313.224 232.932 317.003 227.495C318.407 225.475 322.736 220.738 322.809 217.89C322.859 215.915 318.817 214.568 317.551 213.514C316.166 212.36 314.038 209.897 312.088 209.517C306.301 208.385 305.608 215.792 302.68 220.091C295.891 230.062 290.018 241.206 284.196 251.767C283.247 253.488 276.222 262.776 276.906 264.99C277.307 266.281 283.139 268.22 284.17 268.502C285.039 268.74 288.601 271.018 288.214 269.775Z" fill="#2E3120"/>
<path fill-rule="evenodd" clip-rule="evenodd" d="M427.985 418.989C427.968 420.47 430.177 412.653 430.888 411.363C433.188 407.192 436.465 403.482 439.304 399.613C447.515 388.426 462.302 379.018 447.055 370.613C444.992 369.476 442.482 367.718 440.158 367.307C436.649 366.689 434.221 371.332 432.194 373.845C426.183 381.286 422.159 391.171 417.546 399.539C416.531 401.38 411.657 407.89 412.249 410.026C412.752 411.857 428.979 417.186 427.985 418.989Z" fill="#2E3120"/>
<path fill-rule="evenodd" clip-rule="evenodd" d="M389.683 488.467C389.68 489.923 391.808 482.254 392.504 480.992C394.755 476.909 397.982 473.289 400.772 469.509C408.842 458.578 423.471 449.457 408.224 441.052C406.161 439.915 403.648 438.162 401.332 437.738C397.834 437.099 395.459 441.644 393.466 444.098C387.551 451.363 383.636 461.05 379.121 469.24C378.128 471.042 373.337 477.402 373.945 479.508C374.462 481.315 390.656 486.702 389.683 488.467Z" fill="#2E3120"/>
<path fill-rule="evenodd" clip-rule="evenodd" d="M497.668 292.586C497.665 294.042 499.793 286.373 500.489 285.11C502.739 281.028 505.966 277.407 508.757 273.627C516.826 262.697 531.455 253.576 516.209 245.171C514.145 244.033 511.632 242.281 509.316 241.857C505.818 241.217 503.444 245.762 501.451 248.216C495.536 255.481 491.62 265.169 487.106 273.359C486.112 275.16 481.322 281.521 481.929 283.627C482.446 285.433 498.641 290.821 497.668 292.586Z" fill="#2E3120"/>
<path fill-rule="evenodd" clip-rule="evenodd" d="M177.534 282.183C177.531 283.64 179.659 275.971 180.355 274.708C182.606 270.625 185.833 267.004 188.623 263.225C196.692 252.295 211.321 243.174 196.075 234.769C194.011 233.631 191.499 231.879 189.182 231.455C185.685 230.815 183.31 235.36 181.317 237.813C175.402 245.079 171.487 254.766 166.972 262.957C165.979 264.758 161.188 271.119 161.795 273.225C162.313 275.031 178.507 280.419 177.534 282.183Z" fill="#2E3120"/>
<path fill-rule="evenodd" clip-rule="evenodd" d="M221.253 396.874C221.251 398.33 223.379 390.661 224.074 389.399C226.325 385.316 229.553 381.696 232.342 377.915C240.412 366.985 255.041 357.864 239.795 349.459C237.731 348.321 235.219 346.57 232.902 346.145C229.404 345.505 227.03 350.05 225.037 352.505C219.122 359.769 215.206 369.457 210.691 377.648C209.698 379.448 204.907 385.809 205.516 387.915C206.032 389.721 222.226 395.109 221.253 396.874Z" fill="#2E3120"/>
<path fill-rule="evenodd" clip-rule="evenodd" d="M329.238 200.992C329.235 202.449 331.363 194.78 332.059 193.517C334.31 189.434 337.537 185.814 340.327 182.034C348.397 171.103 363.026 161.983 347.779 153.578C345.716 152.44 343.203 150.688 340.886 150.265C337.388 149.625 335.014 154.169 333.021 156.623C327.106 163.888 323.191 173.575 318.676 181.766C317.683 183.567 312.892 189.928 313.5 192.034C314.017 193.839 330.211 199.227 329.238 200.992Z" fill="#2E3120"/>
<path fill-rule="evenodd" clip-rule="evenodd" d="M246.701 487.651C246.698 489.108 248.826 481.439 249.522 480.176C251.773 476.093 254.999 472.473 257.79 468.693C265.859 457.762 280.488 448.642 265.242 440.236C263.179 439.099 260.666 437.347 258.349 436.922C254.852 436.283 252.477 440.828 250.483 443.282C244.569 450.547 240.654 460.234 236.139 468.425C235.146 470.226 230.355 476.586 230.962 478.693C231.48 480.499 247.674 485.886 246.701 487.651Z" fill="#2E3120"/>
<path fill-rule="evenodd" clip-rule="evenodd" d="M371.013 393.458C373.772 394.716 381.596 378.645 383.507 376.099C385.412 373.559 386.941 370.953 388.795 368.36C392.594 363.043 395.665 357.262 399.392 351.92C400.775 349.937 405.055 345.291 405.107 342.48C405.143 340.531 401.108 339.171 399.839 338.123C398.451 336.974 396.314 334.526 394.368 334.138C388.596 332.981 387.958 340.288 385.072 344.511C378.38 354.307 372.608 365.267 366.883 375.652C365.95 377.344 359.017 386.464 359.715 388.654C360.123 389.932 365.947 391.886 366.975 392.173C367.842 392.413 371.406 394.688 371.013 393.458Z" fill="#2E3120"/>
<path fill-rule="evenodd" clip-rule="evenodd" d="M332.194 463.874C334.955 465.129 342.925 448.793 344.862 446.2C346.792 443.613 348.346 440.963 350.227 438.323C354.078 432.909 357.203 427.031 360.983 421.593C362.386 419.574 366.715 414.837 366.788 411.989C366.838 410.014 362.797 408.666 361.53 407.613C360.145 406.459 358.018 403.995 356.067 403.616C350.28 402.485 349.587 409.891 346.66 414.19C339.871 424.162 333.997 435.305 328.175 445.866C327.226 447.587 320.201 456.875 320.886 459.089C321.286 460.38 327.119 462.318 328.15 462.601C329.019 462.838 332.581 465.116 332.194 463.874Z" fill="#2E3120"/>
<path fill-rule="evenodd" clip-rule="evenodd" d="M440.179 267.993C442.939 269.248 450.91 252.911 452.847 250.319C454.777 247.733 456.331 245.081 458.212 242.442C462.063 237.028 465.188 231.15 468.967 225.713C470.371 223.693 474.7 218.956 474.773 216.108C474.823 214.133 470.781 212.786 469.515 211.732C468.13 210.577 466.002 208.114 464.052 207.734C458.265 206.603 457.572 214.01 454.645 218.309C447.856 228.28 441.982 239.424 436.16 249.985C435.211 251.706 428.186 260.994 428.871 263.208C429.271 264.499 435.104 266.437 436.135 266.72C437.003 266.957 440.565 269.236 440.179 267.993Z" fill="#2E3120"/>
<path fill-rule="evenodd" clip-rule="evenodd" d="M346.195 376.41C345.752 377.966 348.153 373.417 348.485 372.931C350.662 369.746 352.23 366.175 353.792 362.535C358.16 352.365 362.214 341.55 365.843 331.102C366.839 328.238 370.647 322.83 366.801 321.29C363.991 320.165 352.506 316.41 349.648 318.934C348.201 320.215 347.393 325.528 346.585 327.757C343.704 335.705 341.647 343.583 339.684 351.784C338.374 357.259 337.184 362.824 335.778 368.278C335.623 368.881 334.07 371.812 334.688 372.502C336.434 374.449 343.529 376.244 346.195 376.41Z" fill="#2E3120"/>
<path fill-rule="evenodd" clip-rule="evenodd" d="M97.3012 412.636C96.2363 413.835 100.335 410.795 100.84 410.501C104.152 408.58 107.088 406.06 110.049 403.476C118.322 396.257 126.593 388.331 134.33 380.554C136.45 378.421 142.173 375.209 139.41 372.217C137.391 370.033 128.775 361.855 125.142 362.9C123.3 363.43 120.29 367.823 118.611 369.468C112.62 375.334 107.392 381.484 102.109 387.963C98.5828 392.287 95.1252 396.742 91.5222 401.008C91.1246 401.479 88.4775 403.436 88.7314 404.31C89.4482 406.779 94.9971 411.365 97.3012 412.636Z" fill="#2E3120"/>
<path fill-rule="evenodd" clip-rule="evenodd" d="M228.808 169.831C229.449 168.331 226.502 172.604 226.114 173.053C223.569 175.996 221.564 179.382 219.552 182.838C213.933 192.495 208.53 202.825 203.587 212.835C202.233 215.578 197.804 220.561 201.323 222.485C203.893 223.89 214.514 228.797 217.627 226.581C219.205 225.457 220.713 220.261 221.799 218.13C225.674 210.527 228.742 202.912 231.763 194.963C233.779 189.659 235.69 184.252 237.797 178.977C238.029 178.394 239.934 175.64 239.429 174.893C238.002 172.779 231.368 170.269 228.808 169.831Z" fill="#2E3120"/>
<path fill-rule="evenodd" clip-rule="evenodd" d="M105.546 248.398C104.76 249.816 106.309 244.902 106.423 244.324C107.174 240.537 108.605 236.9 110.088 233.217C114.232 222.924 119.039 212.39 123.878 202.412C125.204 199.677 126.399 193.171 130.083 194.747C132.775 195.899 143.186 201.21 143.361 204.997C143.448 206.918 140.283 211.271 139.274 213.422C135.674 221.095 131.566 228.146 127.166 235.361C124.23 240.178 121.149 244.975 118.291 249.844C117.977 250.382 116.981 253.553 116.08 253.614C113.536 253.789 107.47 250.135 105.546 248.398Z" fill="#2E3120"/>
<path fill-rule="evenodd" clip-rule="evenodd" d="M76.2632 322.845C75.4764 324.262 76.9769 319.321 77.0826 318.738C77.7752 314.92 79.1826 311.269 80.6422 307.573C84.7202 297.245 89.4852 286.687 94.295 276.693C95.614 273.954 96.7074 267.391 100.586 269.075C103.418 270.305 114.399 275.928 114.67 279.77C114.806 281.717 111.608 286.052 110.606 288.207C107.033 295.896 102.915 302.941 98.4983 310.147C95.55 314.956 92.4505 319.743 89.5859 324.608C89.2689 325.145 88.3057 328.335 87.3688 328.376C84.7206 328.492 78.3095 324.648 76.2632 322.845Z" fill="#2E3120"/>
<path fill-rule="evenodd" clip-rule="evenodd" d="M180.921 127.646C180.135 129.064 181.684 124.15 181.799 123.572C182.548 119.785 183.98 116.148 185.464 112.464C189.607 102.171 194.414 91.6377 199.252 81.6596C200.579 78.9241 201.774 72.4176 205.459 73.9941C208.149 75.1466 218.561 80.4567 218.736 84.245C218.823 86.1647 215.658 90.5182 214.649 92.6697C211.049 100.342 206.94 107.393 202.541 114.609C199.605 119.426 196.524 124.223 193.667 129.092C193.351 129.629 192.356 132.8 191.455 132.863C188.912 133.037 182.845 129.382 180.921 127.646Z" fill="#2E3120"/>
<path fill-rule="evenodd" clip-rule="evenodd" d="M202.263 467.796C201.477 469.214 203.027 464.3 203.141 463.722C203.89 459.934 205.322 456.298 206.805 452.614C210.949 442.321 215.756 431.787 220.594 421.809C221.921 419.074 223.116 412.568 226.8 414.144C229.491 415.296 239.903 420.607 240.077 424.395C240.164 426.315 237 430.668 235.991 432.819C232.391 440.492 228.282 447.543 223.883 454.759C220.947 459.575 217.866 464.372 215.009 469.242C214.693 469.779 213.698 472.95 212.797 473.012C210.253 473.186 204.187 469.532 202.263 467.796Z" fill="#2E3120"/>
<path fill-rule="evenodd" clip-rule="evenodd" d="M307.588 276.739C306.801 278.157 308.351 273.243 308.465 272.665C309.215 268.878 310.647 265.241 312.13 261.557C316.273 251.265 321.081 240.73 325.919 230.752C327.246 228.018 328.44 221.511 332.125 223.088C334.816 224.239 345.227 229.55 345.402 233.339C345.489 235.258 342.324 239.612 341.316 241.762C337.716 249.436 333.607 256.486 329.208 263.703C326.272 268.518 323.19 273.316 320.333 278.185C320.018 278.722 319.022 281.894 318.122 281.955C315.578 282.13 309.511 278.475 307.588 276.739Z" fill="#2E3120"/>
<path fill-rule="evenodd" clip-rule="evenodd" d="M303.247 350.338C303.914 351.144 307.932 350.877 308.158 350.566C310.09 347.918 312.547 345.731 314.702 343.267C321.105 335.938 328.842 329.787 334.896 322.173C336.349 320.345 339.982 317.244 340.071 314.613C340.119 313.164 325.107 302.097 322.956 302.699C314.271 305.137 305.894 326.337 301.837 333.696C300.69 335.776 296.892 340.326 296.806 342.821C296.704 345.895 300.846 347.44 303.247 350.338Z" fill="#2E3120"/>
<path fill-rule="evenodd" clip-rule="evenodd" d="M278.482 424.415C279.327 424.998 283.047 423.609 283.178 423.248C284.293 420.17 286.028 417.384 287.403 414.418C291.488 405.6 297.146 397.531 300.825 388.539C301.709 386.38 304.309 382.388 303.69 379.844C303.348 378.446 286.231 372.091 284.361 373.274C276.818 378.057 274.573 400.705 272.709 408.891C272.182 411.204 269.813 416.629 270.399 419.04C271.124 422.011 275.443 422.32 278.482 424.415Z" fill="#2E3120"/>
<path fill-rule="evenodd" clip-rule="evenodd" d="M268.968 503.811C269.635 504.617 273.653 504.35 273.88 504.04C275.811 501.391 278.268 499.205 280.423 496.741C286.826 489.412 294.564 483.261 300.617 475.647C302.07 473.819 305.704 470.718 305.792 468.086C305.84 466.638 290.829 455.57 288.676 456.172C279.993 458.609 271.615 479.811 267.558 487.17C266.411 489.25 262.613 493.799 262.528 496.295C262.425 499.369 266.567 500.914 268.968 503.811Z" fill="#2E3120"/>
<path d="M95.9341 158.096L119.872 114.674C124.294 117.697 129.035 121.573 129 122.387C128.915 124.33 126.874 126.556 125.272 128.303C124.756 128.864 124.286 129.377 123.942 129.814C120.66 133.978 116.881 137.706 113.1 141.437C110.082 144.414 107.063 147.393 104.295 150.594C103.519 151.492 102.703 152.352 101.888 153.212C100.499 154.677 99.1126 156.141 97.9243 157.781C97.8214 157.923 96.9255 158.064 95.9341 158.096Z" fill="#2E3120"/>
<path d="M133.702 89.5856L156.009 49.1216C156.151 49.2269 156.27 49.3073 156.361 49.3575C156.785 49.5915 157.294 49.8448 157.84 50.1171C159.955 51.1725 162.623 52.5041 163.069 54.0215C163.294 54.778 161.755 56.6277 160.709 57.8831C160.287 58.3922 159.945 58.8031 159.833 59.0055C159.419 59.7564 159.006 60.5084 158.592 61.2597C155.396 67.0749 152.204 72.8797 148.626 78.4498C147.618 80.0179 145.894 82.5653 144.229 85.0249C141.875 88.5036 139.639 91.8077 139.717 91.9183C139.456 91.8872 136.65 90.8958 133.702 89.5856Z" fill="#2E3120"/>
<path d="M172.002 20.1107L178.917 7.56703L185.671 11.2905C184.824 12.5576 183.864 13.9758 182.922 15.368C180.478 18.9808 178.156 22.4122 178.236 22.5278C177.967 22.4949 175.057 21.4682 172.002 20.1107Z" fill="#2E3120"/>
<path d="M198.512 18.3692L208.83 24.0572C208.212 25.0013 207.475 26.1901 206.668 27.4903C203.095 33.2473 198.166 41.1908 196.296 39.7847C196.496 39.8947 189.673 36.2386 189.339 35.0615C189.095 34.2034 191.384 30.7473 192.678 28.7932C193.07 28.2015 193.371 27.7472 193.483 27.5443L197.835 19.6492C198.058 19.2449 198.284 18.8171 198.512 18.3692Z" fill="#2E3120"/>
<path d="M220.409 30.441L235.848 38.9518C235.666 39.2503 235.483 39.5484 235.3 39.8473C234.226 41.5989 233.131 43.348 232.036 45.0985C230.158 48.1009 228.275 51.1078 226.485 54.1471C226.407 54.2796 226.289 54.5775 226.141 54.9487C225.698 56.0617 224.989 57.8418 224.293 57.872C221.671 57.9863 215.324 54.1799 213.296 52.394C212.728 53.4179 213.366 51.088 213.791 49.5315C213.949 48.9571 214.077 48.4882 214.104 48.3331C214.789 44.5568 216.179 40.9455 217.622 37.2902C218.52 35.016 219.452 32.7294 220.409 30.441Z" fill="#2E3120"/>
<path d="M249.971 46.7379L262.866 53.8463C262.276 54.7316 261.671 55.6123 261.024 56.4859C260.506 57.1853 259.549 58.8771 258.374 60.9537C255.18 66.6006 250.378 75.0911 248.413 74.2036C248.664 75.0563 247.081 74.2512 245.803 73.6014C245.236 73.3136 244.73 73.0559 244.47 72.9863C243.463 72.718 237.777 70.8613 237.401 69.5819C236.912 67.9195 240.811 62.1646 243.138 58.7277C243.881 57.6302 244.464 56.7689 244.693 56.3531C245.549 54.8012 246.406 53.2378 247.266 51.6662C248.163 50.0296 249.064 48.3848 249.971 46.7379Z" fill="#2E3120"/>
<path d="M277.585 61.9603L293.471 70.7177C291.513 73.2495 289.569 75.8013 288.052 78.5544C287.743 79.1142 287.148 80.9111 286.577 82.6322C285.844 84.8435 285.153 86.929 285.165 86.1055C285.699 85.1375 281.265 83.1669 277.012 81.2763C273.415 79.6775 269.947 78.1358 269.723 77.3068C269.286 75.6949 271.996 71.5455 273.748 68.8636C274.289 68.0354 274.738 67.3476 274.975 66.9177C275.861 65.3121 276.724 63.65 277.585 61.9603Z" fill="#2E3120"/>
<path d="M307.587 78.4996L322.691 86.8265C321.26 88.2887 319.859 89.7782 318.516 91.3192C317.727 92.2243 316.898 93.093 316.068 93.9605C314.655 95.4383 313.243 96.9146 312.037 98.5714C311.813 98.8797 307.847 99.1571 307.191 98.3606C306.347 97.3353 305.282 96.4835 304.266 95.6714C302.447 94.2162 300.79 92.8905 300.862 90.9346C300.927 89.1882 302.823 86.419 304.333 84.2169C304.96 83.3015 305.52 82.4848 305.854 81.8783C306.365 80.9515 306.945 79.8033 307.587 78.4996Z" fill="#2E3120"/>
<path d="M335.736 94.0177L349.681 101.706L342.916 113.978C342.846 114.105 342.744 114.299 342.615 114.544C341.551 116.57 338.678 122.042 337.208 121.232C336.766 120.989 336.312 120.742 335.849 120.492C330.983 117.855 325.318 114.786 325.501 110C325.578 107.93 327.985 105.199 330.099 102.801C331.297 101.442 332.402 100.188 332.933 99.2236C333.88 97.5063 334.811 95.767 335.736 94.0177Z" fill="#2E3120"/>
<path d="M363.613 109.385L375.258 115.805C371.319 123.439 368.126 129.936 368.152 129.89C360.412 132.612 356.864 124.939 356.25 122.856C355.908 121.697 358.88 117.219 360.674 114.515C361.252 113.643 361.708 112.956 361.891 112.624C362.477 111.561 363.049 110.48 363.613 109.385Z" fill="#2E3120"/>
<path d="M386.377 121.935L398.921 128.85C398.36 129.683 397.797 130.527 397.231 131.375C395.472 134.011 393.69 136.682 391.882 139.16C391.36 139.874 388.222 139.843 387.154 139.254C385.878 138.55 384.75 138.169 383.794 137.845C382.118 137.278 380.971 136.891 380.484 135.258C380.072 133.872 383.192 127.713 384.001 126.245L386.377 121.935Z" fill="#2E3120"/>
<path d="M410.907 135.457L425.94 143.744C424.945 144.756 423.971 145.785 423.028 146.842C422.251 147.711 421.432 148.543 420.612 149.374C419.218 150.79 417.824 152.204 416.643 153.802C416.424 154.099 412.413 154.273 411.729 153.474C410.847 152.447 409.747 151.584 408.698 150.762C406.819 149.288 405.108 147.945 405.132 146.026C405.154 144.313 407.007 141.641 408.482 139.517C409.095 138.633 409.641 137.845 409.965 137.258C410.257 136.729 410.571 136.124 410.907 135.457Z" fill="#2E3120"/>
<path d="M444.249 153.838L459.712 162.362C458.337 163.583 456.959 164.788 455.581 165.974C452.559 168.576 449.561 171.113 446.171 173.038C446.032 173.117 445.625 173.397 445.127 173.74C443.778 174.669 441.757 176.061 442.55 175.177C440.168 173.864 434.417 169.148 433.657 166.63C433.455 165.961 434.925 164.689 435.845 163.893C436.152 163.627 436.397 163.414 436.499 163.295C438.816 160.575 441.072 157.776 443.325 154.984C443.633 154.601 443.941 154.22 444.249 153.838Z" fill="#2E3120"/>
<path d="M478.677 172.818L491.555 179.917C491.545 179.93 491.535 179.942 491.526 179.955C491.008 180.648 490.056 182.33 488.889 184.392C485.715 190 480.941 198.434 478.935 197.522C479.201 198.378 477.583 197.554 476.278 196.888C475.699 196.594 475.182 196.331 474.916 196.258C473.891 195.977 468.095 194.051 467.698 192.768C467.182 191.099 471.071 185.391 473.393 181.981C474.134 180.894 474.715 180.039 474.943 179.625C475.792 178.084 476.644 176.53 477.498 174.97C477.89 174.254 478.283 173.536 478.677 172.818Z" fill="#2E3120"/>
<path d="M504.423 187.011L514.713 192.683C514.656 192.774 514.6 192.865 514.543 192.957C510.877 198.87 505.819 207.028 503.917 205.594C504.12 205.706 497.171 201.983 496.834 200.778C496.588 199.899 498.936 196.349 500.264 194.341C500.665 193.734 500.974 193.268 501.089 193.059L504.423 187.011Z" fill="#2E3120"/>
<path d="M527.547 199.758L543.155 208.363C541.608 210.376 540.121 212.424 538.918 214.607C538.618 215.15 538.049 216.9 537.503 218.575C536.803 220.727 536.142 222.757 536.144 221.953C536.662 221.013 532.234 219.032 527.987 217.131C524.394 215.523 520.931 213.973 520.698 213.161C520.244 211.58 522.885 207.556 524.592 204.956C525.118 204.154 525.556 203.487 525.786 203.07C526.382 201.989 526.967 200.882 527.547 199.758Z" fill="#2E3120"/>
<path d="M558.397 216.765L565.854 220.876L559.034 233.247C555.74 231.811 552.271 229.938 552.364 228.551C552.513 226.306 554.723 222.768 556.557 219.833C557.222 218.767 557.838 217.781 558.288 216.965C558.324 216.899 558.361 216.833 558.397 216.765Z" fill="#2E3120"/>
<path d="M543.134 262.091L520.203 303.687C516.872 302.231 513.361 300.336 513.451 298.941C513.593 296.685 515.813 293.134 517.655 290.188C518.324 289.119 518.943 288.13 519.394 287.311C520.497 285.31 521.728 282.531 523.08 279.476C526.873 270.908 531.625 260.174 537.218 258.374C538.225 258.049 540.519 259.949 542.081 261.241C542.497 261.585 542.86 261.886 543.134 262.091Z" fill="#2E3120"/>
<path d="M507.204 327.267L482.801 371.533C481.66 371.579 480.394 371.48 480.057 371.06C479.245 370.049 478.215 369.214 477.233 368.418C475.473 366.992 473.87 365.694 473.97 363.739C474.06 361.992 475.961 359.197 477.474 356.973C478.102 356.049 478.664 355.224 479 354.614C479.823 353.121 480.829 351.06 481.979 348.703C486.5 339.44 493.258 325.592 499.985 323.541C500.871 323.272 503.953 325.036 507.204 327.267Z" fill="#2E3120"/>
<path d="M473.458 388.482L451.048 429.132C447.72 427.669 444.211 425.773 444.286 424.404C444.406 422.188 446.58 418.721 448.384 415.844C449.039 414.8 449.645 413.834 450.086 413.033C451.164 411.078 452.361 408.359 453.677 405.371C457.368 396.989 461.991 386.487 467.537 384.773C468.536 384.463 470.837 386.351 472.403 387.636C472.819 387.979 473.183 388.278 473.458 388.482Z" fill="#2E3120"/>
<path d="M435.149 457.973L412.218 499.568C408.887 498.112 405.377 496.217 405.466 494.822C405.609 492.566 407.829 489.015 409.671 486.07C410.339 485.001 410.958 484.011 411.409 483.192C412.512 481.191 413.743 478.412 415.095 475.358C418.888 466.79 423.64 456.055 429.233 454.256C430.24 453.93 432.535 455.829 434.096 457.122C434.511 457.467 434.875 457.768 435.149 457.973Z" fill="#2E3120"/>
<path d="M401.879 518.324L377.477 562.589C376.336 562.635 375.069 562.536 374.733 562.116C373.921 561.106 372.89 560.27 371.908 559.475C370.148 558.049 368.545 556.75 368.645 554.795C368.736 553.048 370.637 550.253 372.149 548.03C372.778 547.106 373.339 546.28 373.676 545.67C374.499 544.177 375.504 542.117 376.654 539.759C381.175 530.497 387.933 516.649 394.66 514.598C395.547 514.329 398.628 516.092 401.879 518.324Z" fill="#2E3120"/>
</svg>
