<svg width="377" height="609" viewBox="0 0 377 609" fill="none" xmlns="http://www.w3.org/2000/svg">
<g opacity="0.15" clip-path="url(#clip0_293_19981)">
<mask id="mask0_293_19981" style="mask-type:luminance" maskUnits="userSpaceOnUse" x="-236" y="0" width="613" height="609">
<path d="M377 0H-236V609H377V0Z" fill="white"/>
</mask>
<g mask="url(#mask0_293_19981)">
<path fill-rule="evenodd" clip-rule="evenodd" d="M70.5 609C239.774 609 377 472.669 377 304.5C377 136.329 239.774 0 70.5 0C-98.7754 0 -236 136.329 -236 304.5C-236 472.669 -98.7754 609 70.5 609ZM70.5 572.46C219.462 572.46 340.22 452.49 340.22 304.5C340.22 156.51 219.462 36.54 70.5 36.54C-78.4624 36.54 -199.22 156.51 -199.22 304.5C-199.22 452.49 -78.4624 572.46 70.5 572.46ZM70.5 535.92C199.15 535.92 303.44 432.311 303.44 304.5C303.44 176.69 199.15 73.08 70.5 73.08C-58.1491 73.08 -162.44 176.69 -162.44 304.5C-162.44 432.311 -58.1491 535.92 70.5 535.92ZM70.5 499.38C178.835 499.38 266.66 412.129 266.66 304.5C266.66 196.871 178.835 109.62 70.5 109.62C-37.8361 109.62 -125.66 196.871 -125.66 304.5C-125.66 412.129 -37.8361 499.38 70.5 499.38ZM229.88 304.5C229.88 391.949 158.524 462.84 70.5 462.84C-17.5231 462.84 -88.88 391.949 -88.88 304.5C-88.88 217.051 -17.5231 146.16 70.5 146.16C158.524 146.16 229.88 217.051 229.88 304.5ZM193.1 304.5C193.1 371.767 138.209 426.3 70.5 426.3C2.78986 426.3 -52.1 371.767 -52.1 304.5C-52.1 237.232 2.78986 182.7 70.5 182.7C138.209 182.7 193.1 237.232 193.1 304.5Z" fill="white"/>
</g>
</g>
<defs>
<clipPath id="clip0_293_19981">
<rect width="613" height="609" fill="white" transform="translate(-236)"/>
</clipPath>
</defs>
</svg>
