<svg width="34" height="34" viewBox="0 0 34 34" fill="none" xmlns="http://www.w3.org/2000/svg">
<circle cx="17.1667" cy="17.1667" r="14.1667" fill="white" fill-opacity="0.2"/>
<path fill-rule="evenodd" clip-rule="evenodd" d="M17 11.28C14.3883 11.28 12.28 13.3786 12.28 15.9564C12.28 17.4113 12.95 18.712 14.0055 19.5714C14.1198 19.6644 14.1985 19.794 14.2282 19.9384C14.348 20.5189 14.516 21.1889 14.6361 21.649C14.6613 21.7456 14.7268 21.7892 14.7889 21.7954C15.2084 21.8373 15.9171 21.8837 17 21.8837C18.0829 21.8837 18.7916 21.8373 19.2111 21.7954C19.2732 21.7892 19.3387 21.7456 19.3639 21.649C19.484 21.1889 19.652 20.5189 19.7718 19.9384C19.8015 19.794 19.8802 19.6644 19.9945 19.5714C21.05 18.712 21.72 17.4113 21.72 15.9564C21.72 13.3786 19.6117 11.28 17 11.28ZM11 15.9564C11 12.6618 13.6912 10 17 10C20.3088 10 23 12.6618 23 15.9564C23 17.7316 22.2171 19.3247 20.9793 20.4144C20.8588 20.9695 20.7099 21.5604 20.6024 21.9721C20.4918 22.3961 20.2022 22.7564 19.8037 22.942L19.7549 23.3927C19.6811 24.074 19.1925 24.6925 18.4438 24.7908C18.0711 24.8397 17.5864 24.8799 17 24.8799C16.3833 24.8799 15.9048 24.8355 15.553 24.7822C14.9011 24.6836 14.4726 24.1659 14.3638 23.586C14.33 23.4058 14.2921 23.1964 14.2532 22.9671C13.8254 22.7902 13.5134 22.416 13.3976 21.9721C13.2901 21.5604 13.1412 20.9695 13.0207 20.4144C11.7829 19.3247 11 17.7316 11 15.9564ZM19.8 15.9563C19.8 14.4099 18.5464 13.1563 17 13.1563C16.6465 13.1563 16.36 12.8697 16.36 12.5162C16.36 12.1628 16.6465 11.8762 17 11.8762C19.2533 11.8762 21.08 13.7029 21.08 15.9563C21.08 16.3097 20.7935 16.5963 20.44 16.5963C20.0865 16.5963 19.8 16.3097 19.8 15.9563Z" fill="white"/>
</svg>
