<svg width="24" height="24" viewBox="0 0 24 24" fill="none" xmlns="http://www.w3.org/2000/svg">
<path d="M8.16797 2.875C9.31724 2.875 10.4198 3.33187 11.2324 4.14453C11.5421 4.45432 11.8004 4.80603 12.001 5.18652C12.2018 4.80611 12.4598 4.45429 12.7695 4.14453C13.5821 3.33195 14.6839 2.87509 15.833 2.875H21.583C21.8591 2.875 22.083 3.09886 22.083 3.375V17.75C22.083 18.0261 21.8591 18.25 21.583 18.25H14.875C14.2451 18.25 13.6407 18.4999 13.1953 18.9453C12.7545 19.3861 12.5061 19.9826 12.501 20.6055V20.625C12.501 20.9011 12.2771 21.125 12.001 21.125L12 21.124V21.125C11.7239 21.125 11.5 20.9011 11.5 20.625V20.6055C11.4949 19.9826 11.2465 19.3861 10.8057 18.9453C10.3603 18.5 9.75579 18.25 9.12598 18.25H2.41797C2.14183 18.25 1.91797 18.0261 1.91797 17.75V3.375C1.91797 3.09886 2.14183 2.875 2.41797 2.875H8.16797ZM2.91797 17.25H9.12598C10.015 17.25 10.8683 17.6007 11.5 18.2256V7.18652C11.4943 6.3105 11.1452 5.47151 10.5254 4.85156C9.90027 4.22644 9.05202 3.875 8.16797 3.875H2.91797V17.25ZM15.833 3.875C14.9491 3.87509 14.1016 4.22652 13.4766 4.85156C12.8566 5.47154 12.5057 6.31035 12.5 7.18652C12.5 7.19368 12.501 7.20084 12.501 7.20801V18.2256C13.1327 17.6006 13.9859 17.25 14.875 17.25H21.083V3.875H15.833ZM8.16699 11.5C8.44298 11.5002 8.66699 11.724 8.66699 12C8.66699 12.276 8.44298 12.4998 8.16699 12.5H6.25C5.97386 12.5 5.75 12.2761 5.75 12C5.75 11.7239 5.97386 11.5 6.25 11.5H8.16699ZM17.749 11.5C18.025 11.5002 18.249 11.724 18.249 12C18.249 12.276 18.025 12.4998 17.749 12.5H15.832C15.5559 12.5 15.332 12.2761 15.332 12C15.332 11.7239 15.5559 11.5 15.832 11.5H17.749ZM8.16699 7.66699C8.44298 7.66717 8.66699 7.89096 8.66699 8.16699C8.66699 8.44303 8.44298 8.66682 8.16699 8.66699H6.25C5.97386 8.66699 5.75 8.44313 5.75 8.16699C5.75 7.89085 5.97386 7.66699 6.25 7.66699H8.16699ZM17.749 7.66699C18.025 7.66717 18.249 7.89096 18.249 8.16699C18.249 8.44303 18.025 8.66682 17.749 8.66699H15.832C15.5559 8.66699 15.332 8.44313 15.332 8.16699C15.332 7.89085 15.5559 7.66699 15.832 7.66699H17.749Z" fill="white"/>
</svg>
