<svg width="24" height="24" viewBox="0 0 24 24" fill="none" xmlns="http://www.w3.org/2000/svg">
<path d="M14.5068 3.84473C14.6133 3.86864 14.7101 3.92736 14.7812 4.0127L17.0273 6.70801H19.668C20.3089 6.70801 20.9237 6.9628 21.377 7.41602C21.8301 7.86921 22.085 8.48414 22.085 9.125V17.75C22.0849 18.3908 21.8301 19.0058 21.377 19.459C20.9238 19.9121 20.3088 20.166 19.668 20.166H4.33496C3.69417 20.166 3.07916 19.912 2.62598 19.459C2.17284 19.0058 1.91805 18.3908 1.91797 17.75V9.125C1.91797 8.48406 2.17276 7.86923 2.62598 7.41602C3.07919 6.9628 3.69402 6.70801 4.33496 6.70801H6.97461L9.22168 4.0127L9.30078 3.93652C9.38735 3.87 9.49427 3.83301 9.60547 3.83301H14.3975L14.5068 3.84473ZM7.59375 7.52832C7.49882 7.64215 7.35818 7.70791 7.20996 7.70801H4.33496C3.95924 7.70801 3.59868 7.85737 3.33301 8.12305C3.06733 8.38872 2.91797 8.74928 2.91797 9.125V17.75C2.91805 18.1255 3.06751 18.4854 3.33301 18.751C3.59868 19.0167 3.95924 19.166 4.33496 19.166H19.668C20.0437 19.166 20.4042 19.0167 20.6699 18.751C20.9353 18.4854 21.0849 18.1255 21.085 17.75V9.125C21.085 8.74935 20.9355 8.38871 20.6699 8.12305C20.4042 7.85737 20.0437 7.70801 19.668 7.70801H16.793C16.6447 7.70801 16.5042 7.64214 16.4092 7.52832L14.1621 4.83301H9.83984L7.59375 7.52832ZM12 9.58301C12.8951 9.58301 13.7538 9.93835 14.3867 10.5713C15.0197 11.2042 15.375 12.0629 15.375 12.958C15.375 13.8531 15.0197 14.7118 14.3867 15.3447C13.7538 15.9777 12.8951 16.333 12 16.333C11.1049 16.333 10.2462 15.9777 9.61328 15.3447C8.98035 14.7118 8.625 13.8531 8.625 12.958C8.625 12.0629 8.98035 11.2042 9.61328 10.5713C10.2462 9.93835 11.1049 9.58301 12 9.58301ZM12 10.583C11.3701 10.583 10.7657 10.8329 10.3203 11.2783C9.87491 11.7237 9.625 12.3281 9.625 12.958C9.625 13.5879 9.87491 14.1923 10.3203 14.6377C10.7657 15.0831 11.3701 15.333 12 15.333C12.6299 15.333 13.2343 15.0831 13.6797 14.6377C14.1251 14.1923 14.375 13.5879 14.375 12.958C14.375 12.3281 14.1251 11.7237 13.6797 11.2783C13.2343 10.8329 12.6299 10.583 12 10.583Z" fill="white"/>
</svg>
