<svg width="24" height="24" viewBox="0 0 24 24" fill="none" xmlns="http://www.w3.org/2000/svg">
<path d="M17.75 7.66699C18.8993 7.66699 20.0018 8.12387 20.8145 8.93652C21.6268 9.74907 22.0829 10.851 22.083 12C22.083 13.1492 21.627 14.2518 20.8145 15.0645C20.0018 15.8771 18.8993 16.334 17.75 16.334H17.292V16.792C17.292 17.9413 16.8351 19.0438 16.0225 19.8564C15.2098 20.669 14.1072 21.125 12.958 21.125H7.20801C6.05901 21.1249 4.95708 20.6688 4.14453 19.8564C3.33187 19.0438 2.875 17.9413 2.875 16.792V9.125C2.87509 8.73834 3.02834 8.36716 3.30176 8.09375C3.57517 7.82034 3.94635 7.66708 4.33301 7.66699H17.75ZM4.33301 8.66699C4.21157 8.66708 4.09467 8.7149 4.00879 8.80078C3.92291 8.88666 3.87509 9.00356 3.875 9.125V16.792C3.875 17.676 4.22644 18.5243 4.85156 19.1494C5.47658 19.7743 6.32422 20.1249 7.20801 20.125H12.958C13.842 20.125 14.6903 19.7744 15.3154 19.1494C15.9406 18.5243 16.292 17.676 16.292 16.792V9.125C16.2919 9.00356 16.2431 8.88666 16.1572 8.80078C16.0713 8.71503 15.9544 8.66699 15.833 8.66699H4.33301ZM17.2158 8.66699C17.2644 8.81357 17.292 8.96768 17.292 9.125V15.334H17.75C18.6341 15.334 19.4823 14.9825 20.1074 14.3574C20.7324 13.7323 21.083 12.884 21.083 12C21.0829 11.1162 20.7323 10.2686 20.1074 9.64355C19.4823 9.01843 18.6341 8.66699 17.75 8.66699H17.2158ZM6.25 1.91699C6.52614 1.91699 6.75 2.14085 6.75 2.41699V4.33398C6.74982 4.60998 6.52603 4.83398 6.25 4.83398C5.97397 4.83398 5.75018 4.60998 5.75 4.33398V2.41699C5.75 2.14085 5.97386 1.91699 6.25 1.91699ZM10.082 1.91699C10.3582 1.91699 10.582 2.14085 10.582 2.41699V4.33398C10.5819 4.60998 10.3581 4.83398 10.082 4.83398C9.806 4.83398 9.58221 4.60998 9.58203 4.33398V2.41699C9.58203 2.14085 9.80589 1.91699 10.082 1.91699ZM13.918 1.91699C14.1941 1.91699 14.418 2.14085 14.418 2.41699V4.33398C14.4178 4.60998 14.194 4.83398 13.918 4.83398C13.6419 4.83398 13.4181 4.60998 13.418 4.33398V2.41699C13.418 2.14085 13.6418 1.91699 13.918 1.91699Z" fill="white"/>
</svg>
