<svg width="24" height="24" viewBox="0 0 24 24" fill="none" xmlns="http://www.w3.org/2000/svg">
<g clip-path="url(#clip0_948_13233)">
<path d="M5.88379 7.34961C6.61412 7.07209 7.41898 7.05863 8.1582 7.31152C8.54863 7.44476 8.90852 7.65457 9.2168 7.92871C9.52525 8.20311 9.77621 8.53663 9.9541 8.90918C10.132 9.28172 10.2335 9.68627 10.2529 10.0986C10.2724 10.511 10.2093 10.9229 10.0674 11.3105C9.90899 11.7621 9.64474 12.1693 9.29688 12.498C8.94912 12.8266 8.52806 13.0677 8.06836 13.2002C7.28528 13.3545 6.47347 13.2706 5.73828 12.96C5.65829 13.04 5.58804 13.13 5.49805 13.21C5.32637 13.3687 5.13894 13.5095 4.93848 13.6299L4.11816 14C3.58068 14.1293 3.05305 14.2965 2.53906 14.5C2.44495 14.5534 2.37042 14.6362 2.32715 14.7354C2.28402 14.8343 2.274 14.9447 2.29883 15.0498L2.41895 15.3203L2.67871 15.5996C2.77962 15.6693 2.88708 15.7302 2.99902 15.7803C3.10421 15.8021 3.21103 15.8156 3.31836 15.8203C3.50718 15.8497 3.69986 15.8497 3.88867 15.8203C4.08722 15.7882 4.28186 15.7345 4.46875 15.6602C4.49874 15.6402 4.76835 15.4396 4.8584 15.4395C4.93221 15.4061 5.01275 15.3896 5.09375 15.3896C5.17455 15.3897 5.2545 15.4062 5.32812 15.4395C5.44172 15.5017 5.53355 15.5978 5.59082 15.7139C5.64808 15.8302 5.66847 15.9617 5.64844 16.0898C5.61884 16.2871 5.52131 16.8047 5.51855 16.8193L4.99805 19.1992V19.3994H6.08789L9.17773 19.6289H9.56738C9.70734 19.6289 10.3074 19.469 10.4775 19.6289C10.4981 19.5133 10.4981 19.3949 10.4775 19.2793C10.4628 19.0595 10.4257 18.8413 10.3672 18.6289L9.64746 15.9893C9.6384 15.9482 9.63729 15.9057 9.64453 15.8643C9.65184 15.8227 9.66779 15.7827 9.69043 15.7471C9.71318 15.7113 9.74264 15.6796 9.77734 15.6553C9.812 15.631 9.85127 15.6137 9.89258 15.6045C9.93391 15.5953 9.97681 15.5943 10.0186 15.6016C10.0602 15.6089 10.1001 15.6247 10.1357 15.6475C10.1713 15.6701 10.2023 15.6998 10.2266 15.7344C10.2508 15.769 10.2681 15.8083 10.2773 15.8496L11.1074 18.4092C11.2154 18.7324 11.2798 19.0689 11.2979 19.4092C11.3107 19.6719 11.2554 19.9337 11.1377 20.1689C11.0553 20.3108 10.9233 20.4174 10.7676 20.4688C10.8625 20.9729 10.9029 21.4863 10.8877 21.999C10.8562 22.44 10.7219 22.8673 10.4971 23.248C10.3489 23.4743 10.1479 23.6613 9.91113 23.792C9.67413 23.9227 9.40831 23.9933 9.1377 23.998C8.8766 24.0116 8.61638 23.9583 8.38184 23.8428C8.14741 23.7273 7.94613 23.5541 7.79785 23.3389C7.52332 23.5818 7.16399 23.7073 6.79785 23.6885C6.44165 23.715 6.08767 23.6162 5.7959 23.4102C5.50404 23.2041 5.29238 22.9033 5.19824 22.5586C5.07406 21.862 5.09503 21.1473 5.25879 20.459C5.12568 20.4692 4.99152 20.4692 4.8584 20.459C4.64228 20.4284 4.43069 20.3714 4.22852 20.2891C4.1422 20.2477 4.06631 20.1875 4.00586 20.1133C3.94542 20.0391 3.90195 19.9523 3.87891 19.8594C3.87598 19.5684 3.91655 19.2781 3.99902 18.999L4.45898 16.75C4.28503 16.792 4.10732 16.8189 3.92871 16.8301C3.69014 16.8653 3.44756 16.8652 3.20898 16.8301C3.01107 16.799 2.81855 16.7376 2.63867 16.6494C2.45703 16.563 2.28581 16.456 2.12891 16.3301C2.03493 16.2511 1.94813 16.1633 1.86914 16.0693C1.79454 15.975 1.72736 15.8747 1.66895 15.7695C1.61561 15.6778 1.57204 15.5804 1.53906 15.4795C1.50047 15.37 1.47652 15.2555 1.46875 15.1396C1.44075 14.9331 1.46271 14.7228 1.53223 14.5264C1.6018 14.33 1.71744 14.1526 1.86914 14.0098C2.30904 13.5802 3.25836 13.5904 3.86816 13.3906L4.59863 13.1201C4.77091 13.0241 4.93524 12.9136 5.08887 12.79L5.16797 12.71C4.65633 12.3999 4.24948 11.9437 3.99902 11.4004C3.82678 10.9885 3.75156 10.5423 3.7793 10.0967C3.80709 9.65136 3.93633 9.21819 4.1582 8.83105C4.54288 8.15114 5.15357 7.62716 5.88379 7.34961ZM13.9639 10.0908C14.1339 6.37149 19.4625 6.42164 19.8125 10.001C19.9108 10.7568 19.7187 11.522 19.2734 12.1406C19.6756 11.986 20.0902 11.8652 20.5127 11.7803C20.8456 11.7224 21.1873 11.7392 21.5127 11.8301C21.7672 11.9202 21.9935 12.076 22.1689 12.2812C22.3444 12.4865 22.4633 12.7346 22.5127 13C22.5715 13.3578 22.5472 13.7245 22.4414 14.0713C22.3356 14.4181 22.1508 14.7359 21.9023 15C21.5868 15.2937 21.2069 15.5095 20.793 15.6299C20.225 15.7931 19.6328 15.8569 19.043 15.8193C18.9798 15.8175 18.9193 15.7932 18.873 15.75L19.2627 16.8994L19.793 18.1992C20.0566 18.7396 20.2736 19.3017 20.4424 19.8789C20.5442 20.3149 20.5619 20.7666 20.4932 21.209C20.4481 21.5328 20.3236 21.8406 20.1318 22.1055C19.9401 22.3704 19.6863 22.5845 19.3926 22.7285C19.1017 22.8484 18.7854 22.8933 18.4727 22.8584C18.1599 22.8234 17.8608 22.7096 17.6035 22.5283C17.548 22.4929 17.5045 22.4416 17.4795 22.3809C17.4544 22.3201 17.4484 22.2527 17.4629 22.1885C17.3981 22.4856 17.2455 22.7562 17.0244 22.9648C16.8031 23.1735 16.524 23.311 16.2236 23.3584C15.9233 23.4195 15.6128 23.4111 15.3164 23.333C15.02 23.255 14.7451 23.1092 14.5137 22.9082C14.2874 22.6869 14.0891 22.4388 13.9238 22.1689C13.7052 21.7952 13.5182 21.4037 13.3643 20.999C13.0858 20.3258 12.8647 19.6295 12.7041 18.9189C12.508 17.8235 12.4109 16.7124 12.4141 15.5996L12.4746 13.6602C12.4746 13.5833 12.5052 13.5095 12.5596 13.4551C12.6138 13.4009 12.6871 13.3702 12.7637 13.3701C12.8405 13.3701 12.9145 13.4008 12.9688 13.4551C13.0232 13.5095 13.0537 13.5833 13.0537 13.6602L13.1543 15.5303C13.2514 16.4109 13.3978 17.2854 13.5938 18.1494C13.7823 18.9999 14.0438 19.8325 14.374 20.6387C14.5131 20.9799 14.6698 21.3139 14.8438 21.6387C14.9496 21.8348 15.0805 22.0165 15.2334 22.1787C15.3421 22.2803 15.4725 22.3564 15.6143 22.4014C15.7562 22.4463 15.9063 22.4589 16.0537 22.4385C16.1918 22.4337 16.3252 22.386 16.4346 22.3018C16.5438 22.2175 16.6234 22.1009 16.6631 21.9688C16.7181 21.668 16.7181 21.3594 16.6631 21.0586C16.563 20.5539 16.4298 20.0563 16.2637 19.5693C16.2358 19.4884 16.2408 19.3992 16.2783 19.3223C16.3158 19.2455 16.3831 19.187 16.4639 19.1592C16.5446 19.1315 16.6333 19.1364 16.71 19.1738C16.7869 19.2113 16.8451 19.2785 16.873 19.3594C17.0902 19.8623 17.2708 20.3803 17.4131 20.9092C17.4236 20.9482 17.5371 22.8467 18.9932 21.999C19.1472 21.8987 19.2727 21.7602 19.3584 21.5977C19.4442 21.4349 19.4877 21.2523 19.4834 21.0684C19.5024 20.748 19.4649 20.4266 19.373 20.1191C19.2264 19.596 19.0492 19.0817 18.8428 18.5791L18.4932 17.1094L18.2236 15.6201C18.2055 15.5458 18.2166 15.4669 18.2559 15.4014C18.2953 15.3359 18.3596 15.2884 18.4336 15.2695C19.0515 15.1916 19.663 15.0686 20.2627 14.9004C20.6106 14.7797 20.9186 14.5647 21.1523 14.2803C21.3518 14.0194 21.4583 13.6985 21.4531 13.3701C21.4627 13.2438 21.4344 13.1171 21.3721 13.0068C21.3098 12.8965 21.2157 12.807 21.1025 12.75C20.8552 12.6524 20.5872 12.6184 20.3232 12.6504C19.7735 12.6904 19.1733 12.8298 18.7734 12.8799C18.7251 12.8896 18.6748 12.8858 18.6289 12.8682C18.5828 12.8505 18.5421 12.8199 18.5127 12.7803C18.2855 12.9388 18.0366 13.0637 17.7734 13.1504C17.499 13.2271 17.2176 13.2767 16.9336 13.2998C16.7289 13.313 16.5229 13.2963 16.3232 13.25C15.6147 13.0973 14.9855 12.693 14.5518 12.1123C14.1181 11.5316 13.909 10.8136 13.9639 10.0908ZM8.50781 20.5693C8.51428 20.6055 8.5143 20.6426 8.50781 20.6787V21.0791L8.44824 21.7783C8.45299 21.8516 8.45299 21.9258 8.44824 21.999C8.4551 22.2682 8.51609 22.5333 8.62793 22.7783C8.67459 22.8739 8.7468 22.9551 8.83691 23.0117C8.92702 23.0682 9.03132 23.0982 9.1377 23.0986C9.25887 23.1057 9.38 23.0838 9.49121 23.0352C9.6024 22.9865 9.70032 22.9122 9.77734 22.8184C9.95771 22.5593 10.0741 22.2609 10.1172 21.9482V21.8984C10.1646 21.4563 10.1584 21.0099 10.0977 20.5693H8.50781ZM5.82812 20.5186C5.72815 21.1241 5.75547 21.7445 5.9082 22.3389C5.97829 22.5038 6.10338 22.6389 6.26172 22.7227C6.42014 22.8065 6.60256 22.8337 6.77832 22.7988C6.8711 22.7904 6.95958 22.7566 7.03516 22.7021C7.1108 22.6476 7.17073 22.5738 7.20801 22.4883C7.2904 22.3369 7.34192 22.1705 7.3584 21.999C7.34212 21.5223 7.38572 21.0451 7.48828 20.5791C7.48395 20.5594 7.48395 20.5383 7.48828 20.5186H5.82812ZM7.05566 7.79199C6.75077 7.78186 6.44707 7.83344 6.16211 7.94238C5.87718 8.05133 5.61684 8.21583 5.39648 8.42676C5.17613 8.63776 5.00013 8.89093 4.87891 9.1709C4.73867 9.45548 4.66504 9.76867 4.66504 10.0859C4.66506 10.4031 4.73868 10.7164 4.87891 11.001C5.16611 11.4817 5.62223 11.8378 6.1582 12C6.68732 12.2265 7.27041 12.2961 7.83789 12.2002C8.13854 12.1219 8.41564 11.9717 8.64551 11.7627C8.87528 11.5538 9.05174 11.2928 9.1582 11.001C9.28948 10.7018 9.35239 10.3765 9.34375 10.0498C9.33505 9.72335 9.25423 9.40304 9.10742 9.11133C8.86061 8.61499 8.44613 8.22135 7.9375 8.00098C7.66047 7.87338 7.3605 7.80216 7.05566 7.79199ZM18.8232 10.1406C18.7132 7.43125 14.7544 7.46124 14.8242 10.1406C14.8188 10.6345 14.9881 11.1145 15.3027 11.4951C15.6174 11.8758 16.0569 12.1331 16.543 12.2207C16.6857 12.2406 16.831 12.2406 16.9736 12.2207C17.1368 12.2005 17.2974 12.1633 17.4531 12.1104C17.8721 11.9881 18.237 11.7256 18.4863 11.3672C18.7354 11.0088 18.8544 10.5759 18.8232 10.1406ZM16.8535 0.422852C17.1199 0.403778 17.3873 0.434207 17.6426 0.512695C18.001 0.618721 18.3392 0.784659 18.6426 1.00293C18.7568 1.0909 18.8642 1.18797 18.9629 1.29297C19.137 1.4764 19.3004 1.66974 19.4521 1.87207C19.483 1.90188 19.5076 1.93807 19.5244 1.97754C19.5411 2.01704 19.5498 2.05963 19.5498 2.10254C19.5498 2.14538 19.5411 2.18809 19.5244 2.22754C19.5076 2.26689 19.4829 2.3023 19.4521 2.33203C19.3895 2.38959 19.3077 2.42188 19.2227 2.42188C19.1375 2.42186 19.0558 2.38958 18.9932 2.33203C18.8632 2.19213 18.7327 2.05277 18.5928 1.92285C18.4667 1.79912 18.3256 1.69127 18.1729 1.60254C17.9686 1.48524 17.7505 1.39391 17.5234 1.33203L17.2734 1.28223V2.1123C17.3652 3.05469 17.3111 4.00569 17.1133 4.93164C17.0366 5.19165 16.9006 5.43053 16.7168 5.62988C16.5331 5.82924 16.3057 5.98437 16.0527 6.08203C15.7237 6.21553 15.355 6.21455 15.0264 6.08008C14.6977 5.94549 14.435 5.68731 14.2939 5.36133C14.1769 5.04751 14.1729 4.70265 14.2842 4.38672C14.3957 4.07055 14.615 3.8029 14.9033 3.63184C15.1102 3.51332 15.3446 3.45153 15.583 3.45215C15.8182 3.45848 16.0527 3.48533 16.2832 3.53223V2.15234L16.4131 1.15234V0.762695C16.4407 0.666679 16.498 0.581633 16.5771 0.520508C16.6562 0.459372 16.7535 0.425342 16.8535 0.422852ZM11.2168 0.12207C11.4465 0.172023 11.6864 0.231841 11.9062 0.301758C12.1423 0.375224 12.3735 0.465992 12.5967 0.572266C12.6755 0.607348 12.7377 0.671754 12.7695 0.751953C12.8013 0.832316 12.8002 0.922345 12.7666 1.00195C12.7231 1.07207 12.6546 1.12324 12.5752 1.14551C12.4957 1.16769 12.4105 1.15944 12.3369 1.12207C12.1352 1.04373 11.9278 0.979768 11.7168 0.931641C11.5069 0.881676 11.297 0.812575 11.0771 0.8125H10.2871C10.0932 0.863335 9.90243 0.926284 9.7168 1.00195L9.97656 1.3418C10.3064 1.82156 10.7365 2.29158 11.0664 2.82129C11.3209 3.20174 11.5136 3.62067 11.6367 4.06152C11.7134 4.39038 11.7134 4.73267 11.6367 5.06152C11.5688 5.3329 11.4146 5.57492 11.1973 5.75098C11.0132 5.89479 10.8001 5.99817 10.5732 6.05371C10.3464 6.10922 10.1104 6.11574 9.88086 6.07324C9.65118 6.0307 9.43316 5.93974 9.24121 5.80664C9.04942 5.67364 8.88791 5.50173 8.76758 5.30176C8.62983 5.12936 8.53138 4.92834 8.47949 4.71387C8.42762 4.49923 8.42294 4.275 8.4668 4.05859C8.51068 3.84234 8.60215 3.63833 8.7334 3.46094C8.8647 3.28353 9.0335 3.13645 9.22754 3.03125C9.34214 2.96273 9.46671 2.91244 9.59668 2.88184H9.77734C9.55738 2.55189 9.31691 2.24136 9.12695 1.94141L8.6377 1.15234L8.49707 0.961914C8.44551 0.88148 8.41802 0.78792 8.41797 0.692383C8.41797 0.596677 8.44539 0.502427 8.49707 0.421875C8.62744 0.267166 8.80199 0.156137 8.99707 0.102539C9.39878 0.0249052 9.80785 -0.00922248 10.2168 0.00195312L11.2168 0.12207ZM15.583 4.05176C15.4681 4.05645 15.3572 4.0951 15.2637 4.16211C15.1294 4.25021 15.0344 4.38728 14.999 4.54395C14.9636 4.70051 14.99 4.86472 15.0732 5.00195C15.1045 5.05684 15.1481 5.10384 15.2002 5.13965C15.2522 5.17543 15.3116 5.19936 15.374 5.20898C15.4364 5.21857 15.5002 5.21369 15.5605 5.19531C15.6209 5.17681 15.6772 5.14449 15.7236 5.10156C16.0332 4.98148 16.1234 4.64194 16.1934 4.28223C16.1894 4.20563 16.1894 4.12837 16.1934 4.05176C15.9906 4.03178 15.7858 4.03178 15.583 4.05176ZM9.79688 3.49121C9.71252 3.5086 9.63388 3.54685 9.56738 3.60156C9.46496 3.66236 9.37684 3.74577 9.31055 3.84473C9.24442 3.94358 9.20082 4.05615 9.18359 4.17383C9.16642 4.29156 9.17584 4.41171 9.21094 4.52539C9.24604 4.63904 9.30619 4.74353 9.38672 4.83105C9.44396 4.91663 9.5192 4.98928 9.60645 5.04395C9.6937 5.09859 9.79159 5.13428 9.89355 5.14844C9.99549 5.16257 10.0995 5.15477 10.1982 5.12598C10.297 5.09717 10.3885 5.04807 10.4668 4.98145C10.4957 4.9532 10.5183 4.91884 10.5322 4.88086C10.546 4.84288 10.5508 4.80192 10.5469 4.76172C10.572 4.62298 10.5719 4.48054 10.5469 4.3418C10.4542 4.02685 10.3158 3.72629 10.1367 3.45117L9.79688 3.49121Z" fill="white"/>
</g>
<defs>
<clipPath id="clip0_948_13233">
<rect width="24" height="24" fill="white"/>
</clipPath>
</defs>
</svg>
