<svg width="24" height="24" viewBox="0 0 24 24" fill="none" xmlns="http://www.w3.org/2000/svg">
<path d="M10.083 1.91699C10.978 1.91699 11.8368 2.27242 12.4697 2.90527C13.1027 3.53821 13.458 4.39689 13.458 5.29199C13.458 5.93293 13.2032 6.54776 12.75 7.00098C12.2969 7.45391 11.6826 7.70888 11.042 7.70898C10.7064 7.70898 10.4079 7.66886 10.1406 7.5957C9.9301 7.79223 9.76982 8.10755 9.6582 8.57617C9.51978 9.15764 9.47833 9.8757 9.44922 10.6709C9.42086 11.4459 9.40391 12.2943 9.30176 13.0625C9.29527 13.1113 9.28658 13.1603 9.2793 13.209C9.70472 12.9542 10.1653 12.76 10.6475 12.6328C11.1169 12.509 11.6003 12.452 12.083 12.46C12.5823 11.4857 13.3725 10.6867 14.3486 10.1787C15.429 9.61654 16.6707 9.44483 17.8633 9.69141C19.0557 9.93803 20.1268 10.5879 20.8955 11.5322C21.6642 12.4766 22.0835 13.6574 22.083 14.875C22.083 18.9648 17.9027 22.084 12.958 22.084C10.9732 22.084 8.98221 21.8841 7.20996 21.4814C5.55467 21.1054 4.06028 20.5454 2.94043 19.7812L2.72168 19.626C2.15909 19.2086 1.91256 18.5453 1.92578 17.9082C1.97795 15.299 2.12453 11.3566 3.16699 8.05762C3.68908 6.40545 4.44774 4.87401 5.56641 3.75098C6.69815 2.61496 8.17976 1.91706 10.083 1.91699ZM10.083 2.91699C8.4538 2.91706 7.2245 3.50324 6.27441 4.45703C5.31118 5.42407 4.61624 6.78935 4.12012 8.35938C3.12641 11.5044 2.97711 15.3122 2.9248 17.9287V17.9297C2.91704 18.3082 3.06364 18.634 3.31738 18.8223C4.30275 19.5516 5.73601 20.1216 7.43164 20.5068C9.12044 20.8905 11.036 21.084 12.958 21.084C17.5966 21.084 21.083 18.195 21.083 14.875C21.0835 13.8874 20.7435 12.93 20.1201 12.1641C19.4966 11.3981 18.6274 10.8699 17.6602 10.6699C16.693 10.4701 15.6866 10.6105 14.8105 11.0664C14.1309 11.4201 13.562 11.947 13.1582 12.5889C13.8873 12.7529 14.5743 13.0684 15.1729 13.5176C15.3933 13.6833 15.4379 13.9961 15.2725 14.2168C15.1067 14.4373 14.793 14.483 14.5723 14.3174C14.0543 13.9287 13.4549 13.6623 12.8193 13.5381C12.1839 13.414 11.5284 13.4346 10.9023 13.5996C10.2763 13.7648 9.69473 14.0698 9.20312 14.4912C8.97671 14.6854 8.77222 14.9024 8.5918 15.1377C8.58323 15.1495 8.57712 15.1631 8.56836 15.1748C8.56109 15.1845 8.55079 15.1922 8.54297 15.2012C8.35277 15.4591 8.19138 15.7387 8.0625 16.0342C7.9518 16.2867 7.65712 16.4023 7.4043 16.292C7.15166 16.1815 7.0364 15.8867 7.14648 15.6338C7.31478 15.248 7.52849 14.8849 7.78125 14.5518C8.05294 14.1771 8.21757 13.6294 8.31055 12.9307C8.40463 12.2232 8.41974 11.4392 8.44922 10.6338C8.47797 9.84846 8.52103 9.03585 8.68555 8.34473C8.79021 7.90526 8.95336 7.47394 9.22363 7.12109C9.00872 6.93951 8.84127 6.73276 8.70508 6.52246C8.55501 6.29067 8.62174 5.98114 8.85352 5.83105C9.0853 5.68102 9.39485 5.74675 9.54492 5.97852C9.6882 6.19978 9.84925 6.37308 10.0635 6.49512C10.2774 6.61687 10.5816 6.70898 11.042 6.70898C11.4174 6.70888 11.7774 6.55934 12.043 6.29395C12.3086 6.02827 12.458 5.66772 12.458 5.29199C12.458 4.6621 12.2081 4.0577 11.7627 3.6123C11.3173 3.16699 10.7128 2.91699 10.083 2.91699Z" fill="white"/>
</svg>
