<svg width="24" height="24" viewBox="0 0 24 24" fill="none" xmlns="http://www.w3.org/2000/svg">
<path d="M17.3008 4.79688C18.3008 4.84355 19.2558 5.23562 20.002 5.90918C20.7961 6.62607 21.297 7.61093 21.4082 8.6748L21.4238 8.80859L21.4248 8.81836C21.4999 9.44345 22.085 14.3147 22.085 15.834C22.0849 16.729 21.7286 17.5869 21.0957 18.2197C20.4628 18.8526 19.6049 19.2089 18.71 19.209C17.5318 19.209 16.9239 18.5879 16.4395 18.1035L15.084 16.749C14.8184 16.4834 14.4586 16.3341 14.083 16.334H9.91992C9.54423 16.3341 9.18358 16.4833 8.91797 16.749L7.56348 18.1035C7.07906 18.5879 6.47114 19.209 5.29297 19.209C4.84976 19.209 4.41045 19.1218 4.00098 18.9521C3.5916 18.7825 3.21959 18.5331 2.90625 18.2197C2.59301 17.9064 2.34436 17.5343 2.1748 17.125C2.00529 16.7157 1.91801 16.277 1.91797 15.834C1.91797 14.3157 2.503 9.44346 2.57812 8.81836L2.5791 8.81055C2.58532 8.76522 2.58512 8.74961 2.59375 8.6748C2.70498 7.61068 3.20657 6.62513 4.00098 5.9082C4.79693 5.19 5.83123 4.79224 6.90332 4.79199H17.0996L17.3008 4.79688ZM6.90332 5.79199C6.0787 5.79218 5.28315 6.098 4.6709 6.65039C4.05871 7.20287 3.67252 7.96294 3.58789 8.7832V8.79004C3.58517 8.81371 3.57709 8.88469 3.57031 8.93652L3.57129 8.9375C3.49116 9.60423 2.91797 14.3929 2.91797 15.834C2.91801 16.1456 2.97941 16.4542 3.09863 16.7422C3.21793 17.0302 3.3929 17.2922 3.61328 17.5127C3.83379 17.7332 4.09568 17.909 4.38379 18.0283C4.67194 18.1477 4.98108 18.209 5.29297 18.209C6.03146 18.209 6.38253 17.8704 6.85645 17.3965L8.21094 16.042C8.66404 15.5887 9.27903 15.3341 9.91992 15.334H14.083C14.7238 15.3341 15.3379 15.5888 15.791 16.042L17.1465 17.3965C17.6204 17.8704 17.9715 18.209 18.71 18.209C19.3397 18.2089 19.9433 17.958 20.3887 17.5127C20.834 17.0674 21.0849 16.4638 21.085 15.834C21.085 14.3986 20.5169 9.64864 20.4326 8.94727C20.4256 8.8973 20.4173 8.81155 20.415 8.79199L20.4141 8.78418C20.3296 7.96377 19.9442 7.20403 19.332 6.65137C18.7963 6.16774 18.1204 5.87294 17.4072 5.80664L17.0996 5.79199H6.90332ZM8.16797 8.625C8.44411 8.625 8.66797 8.84886 8.66797 9.125V10.542H10.083C10.3592 10.542 10.583 10.7658 10.583 11.042C10.583 11.3181 10.3592 11.542 10.083 11.542H8.66797V12.958C8.66797 13.2342 8.44411 13.458 8.16797 13.458C7.89183 13.458 7.66797 13.2342 7.66797 12.958V11.542H6.25C5.97386 11.542 5.75 11.3181 5.75 11.042C5.75 10.7658 5.97386 10.542 6.25 10.542H7.66797V9.125C7.66797 8.84886 7.89183 8.625 8.16797 8.625ZM14.8848 11.5C15.1608 11.5001 15.3848 11.7239 15.3848 12C15.3848 12.2761 15.1608 12.4999 14.8848 12.5H14.875C14.5989 12.5 14.375 12.2761 14.375 12C14.375 11.7239 14.5989 11.5 14.875 11.5H14.8848ZM17.7598 9.58301C18.0358 9.58311 18.2598 9.80693 18.2598 10.083C18.2598 10.3591 18.0358 10.5829 17.7598 10.583H17.75C17.4739 10.583 17.25 10.3592 17.25 10.083C17.25 9.80687 17.4739 9.58301 17.75 9.58301H17.7598Z" fill="white"/>
</svg>
